<svg id="Layer_1" data-name="Layer 1" xmlns="http://www.w3.org/2000/svg" viewBox="0 0 1489.21 442.87"><defs><style>.cls-1{fill:#e5242a;}.cls-2{fill:#e10000;}</style></defs><path d="M494.12,333.54Q521.33,281.83,520,198.78q-1.37-10.87-16.33-6.81-1.38,0-4.09-4.08,9.51-24.51,36.76-20.42Q566.24,181.09,618,311.76q4.1,6.84,8.17,0,19.05-44.91,65.34-122.51c.9-1.81,1.36-4.53,1.36-8.17q0-4.08,1.36-5.44c0-1.81,1.81-3.62,5.45-5.45a84.12,84.12,0,0,0,13.61-1.36q16.34-2.72,21.78-2.72c5.45,1.83,9.06,5.91,10.89,12.25q-2.75,13.62-4.08,24.5T739.15,226q-1.38,21.8-1.36,43.56,0,19.08,4.08,50.37Q744.58,339,746,343.07q-1.37,17.71-27.22,17.7a5.52,5.52,0,0,1-4.09-1.36q0-4.08,1.37-39.48,4.08-129.3,4.08-130.68Q682,221.92,645.22,322.65q-2.75,15-9.53,15-24.51,8.16-32.67,0c-2.72-.9-3.64-4.53-2.72-10.89q-10.92-36.75-57.18-128c-4.55-1.81-6.8-1.36-6.8,1.36q9.51,113-23.14,160.63-4.09,2.72-12.26,0Q487.3,351.26,494.12,333.54Z"/><path d="M898.42,216.48c-.92-4.54,2.72-7.7,10.89-9.53q8.16,1.37,17.69,10.89v5.44q-6.82,32.67-6.8,77.59v9.53q4.08,31.34,4.08,36.76-1.37,12.24-8.17,12.25-13.62,1.36-15-9.53a55.32,55.32,0,0,1,2.72-17.7,1.72,1.72,0,0,0-2.72,0q-15,28.59-58.54,27.23-65.34-1.34-64-50.37,0-74.85-4.08-91.2v-1.36c1.81-4.54,5.89-7.7,12.25-9.53q13.59,5.45,13.61,17.69-6.82,21.8-6.8,39.48,0,39.5,1.36,44.92,2.71,34.05,47.64,35.39,43.56,1.38,59.9-38.11Q907.93,273.65,898.42,216.48Z"/><path class="cls-1" d="M966.48,246.42q0-39.46,59.9-39.47,2.7,0,13.61,1.36,50.34,4.08,66.7-2.72a16.2,16.2,0,0,1,4.08,2.72q-2.74,27.24-24.5,27.22c-2.72,0-6.36-1.36-10.89-4.08q-6.83-2.72-9.53-4.08-24.49-6.81-39.47-6.81-38.13,1.37-39.48,25.86,1.33,21.79,46.28,21.78,84.39,0,81.68,42.2,0,50.39-83,49-46.29-1.34-68.06-17.7c-5.45-3.61-8.17-8.17-8.17-13.61q0-9.51,17.7-12.25c.89.91,1.8,1.83,2.72,2.72q13.59,24.51,55.81,24.5,62.6,1.38,65.34-32.67-1.37-29.92-62.62-27.22Q966.46,285.92,966.48,246.42Z"/><path d="M1144.81,172.91c0-2.72,1.8-5.44,5.44-8.16a50.06,50.06,0,0,1,23.14,10.89c.9,1.83.9,4.08,0,6.8q-8.16,21.8-6.8,61.26,25.83-29.92,62.61-31.31,61.26,1.38,62.62,59.9,0,19.08,1.36,42.2,1.35,24.5,4.09,35.39-2.74,10.9-16.34,12.25c-5.44-.91-8.17-3.61-8.17-8.17v-34q1.35-42.18,1.37-47.64-6.84-39.47-44.93-43.56-39.5,4.08-62.61,39.47,0,19.08,1.36,53.09,1.33,24.51,2.72,27.23-1.37,12.25-16.34,13.61-10.9-1.36-8.16-5.44Q1151.59,269.59,1144.81,172.91Z"/><path d="M1460.62,216.48c-.91-4.54,2.72-7.7,10.89-9.53q8.17,1.37,17.7,10.89v5.44q-6.82,32.67-6.81,77.59v9.53q4.08,31.34,4.09,36.76-1.38,12.24-8.17,12.25-13.63,1.36-15-9.53a55.32,55.32,0,0,1,2.73-17.7,1.73,1.73,0,0,0-2.73,0q-15,28.59-58.53,27.23-65.34-1.34-64-50.37,0-74.85-4.09-91.2v-1.36c1.81-4.54,5.9-7.7,12.26-9.53q13.59,5.45,13.61,17.69-6.83,21.8-6.81,39.48,0,39.5,1.36,44.92,2.71,34.05,47.65,35.39,43.55,1.38,59.89-38.11Q1470.13,273.65,1460.62,216.48Z"/><path class="cls-2" d="M420.86,212.12c-.1-1.28-.26-2.55-.41-3.5s-.24-1.58-.24-1.58c.44.57,1.75,2.31,1.75,2.31A208.8,208.8,0,0,0,413,167a153,153,0,0,0-18.77-38.7,157.13,157.13,0,0,0-13.75-17.31,64.29,64.29,0,0,1-4.09-5.33c-1.54-2-3-3.91-3.83-4.94-3.66-2.83-4-1.63-6.05-2.34A177.3,177.3,0,0,0,338.68,71.4c-2.62-2-5.18-3.73-7.5-5.33a71.73,71.73,0,0,0-6.37-3.81,27.12,27.12,0,0,0-4.42-2c-1.09-.3-1.73-.25-1.82.2-3.44-2-6.2-3.6-8.75-4.76s-4.78-2.08-7-3S298.2,51,295.53,50c-1.34-.5-2.75-1.11-4.35-1.68s-3.33-1.2-5.25-1.93a217.88,217.88,0,0,0-34.87-9.78A210.13,210.13,0,0,0,211,32.82c-14.84.17-25.71-.17-39.84,2.7-5.23,1.24-10.35,2.3-15.1,3.78-3.38,1-6.69,2-9.95,3.12l1,1.58c1.33,2.14,2.67,4.23,4,6.23,2.27-.86,4.38-1.63,6.21-2.17l5.8-1.89c14.69-3.51,23.41-3.82,34.83-4.54a121.45,121.45,0,0,1,33.64,2.14c13.58.3,29.29,3.68,44.34,9.27S305.3,66.39,317.53,74a139.84,139.84,0,0,1,26.83,21.44,207.2,207.2,0,0,1,19.82,24.48c2.1,2.87,4,5.3,5.53,7.6a56.15,56.15,0,0,1,3.81,6.08c.89,1.89,3.05,4.71,5.3,7.92s4.67,6.8,6.09,10.06l-1.67-1.11c1,2.17,3.07,6.38,3.95,8.57s.35,1.78-.19,1.39c-1.07-.8-2.14-1.56-.91,2.36,1.84,4.5,3.32,9.19,4.94,13.87.69,2.37,1.4,4.76,2.1,7.16s1.25,4.86,1.9,7.3a201.14,201.14,0,0,1,7.36,28.75,6.49,6.49,0,0,1,1.59,2.45c.52,2.9.95,5.81,1.43,8.72,1.11,1.71,2.16,1.06,2.85,2.22,1.39-.07,2.84,3,4.25,5.8s2.76,5.26,4,3.71c.34-.62.5-5.44.63-11.14-.06-2.84-.11-5.91-.11-8.78s-.18-5.54-.09-7.61,1.62,2.32,2.84,4.09C418.46,208.64,419.34,207.82,420.86,212.12Z"/><path class="cls-2" d="M389.05,371.92c-.53-.45-.38-.67,0-.66l-.23-.23.35-.14c-1.24-1.28-2.66-2.79-4.38-3.37a10.34,10.34,0,0,0-1.39-.41,3.25,3.25,0,0,1-.71-.42c-.34,0-.4.21-.59.32-1-.75-3.49-1.93-3.63-1.37a15,15,0,0,0-2.2-.48,36.19,36.19,0,0,0-4.69-1c-.92-.14-1.82-.18-2.71-.28l-1,0a28.28,28.28,0,0,0-5.49.44,41.86,41.86,0,0,0-7.72,1.51,71.78,71.78,0,0,0-19.38,9.26l-2.14.83a20.84,20.84,0,0,1-3.77,1.18,7.52,7.52,0,0,1-3.54-.21,7.75,7.75,0,0,1-2.91-1.78,6.2,6.2,0,0,1-1.5-2.44.38.38,0,0,1-.12-.19s0-.15-.05,0c0,.47,0,1,0,1.43l0-.62c0-.15,0-.62,0-.37l.09.58a5,5,0,0,0,.29,1.06,4.3,4.3,0,0,0,1.27,1.65,5.92,5.92,0,0,0,3.62,1.31,10.52,10.52,0,0,0,3.56-.46l-.27.08c1.51-.39,2.9-.95,3.91-1.29l1-.41c-.51.34-1,.68-1.54,1a111.25,111.25,0,0,0-10.44,8.22c-1.68,1.51-3.35,3.06-4.95,4.67-.82.83-1.52,1.57-2.34,2.45L313,394.48a156.27,156.27,0,0,1-22.17,19.42,140,140,0,0,1-49.23,22.22c-1.94.43-3.8,1-5.67,1.28l-5.43.94c-3.5.7-6.85.91-9.91,1.29a153.17,153.17,0,0,0,49.81-13.9,146.85,146.85,0,0,1-34.71,10.07,181.78,181.78,0,0,1-29.86,2.13l-9.38.18c-3.13,0-6.26-.18-9.41-.26-3.14-.24-6.29-.54-9.44-.85-3.14-.48-6.3-.86-9.44-1.43a190.39,190.39,0,0,1-76-32.36,197.9,197.9,0,0,1-55.83-60.07c-1.23-2.18-2.78-4.61-4.24-7.4l-2.29-4.36c-.79-1.5-1.62-3.05-2.35-4.7-1.5-3.28-3.19-6.68-4.57-10.3l-2.2-5.44q-1-2.81-1.94-5.61c-1.39-3.71-2.34-7.55-3.45-11.24s-1.76-7.4-2.59-10.86c-.6-3.5-1.17-6.82-1.7-9.86l-.89-8.24a187.89,187.89,0,0,0,16.35,58.05c1.11,2.26,2.07,4.61,3.3,6.82l3.57,6.69c2.58,4.34,5.11,8.73,8,12.89a196.63,196.63,0,0,0,18.74,23.85,212.13,212.13,0,0,0,22.13,20.78,198.15,198.15,0,0,0,25,17.22,184.84,184.84,0,0,0,56.46,21.8c-2.16-.44-4.27-1-6.34-1.63,3.06.84,6.18,1.44,9.3,2.06s6.27,1,9.41,1.54c1.84.24,3.82.32,5.85.47l-.24-.06c-3.85-.94-16.76-2.78-33.32-8.53a190.2,190.2,0,0,1-26.74-11.46,204.26,204.26,0,0,1-71.72-62.68c-1.36-1.87-2.67-3.71-3.82-5.57l-3.45-5.32-3-5.07c-1-1.61-1.87-3.15-2.63-4.67-1.53-3-3.07-5.6-4.12-7.95s-2-4.22-2.75-5.67a273.52,273.52,0,0,1-11.51-28.13,145.12,145.12,0,0,1-6.81-31.63c-.18-1.93-.31-3.8-.42-5.59s0-3.54,0-5.22,0-3.3-.09-4.87,0-3.11-.1-4.6c-.3-.6-.51-3.6-.64-6.62.3-3.88.5-7.78,1.06-11.58s1-7.56,1.85-11.14,1.34-7.09,2.15-10.38,1.31-6.48,2-9.41c.88-4.12,4.41-11.38,8.06-17.51s7.25-11.27,7.12-12.3c-.33-3.72-.21-4.19.92-5.94.58-.87,1.46-2.05,2.76-4.08s3.25-4.79,5.75-9c1.35-1.91,4.16-9.26,7.18-13,2.44-3.18,2.93-4,4.76-6.31s3.53-4.41,5.23-6.56c.84-1.09,1.7-2.19,2.6-3.34s2-2.26,3-3.51l.83-1-1.15-.82a14.72,14.72,0,0,1-2.3-1.82A36.59,36.59,0,0,1,58.5,100h0a4.55,4.55,0,0,1-1.92-.88A186.93,186.93,0,0,0,35.32,125.2,199.92,199.92,0,0,0,.47,225.35a193.66,193.66,0,0,0,1.1,38.29A204.35,204.35,0,0,0,27,338.73a212.52,212.52,0,0,0,51.07,59.66,206.24,206.24,0,0,0,66.73,36.08A179.2,179.2,0,0,0,180.52,442c3,.28,5.94.63,8.91.69s5.92.3,8.82.2l8.69-.11,8.58-.55a177.38,177.38,0,0,0,32.81-5.76,140.64,140.64,0,0,0,29.17-11.7,144.68,144.68,0,0,0,24.09-16.3c3.56-2.95,6.9-6,10-9.06s6.1-6.39,8.57-8.77c10.76-10.41,22.05-17.56,31.55-21a45.79,45.79,0,0,1,12.76-2.87,34.51,34.51,0,0,1,9.15.58,29.72,29.72,0,0,1,6,1.13,17.3,17.3,0,0,1,1.82,1.65,3.73,3.73,0,0,1,.78.69c.15.24.81.38,1.14.69l-.21.1c.11.1.31.33.41.44s0,.14,0,.18-.27.13-.14.38c.36.52.77,1,1.13,1.52.48.37,1,.68,1.48,1.05a.62.62,0,0,1,.32-.11l.48.27c.25-.1.43-.33.6-.4.5-.52,1.58-.47,1.94-1.09.09-.19-.71-1-.88-1.59C388.42,372,388.79,372,389.05,371.92Zm-56.19,4.16,2.18-.84h0Z"/><path class="cls-2" d="M416.89,361.13c0-.88-.06-1.74-.11-2.59a6.39,6.39,0,0,0-.51-2.5,2.32,2.32,0,0,0-2.26-1.4,9.1,9.1,0,0,0-2.34.66c-3.87,1.77-8.27.91-12.32-.54-2-.73-4.05-1.63-6.09-2.54l-6.12-2.75c-4.48-2.06-8.88-4.21-13.11-6.61-2.11-1.21-4.18-2.46-6.18-3.81-1-.68-2-1.36-3-2.08s-1.92-1.48-2.75-2.14c-1.67-1.36-3.39-3-3.68-5.25s.32-4.13.1-6.95a23.08,23.08,0,0,0-6-14.09,21.92,21.92,0,0,0-6.21-4.76c-2.31-1.17-4.6-1.94-6.42-3.09-3.67-2.24-5.65-6.45-6.86-10.93s-1.83-9.38-3.35-14.27a60.89,60.89,0,0,0-6.2-13.84c-.47-.79-1-1.61-1.58-2.48l-.93-1.32-.41-.57-.4-.53c-.53-.71-1.11-1.43-1.73-2.15-.32-.36-.63-.74-1-1.09L317,253l-.26-.27c0-.1.13-.21.19-.31.92-1.25,1.85-2.55,2.69-3.94a24.47,24.47,0,0,0,2.53-5.8,18.74,18.74,0,0,0,.63-3.63,14.59,14.59,0,0,0,0-1.87,12.74,12.74,0,0,0-.19-1.86,18.57,18.57,0,0,0-2.6-6.76,33.47,33.47,0,0,0-8.84-8.95c-3-2.21-5.94-3.83-8.06-5.16a83.19,83.19,0,0,1,10,6.29,28.62,28.62,0,0,1,8.33,9.52,17.65,17.65,0,0,1,1,13.37,24,24,0,0,1-1.2,3c-.25.54-.42.86-.59,1.18l-.54.94c-.74,1.23-1.57,2.41-2.41,3.58-.05.1-.21.21-.17.3l.26.27.51.54c.34.35.66.73,1,1.1.65.75,1.28,1.53,1.88,2.32l1.12,1.53,1.18,1.73c.76,1.16,1.49,2.35,2.18,3.55a60.69,60.69,0,0,1,6.13,15.46c1.28,5.31,2,10.47,4,14.7a13.32,13.32,0,0,0,3.89,5.12c1.56,1.29,3.85,2.08,6.46,3.28A24.1,24.1,0,0,1,358.16,315a23.49,23.49,0,0,1,1.82,8.78c0,1.72-.12,2.48-.18,3.59a6.78,6.78,0,0,0,.43,3.09,7.58,7.58,0,0,0,1.9,2.49c.39.35.79.7,1.2,1l1.35,1.06c2,1.54,4.14,3,6.32,4.32a128.62,128.62,0,0,0,13.7,7.27c-1.37-.71-2.72-1.44-4-2.19-3.3-1.69-6.52-3.48-9.61-5.45-1.54-1-3-2-4.51-3.08-.71-.55-1.46-1.07-2.15-1.65s-1.13-.9-1.67-1.4a6.63,6.63,0,0,1-2.28-3.55,7.74,7.74,0,0,1-.07-2.15l.09-1.06,0-.53c0-.16,0-.37,0-.68a24.37,24.37,0,0,0-3-12.74,24.77,24.77,0,0,0-9.09-9.51A55.88,55.88,0,0,0,343,300a12,12,0,0,1-3.66-2.38c-2-1.89-3.27-4.78-4.2-8.11s-1.53-7-2.45-10.9A67.5,67.5,0,0,0,326.62,263a61.49,61.49,0,0,1,6.11,15.62c.86,3.45,1.48,6.71,2.33,9.69a21.85,21.85,0,0,0,3.45,7.61,10.75,10.75,0,0,0,2.62,2.35,27.91,27.91,0,0,0,4,1.85,27.89,27.89,0,0,1,5.52,2.87,24.85,24.85,0,0,1,4.92,4.42,25.42,25.42,0,0,1,5.92,15.85c0,.71,0,1.54-.08,2.16l-.14,1.24a8,8,0,0,0,0,2.49,7.07,7.07,0,0,0,2.84,3.85l.77.64,1,.8c.68.53,1.34,1.07,2,1.57,1.35,1,2.72,2,4.11,3,2.76,1.92,5.61,3.74,8.6,5.45,4,2,8,3.88,12.13,5.73l3.86,1.49-.14-.1a67.86,67.86,0,0,0-6.77-4.06c-3.32-1.86-7.6-4.16-12.27-7-2.33-1.45-4.75-3-7.16-4.82-1.21-.9-2.4-1.84-3.59-2.82-.3-.24-.61-.52-.86-.74l-.52-.49a11.1,11.1,0,0,1-1-1.06,4.1,4.1,0,0,1-1.06-2.66,8.13,8.13,0,0,1,.14-1.47,11.59,11.59,0,0,0,.21-2.2,28.11,28.11,0,0,0-13.89-24.94c-2.29-1.33-4.22-2.05-5.52-2.74a7.11,7.11,0,0,1-2.42-1.77,15.71,15.71,0,0,1-2.93-6.42c-.76-2.93-1.3-6.27-2.11-9.92a64.36,64.36,0,0,0-7.9-19.54q-1.23-2-2.49-3.76c-.42-.59-.83-1.15-1.22-1.68-.23-.3-.45-.58-.67-.82s-.22-.24-.33-.36-.29-.21-.12-.33a11.4,11.4,0,0,0,.78-1.24,7.28,7.28,0,0,0,.42-.88l.47-1.13c.24-.55.45-1.17.66-1.75a23.77,23.77,0,0,0,1.3-8,21.59,21.59,0,0,0-1.77-8.07,24.29,24.29,0,0,0-4.17-6.31,41.59,41.59,0,0,0-10.53-8c-1.82-1-3.77-2-5.55-2.89s-3.52-1.79-5.22-2.8a29.89,29.89,0,0,1-9.35-8.42,7.66,7.66,0,0,1-1.85-3.33c-.91-3.74.35-8,2-12l.32-.75c.14-.35.24-.74.41-1.09.3-.71.58-1.44.9-2.13a38.05,38.05,0,0,0,1.61-4.07c.88-2.6,1.6-5,2.15-7.33l-.23-.32-.71,0c-.47,0-1,0-1.39,0-.9,0-1.76.05-2.57.14a25.59,25.59,0,0,0-7.11,1.38,24,24,0,0,0-4.67,2.38c-.4.26-.79.55-1.19.83a10.67,10.67,0,0,0-1.1.85q-.85.67-1.65,1.41a29.32,29.32,0,0,0-4.86,5.88,14.4,14.4,0,0,0-1.73,3.39c-.29,2.65-.25,3-.87,4.46a55.63,55.63,0,0,0-2,5.86c-.2-.14-.41-.29-.62-.41l-.95-.44a10.52,10.52,0,0,0-1.88-.75,24.39,24.39,0,0,0-3.49-.74c-1.71-.24-3.72-.69-4.67-.16-.56,1.89-1.14,3.73-1.7,5.33a8,8,0,0,1-.77,1.24c-.21.26-.38.55-.61.79a13.86,13.86,0,0,1-3,2.67,11.08,11.08,0,0,1-4.16,1.67c-.42.09-.84.08-1.3.14s-.85,0-1.46-.08a14.52,14.52,0,0,0-2.56-.2,6.77,6.77,0,0,0-3.55,1.2,6.26,6.26,0,0,0-2.21,3.19l-.06.18v.07l0,.15a2.5,2.5,0,0,0-.05.29c0,.19,0,.39,0,.58a8.18,8.18,0,0,0,.34,2.12c.06.21.13.42.2.62l.12.29c0,.07-.13-.1-.18-.14a7.8,7.8,0,0,0-.89-.76,9.32,9.32,0,0,0-1.84-1.13,28.07,28.07,0,0,0-6.48-1.92c-5.12-.89-10.5-.82-17.84.26a81.14,81.14,0,0,1-12.41.61,36,36,0,0,1-4.14-.42c-.69-.11-1.17-.21-2.16-.45s-1.69-.69-2.47-1c-.82-.49-1.61-1.07-2.32-1.52s-1.47-1.07-2.07-1.5c-1.23-.87-2.13-1.66-2.6-2-1.79.6-1.86-.06-1.88.06l-.54-.32s-.1-.08-.13-.06l0,.3,0,.6c-.07.8-.14,1.61-.17,2.37-.1,1.56-.13,3.05-.13,4.53a36.43,36.43,0,0,0,1,8.68,32.11,32.11,0,0,0,2.57,7,29.72,29.72,0,0,0,3.66,5.52,27.12,27.12,0,0,0,4.74,4.3,41,41,0,0,0,5.36,3c3.58,1.74,7.21,3.28,9.95,6a18.41,18.41,0,0,1,5.26,7.06,20.82,20.82,0,0,1,.78,2.22c.07.19.11.39.16.58l.1.45c.07.29.1.59.16.89a15.93,15.93,0,0,1,.14,1.83c0,.31,0,.62,0,.93V262s-.13-.05-.19-.07l-.41-.22a16.33,16.33,0,0,0-2.5-1.06,27.93,27.93,0,0,0-3.45-.94,31.27,31.27,0,0,0-7.8-.6,27.25,27.25,0,0,0-12.26,3.53c-.51,0-1,.05-1.52.1l.25.68c-.45.3-.9.6-1.33.94L176,267.79l5.71-.05c.55,0,1.13,0,1.71.06l.17.45.44-.4a18.5,18.5,0,0,1,4.43.87,17.11,17.11,0,0,1,4.58,2.35,14.21,14.21,0,0,1,3.36,3.34l.3.45.15.22s-.16,0-.24,0l-1.07-.17c-.7-.13-1.39-.18-2.07-.25a47,47,0,0,0-7.26-.1l-.55.05-.67.07-1.33.14c-.9.08-1.79.22-2.68.36-1.79.23-3.58.62-5.45,1a74.58,74.58,0,0,0-12,3.8l-1.25.55a13.61,13.61,0,0,0-1.33.64l-2.47,1.32a35.07,35.07,0,0,0-4.18,2.57c-2.55,1.66-4.54,3.12-6.7,4.54-.68.46-1.46,1-2.32,1.66l-.66.49c-.22.16-.49.35-.51.44l-.45.72c3.21.31,7.11.71,10.84,1.16a50.42,50.42,0,0,1,9.54,1.93l-2.18-.15,1.16.33c.41.13.94.27,1.11.35.5.2,1.09.38,1.6.61a26.48,26.48,0,0,1,2.72,1.3c1.27.72.87.67.48.63-.81-.08-1.46-.18.47,1.21a12.18,12.18,0,0,1,2.78,2.57l.47.7.49.89a14.81,14.81,0,0,1,.77,1.88c.93,2.59,1,5.88,1.55,10.09a28.78,28.78,0,0,0,5,12.45,32.84,32.84,0,0,0,9.6,8.81,8.32,8.32,0,0,1,2.19.61c2.15,1.18,4.32,2.24,6.49,3.31,1.47.14,1.24-.79,2.22-.78.26-.89,2.73-.77,4.92-1.32s4.08-1.73,3.21-3.11c-.36-.39-3.59-.57-7.25-1.55a31.87,31.87,0,0,1-5.41-2,23.18,23.18,0,0,1-4.13-2.63c-.91-.8,1.7.34,3,.35-3-1.47-4.21-2.69-4.53-3.16s.25-.28,1.44.28c-.61-.42-1.14-.91-1.58-1.24l-.66-.61.88.3.63.16a17.68,17.68,0,0,1-3.72-4.2,15.33,15.33,0,0,1-2.07-5.2,63.89,63.89,0,0,1-.79-6.76,33.07,33.07,0,0,0-1.78-8.44,24.3,24.3,0,0,0-2.1-4.21,19.16,19.16,0,0,0-3.22-3.82,26.92,26.92,0,0,0-7.5-4.83c-.63-.27-1.29-.57-1.91-.79l-1.48-.54a0,0,0,0,1,0,0s0,0-.22.08h0c-.42.11-.67-.11-.31-.52,0,0,.05-.05.08-.08l.08,0,.19-.09c.65-.31,1.36-.68,2.08-1,1.44-.6,2.84-1.18,3.6-1.43,2.51-1.39,2-1.6,3.06-2.36,1.52-.48,3.29-.91,5.2-1.35l3-.58,1.56-.22.79-.11.4-.06c.13,0,.25,0,.53-.06l2.92-.2,1.47-.11a7.7,7.7,0,0,1,1.61,0l3.79.31,1.9.15,1,.08,1.11.13,4.44.5,2.22.25.55.07c.16,0,0-.07.06-.1l-.06-.24-.24-1-.13-.48c0-.14,0-.14,0-.21l.11-.33.05-.17c-.08-.16-.34-.52-.5-.77-.73-1.12-1.4-2.1-2.05-3a27.28,27.28,0,0,0-3.82-4.56,19.62,19.62,0,0,0-3.45-2.66c-.9-.53-1.44-.75-1.51-.57l-1-.78c-.36-.24-.8-.43-1.18-.64-.77-.41-1.57-.78-2.33-1.13a5.83,5.83,0,0,0-1.3-.5c.74-.3,1.53-.6,2.43-.87a23.35,23.35,0,0,1,7.47-.87,21.34,21.34,0,0,1,4.27.64,5.17,5.17,0,0,1,.69.22l.78.27a10.57,10.57,0,0,1,1.66.66c1.24.62,2.51,1.26,3.77,2l.48-.4c0-.42.05-.84.07-1.26,0-.85.06-1.67.05-2.55a23.23,23.23,0,0,0-.18-2.7,10.53,10.53,0,0,0-.2-1.42c-.11-.49-.15-.75-.26-1.14a23.59,23.59,0,0,0-11-14.69c-2.73-1.67-5.54-3-8-4.44a21.07,21.07,0,0,1-8.72-9.79,30.61,30.61,0,0,1-1.18-3.11c-.19-.52-.31-1.13-.41-1.35s-.18-.69-.26-1a22.8,22.8,0,0,1-.55-4.27,22.16,22.16,0,0,1,.08-3.05l0-.39c0-.09.16.13.23.18l.53.53a12.14,12.14,0,0,0,1.21.93l.12.07a10.72,10.72,0,0,0,2.05,1,10,10,0,0,0,1.09.37,3.47,3.47,0,0,0,.55.16l.77.18a39.51,39.51,0,0,0,8.29.77c5.36,0,10.54-.91,15.26-1.49a47.14,47.14,0,0,1,13.84,0,14.26,14.26,0,0,1,1.6.36,11.16,11.16,0,0,1,1.79.56,16.21,16.21,0,0,1,4.7,2.77c1.71,1.34,3.49,2.85,5.07,4.24l1.07,1,.54.49.27.24.13.12s0,0,0,0,.47,0,1.15.4c-.66-1.8-1.37-3.82-2-5.67s-1.17-3.59-1.55-5a9.64,9.64,0,0,1-.35-2,4.86,4.86,0,0,1,.19-1.34c.21-.5.33-.57.49-.65.33-.15.67-.21,2.13.2a16.51,16.51,0,0,0,5,.48,17.87,17.87,0,0,0,9.33-3.4,18.66,18.66,0,0,0,3.62-3.54l.35-.5a.82.82,0,0,1,.15-.24,3.82,3.82,0,0,0,.29-.48,5.78,5.78,0,0,0,.43-1l.13-.4,0-.1h.11l.22,0a6,6,0,0,1,.85.15,7.06,7.06,0,0,1,1.61.59,6.89,6.89,0,0,1,1.43.93c.17.14.55.42.9.66s.67.53,1,.8c0,0,0,0,.05,0l3.84,4.6.93-5.7c1.18-7.26,2.61-14.44,6.34-20.25a22.15,22.15,0,0,1,3.2-3.9l.85-.78.56-.47c.39-.29.79-.57,1.2-.82a9.5,9.5,0,0,1,2.72-1.11,8.25,8.25,0,0,1,1.48-.21,6.26,6.26,0,0,1,.75,0l.38,0c.09,0,.08,0,.06.1l0,.17A49.9,49.9,0,0,1,286.4,184c-1.62,3.57-3.43,7.79-3.59,12.66A19,19,0,0,0,284,204a22.29,22.29,0,0,0,3.74,6.27,44.61,44.61,0,0,0,10.5,8.73c3.5,2.23,6.76,4,9.66,6.23a25.33,25.33,0,0,1,7,7.39,10.8,10.8,0,0,1,1.07,8.61,19.29,19.29,0,0,1-2.47,5.29c-1.4,2.21-2.9,4.37-4.39,6.48v.38c0,.13.2.24.29.36l.69.71,1.37,1.43c.91,1,1.79,1.95,2.66,2.94l1.25,1.5c.22.28.4.47.64.8l.43.58c.59.76,1.12,1.56,1.67,2.34a54.31,54.31,0,0,1,5.32,10.16,66.74,66.74,0,0,1,3.18,11.2c.91,4,1.81,8.19,4,12.33a19.31,19.31,0,0,0,4.44,5.66,22.17,22.17,0,0,0,6,3.51,26.88,26.88,0,0,1,4.81,2.42,17.28,17.28,0,0,1,3.68,3.36,18.18,18.18,0,0,1,4,9,23.22,23.22,0,0,1-.05,5.65,11.47,11.47,0,0,0,1.44,7,20.62,20.62,0,0,0,5.05,5.16c1.62,1.31,3.23,2.45,4.88,3.6A113.89,113.89,0,0,0,375,349.14c3.42,1.84,6.86,3.49,10.26,5.08l5.08,2.33c1.67.75,3.32,1.53,5.14,2.28,3.61,1.45,7.46,2.9,12.4,2.76a15.89,15.89,0,0,0,4.28-.75c.08.7.14,1.41.18,2.11.11,1.58.14,3.16.12,4.72a57.35,57.35,0,0,1-.86,9.17q-.18,1.1-.42,2a9.87,9.87,0,0,1-.49,1.42,6.47,6.47,0,0,1-1.64,2.36,50.07,50.07,0,0,1-6.5,4.18,49,49,0,0,1-14.78,5.62c-2.11.36-5.51.78-7.76,1a15.85,15.85,0,0,1-5.75-.36l-.73-.19-.18-.05-.45-.08-.73-.13a16.86,16.86,0,0,0-2.91-.34,25.41,25.41,0,0,0-2.9.08l-2.7.43a57.37,57.37,0,0,0-8.06,2.59l-3.16,1.22c-.49.15-.92.29-1.37.4a16.3,16.3,0,0,1-2.49.46,8.33,8.33,0,0,1-4-.6,4.07,4.07,0,0,1-.76-.36l-.36-.19-.17-.09-.08-.05s.06,0,.09-.07a10.83,10.83,0,0,0,1.37-1.12,4.84,4.84,0,0,0,1.34-2.21v0l-.29-.87-.11-.38-.18-.69c-.16-.62-.31-1.27-.51-1.82a33.15,33.15,0,0,0-2.72-6,53.65,53.65,0,0,1,1.43,5.54c.1.58.21,1.13.27,1.79,0,.31.07.63.11,1l0,.24v.36l0,.5-.07.38c0,.26-.1.51-.16.79a8.19,8.19,0,0,1-1.81,3.08,12.41,12.41,0,0,1-1.53,1.43c-.27.24-.59.45-.89.67l-.23.17s-.11.06-.08.08l.1.05.41.22a13.22,13.22,0,0,0,8.35,1.39,25.72,25.72,0,0,0,4.95-1.3c.34-.11,1-.38,1.69-.63l2-.79c1.39-.54,2.8-1.09,4.36-1.6a28.62,28.62,0,0,1,5.13-1.21,17.44,17.44,0,0,1,5.85.19l.74.13.47.12c.31.08.61.14.91.2.61.13,1.2.21,1.79.28a18.31,18.31,0,0,0,3.63,0c1.29-.12,2.7-.33,4.19-.54l2.21-.31c.66-.1,1.32-.2,2-.33a44,44,0,0,0,7.72-2.26,59.76,59.76,0,0,0,7.27-3.46c1.17-.64,2.31-1.32,3.43-2s2.34-1.5,3.1-2.05a9,9,0,0,0,3.48-4.68,35.73,35.73,0,0,0,1.24-6.47,65.48,65.48,0,0,0,.32-12.2c-.05-.59-.11-1.18-.18-1.76l0,0c.05.59.1,1.18.14,1.78a63,63,0,0,1-.62,15.63c-.12.68-.25,1.35-.41,2a14.16,14.16,0,0,1-.54,1.71,8.41,8.41,0,0,1-1.95,3.07,19.4,19.4,0,0,1-3.26,2.45q-2,1.33-4.18,2.57c1.86-.9,3.71-1.9,5.48-2.92a11.28,11.28,0,0,0,4-3.36,15.15,15.15,0,0,0,2-5c.47-1.91.85-3.85,1.13-5.75A66.75,66.75,0,0,0,416.89,361.13Zm-2.53-4.2h0v0Zm0,0Zm0,.05v0l0,0Zm-.14.17h0l-.07.06a.76.76,0,0,0,.09-.09Zm-.25.39.09,0h0s0,.09,0,.12l-.07,0A.5.5,0,0,0,413.92,357.55Zm.43-.5v0Zm-9.81,2a30.69,30.69,0,0,1-7.3-2.16c-2.11-.89-3.94-1.82-5.63-2.64-2.83-1.41-1-.55,4.25,1.83a48.68,48.68,0,0,0,4.76,1.83,22.16,22.16,0,0,0,6.6,1.13,14.18,14.18,0,0,0,3.92-.49,15,15,0,0,0,2-.7l.18-.07a11.55,11.55,0,0,1-1.4.68s-.05,0,0,0A15.62,15.62,0,0,1,404.54,359.09Z"/><path class="cls-2" d="M166.68,351.07c.57,0,1.17,0,1.81,0,1.26,0,2.64.13,4.23.21a31.44,31.44,0,0,1,4.29.13c1.07.17,3.74-.4,5.61-.25l-.49.37,2.5.15c.62,0,.45.16.29.28-.33.24-.66.49.43.66,2.6.2,5.28.36,8.05.43l8.19-.54a2,2,0,0,1,.74-.34l2.42-.23c.5-.24.34-.48.67-.64,0-.64,3.36-1.28,2.54-1.79a68.54,68.54,0,0,1-6.86-.94c-.46-.16.65-.28,1.13-.49-2.65-.28-2.79-.61-1.68-.71l-1.24-.21.64-.27c-6.65-1.24-14.08-3.51-20.89-3.84a43.43,43.43,0,0,0-5.56.07c-.81,0-2.67-.29-3.36-.35-1.18.38-1,.91-1.48,1.37-.68,0-1.41-.12-2.3-.1l-2.67.07c-1.65.06-3.4.17-4.95.27-3.13.25-5.54.57-5.29,1.57-3.78.1-4.47,1.1-8.39,1.15a55.82,55.82,0,0,1-27.1-6.88c-1.15-.59-2.26-1.17-3.3-1.79-11.22-6.16-18.08-15.25-23.9-24.66-1.47-2.36-2.82-4.81-4.19-7.27-.66-1.24-1.33-2.49-2-3.74l-1-1.91c-.26-.46-.42-.72-.61-1.09-1.54-2.75-3.23-5.65-5.82-10l-.92-1.62-.47-.83-.23-.42s-.14-.2-.06-.15l.12.06,1.07.46,1.25.42a23.35,23.35,0,0,0,5.87.69,30.06,30.06,0,0,0,3.37-.17l.88-.09L89.2,288c.83-.12,1.68-.2,2.5-.37a71.42,71.42,0,0,0,18.59-6.1c11.39-5.54,21.11-12.3,30.23-16.65,2.28-1.13,4.45-2,6.66-2.93l6.71-2.81a76.1,76.1,0,0,1,10.87-3.93,18.78,18.78,0,0,1,7-.68,11.37,11.37,0,0,1,3.38.94,10.12,10.12,0,0,1,2.62-.31,8.57,8.57,0,0,0-5.56-3.31,17.36,17.36,0,0,0-5.16.09,35,35,0,0,0-6.2,1.71c-4.33,1.58-8.82,3.83-13.13,5.7-2.22,1-4.05,1.72-5.85,2.56l-4.8,2.22c-4.21,2.21-7.44,4-10,5.18-2.12,1,2.59-1.72,10-5.18,1.6-.83,3.35-1.74,5.26-2.64,1-.47,2-.91,3-1.37l3.41-1.53c-3.26.87-6.2,1.53-9,2.37s-5.37,1.65-7.53,2.32l-8.35,5.07c-6.2,3.74-12.29,7.44-18.71,10.1a56.3,56.3,0,0,1-9.9,3.05l-2.53.45-2.55.31c-.87.05-1.66.12-2.59.15s-2.1,0-3.2-.07-2-.21-3.3-.46-2.75-.66-4.43-1.24L74,279.77l-2.7-1c-1.87-.67-3.61-1.46-5.53-2.29l-1.53.13-1.61-.52c-.22-.15,0,.23,0,.38l.21.59c.14.39.26.76.39,1.11.24.71.45,1.36.61,1.92l-1.09-2.63-.55-1.31-.14-.33-.07-.16s0,0,.07,0l.32.07c.4,0,.86.26,1.22.16l1.07-.41c1.9.82,3.62,1.56,5.5,2.24l2.76,1,2.68.88c1.83.64,3.4,1,5.07,1.46.79.17,1.5.2,2.25.3a11.67,11.67,0,0,0,2.18.14l2.1-.05c.71,0,1.1-.1,1.67-.14,1-.08,2.1-.26,3.15-.42a52.84,52.84,0,0,0,6.24-1.49c8.26-2.43,15.89-7,23.52-11.8-.52.25-1,.49-1.56.71a126.88,126.88,0,0,1-14.38,7.46,58.78,58.78,0,0,1-7.38,2.59A48.63,48.63,0,0,1,91,279.91a25.93,25.93,0,0,1-6,.3,37.87,37.87,0,0,0,6-.3,49.89,49.89,0,0,0,13.13-4.5,86.9,86.9,0,0,0,9.08-4c2.31-1.24,4.71-2,7.09-3l4.26-2.51c.37-.32.78-.65,1.21-1h-.08c-1.25,0-4.52,1.2-8.73,3s-9.41,4-14.45,5.58A57.77,57.77,0,0,1,88.24,276l-.75,0c-.16,0-.17,0-.45,0h-.72l-2.8,0h-.67l-.73-.16-1.42-.3L78.05,275l-9.53-3.88c-2.51-1-5.15-2-7.48-2.81s-4.3-1.42-6.4-2.18c.58,1.23,1.11,2.4,1.56,3.47a10.19,10.19,0,0,1,.54,1.62c1.55,2.79,3.18,5.78,4.42,8.4,1.34,2.82,1.6,4.83,3.24,7.26a15.56,15.56,0,0,1,2.12,2.71c1.26,2.64,2.18,5.1,3.16,7.6a27.84,27.84,0,0,0,3.72,6.65,5.63,5.63,0,0,1,.9,2.72c.1,1,.08,2.16.12,3.26.06,2.2.12,4.2.64,4.18,3.82-.14,1,0,3.79,4.72.33.59,2.68,1.63,3.31,2.79,2.06,4.07,3.76,4.51,7.42,8.17A43.75,43.75,0,0,1,93.12,333c1,.94,1.75,1.8,2.53,2.61a16.73,16.73,0,0,0,2.67,2.26A19.87,19.87,0,0,0,100,339a22,22,0,0,0,2.24,1c.2.08.94.48,1.93,1s2.33,1.1,3.59,1.7,2.49,1.06,3.41,1.44l1.51.61a58.8,58.8,0,0,0,9.58,4,70.69,70.69,0,0,1,8.54,3.45c3.81.06,8,.63,12.4.81a58.67,58.67,0,0,0,12.53-.63c3.8-.66,6.49-1,9.08-1.2C165.52,351.1,166.11,351.08,166.68,351.07Z"/><path class="cls-2" d="M58.11,208.71a69.8,69.8,0,0,0,2.43,9,17.08,17.08,0,0,1,.88,6.89c1.75,2.38,2.73,5.43,3.84,8.56a41.64,41.64,0,0,0,4,8.79c3.35,4.95,3.81,7.59,6.62,12.16a28.93,28.93,0,0,1,2.21,2.79c.46.79,2.51,1.84,3.57,2.92l-.63.08,1.43,1.46c.38.35.17.38,0,.41-.42.06-.85.13-.28.85a35.21,35.21,0,0,0,5.21,4.23,51.45,51.45,0,0,0,6.33,2.56,1.58,1.58,0,0,1,.75-.13c.64.18,1.24.41,1.88.55.5-.12.52-.45.85-.53.41-.76,3-.36,2.74-1.23-.14-.28-3.14-2-4.14-3.23-.22-.31.62-.12,1.06-.2-1.61-1.1-1.43-1.57-.67-1.3l-.67-.63.6-.1a42.61,42.61,0,0,1-4.78-5.9A59.15,59.15,0,0,0,87,250.81c-.64-.74-1.82-1.89-2.64-2.66a6.87,6.87,0,0,1-1-2c-.82-.36-1.27.11-1.92.17-.68-1.67-1.67-4.3-2.6-6.38s-1.89-3.59-2.92-2.93a8.53,8.53,0,0,0-1.68-2.64,8.43,8.43,0,0,1-1.81-2.7A86.17,86.17,0,0,1,68,218.44c-.38-1.31-.74-2.61-1-3.92l-.1-.49-.08-.31a3.12,3.12,0,0,1-.13-.59L66.43,212c-.15-.59-.27-1.16-.38-1.72a51.87,51.87,0,0,1-1.16-10.5c0-1.45,0-2.76,0-4.06l0-1c.2.29.45.74.67,1.08A18.65,18.65,0,0,0,67,197.69a14.86,14.86,0,0,0,6.9,5.36c.65.23,1.31.56,2,.86l1.12.49.58.25a7.16,7.16,0,0,1,.77.36c2.41,1.23,4.88,2.32,7.34,3.4a127.49,127.49,0,0,0,15,5.19,137.55,137.55,0,0,0,29.18,4.65c4.56.23,8.91.23,12.94.06s7.72-.52,10.68-.7a47.41,47.41,0,0,1,11.25.32,24.15,24.15,0,0,1,2.23-1.08c-1-.91-2.94-1.68-5.65-2a46.44,46.44,0,0,0-9.83.28c-3.68.41-7.7.91-11.31,1.05a64.4,64.4,0,0,1-9.34-.15,49.2,49.2,0,0,1-8.76-1c-1.77-.46,2.32.34,8.76,1a92.15,92.15,0,0,0,10.27-.19,74.53,74.53,0,0,1-13.22-3.07c-2.44,0-4.89-.21-7.36-.47-10.85-1.21-21.31-3.67-30.59-8.94-1.68-.93-4.33-2.44-6.86-4.09-1.1-.75-2.87-2-4.22-3.08a34,34,0,0,1-3.58-3.27,67.85,67.85,0,0,0,6.18,4.68l1.36.87c.41.26.8.53,1.22.77l2.49,1.45A75.25,75.25,0,0,0,97,205.53a87.86,87.86,0,0,0,22.69,5.07c-.42-.1-.83-.22-1.24-.35A85.87,85.87,0,0,1,95.2,203.5a25.92,25.92,0,0,1-3.7-1.83c1.21.66,2.46,1.24,3.7,1.83a64,64,0,0,0,10.48,2.8c2.3.63,4.89,1.69,7.27,2.1a53.54,53.54,0,0,1,5.53,1.85c1.22.17,2.43.35,3.66.46.36,0,.74-.08,1.14-.09a.1.1,0,0,1,0,0c-1.5-1.47-9.8-3.61-17.48-6.87S91,196.3,88.87,195.41a16.25,16.25,0,0,0-2.7-.83l-1.41-.33a2.53,2.53,0,0,1-.38-.09l-.63-.24c-.38-.15-.77-.27-1.14-.43-1.47-.66-2.9-1.24-4.29-2-.68-.4-1.36-.81-2-1.25a12.28,12.28,0,0,1-2-1.54c-.91-.87-1.75-1.9-2.55-2.83l-.59-.67-.6-.74a5.91,5.91,0,0,0-1.11-1.06c-.07.42-.73,0-1.34-.31a45.84,45.84,0,0,1-2.85-3.68c-1-1.34-2-2.82-3-4.29-2-2.87-3.92-5.56-4.75-5.78-.77-.63-4-7.19-7.83-14.48-2.33-3.88-4-6.31-3.23-4.36,2.64,7,2.91,7.49,2.5,6.82-.21-.36-.61-1.09-1-1.68a4.73,4.73,0,0,0-.57-.71.9.9,0,0,0-.24-.16h0v.35c0,.18,0,.36,0,.55a41.33,41.33,0,0,0,1,4.15,26.46,26.46,0,0,1,1,4.42,15.8,15.8,0,0,0,.42,5.88c.47,2.3,1.13,5,1.65,8.16a42,42,0,0,1,1.09,9.15,25.56,25.56,0,0,0,2.09,9.12c.14.49,1.08,3.66,2,6.72C57.24,206.2,58.11,208.71,58.11,208.71Z"/><path class="cls-2" d="M232.78,361.21c2.31.1,4.51.28,6.6.44l3,.25a27.6,27.6,0,0,0,3.28,0,16.19,16.19,0,0,0,6.47-1.6A11.79,11.79,0,0,0,257,356a11.86,11.86,0,0,0,.19-4.09,21.09,21.09,0,0,1-2.29,3.29,11.85,11.85,0,0,1-3.47,2.77,18.41,18.41,0,0,1-7.29,1.88c-1.17.1-2.27.09-3.24.08l-2.92,0c-1.86,0-3.54-.09-4.8-.22a45,45,0,0,1-4.52-.27c-.94-.12,1.19-.09,4.52.27,1.47,0,3.21,0,5.27,0-2.69-.8-5.2-1.54-7-2.13l-3.85.25a167.88,167.88,0,0,0-17,2c-2.08.3-6.48,1.66-8.47,2.17,8-3.13,16.56-4.23,24.83-5.13l-.68-.07A128.29,128.29,0,0,0,213,358.2c-.75.15-1.5.32-2.3.42.77-.14,1.53-.3,2.3-.42,1.95-.43,3.82-1,5.94-1.44,1.32-.19,2.87-.13,4.18-.27a13.84,13.84,0,0,1,3.15.29l2-.12a4,4,0,0,1,.59-.17l0,0c-.91-.84-5.52-1.31-10.36-1.09a40.58,40.58,0,0,0-11.24,1.88c-2.18.95-3.81,2.76-6.09,3.87-.77.35-1.51.41-2,.9,0,.18-.24.42-.49.67-1.47.78-3.22,1-4.14,2.05-.71.54-4-.29-4,.21.17,1.77.05.48-1.83,1.49-.24.1-.62,1.11-1.08,1.33-1.65.61-1.8,1.34-3.37,2.55-2.17,2-3.25,1.53-4.87,3.74-.1.13-.91.87-1.67,1.6l-1.5,1.43a16.73,16.73,0,0,0-1.67,1.17c-.28.2-.42.36-.59.5l-.5.43c-.65.55-1.37,1-2,.87a.8.8,0,0,1-.2-.07,5.09,5.09,0,0,1-.31.45c-.1.14-.22,0-.34,0a3.57,3.57,0,0,1-.72-.3,4.47,4.47,0,0,1-1.19-1.32,7,7,0,0,1-.75-1.54c-.26-.51-.52-1.26-.86-1.79-1.26-2.38-.65-3.81-.51-6.1,0-.65-.23-1.13-.06-1.53s-.62-1.3-.54-2l.4.18,0-.88c0-.21.13-.15.27-.09s.53.25.65-.11c.12-.86.11-1.76.18-2.64a12.54,12.54,0,0,1-.28-1.41,9.9,9.9,0,0,1-.14-1.41.91.91,0,0,1-.26-.36,5,5,0,0,1,0-.86c-.15-.25-.38-.32-.46-.5-.6-.29-.45-1.72-1-1.74-.2,0-1.32,1.56-2,2.25-.19.14-.19-.37-.3-.65-.61,1-.91,1-.89.49a5,5,0,0,0-.32.49l-.2-.37c-1.86,2.62-3.85,6.06-3.76,9.22a8.17,8.17,0,0,0,.42,2.48,7.44,7.44,0,0,1-.18,1.52c.44.46.93.3,1.4.44a13.25,13.25,0,0,0,.12,4.58c.32,1.54,1.11,2.63,1.91,2.16a3.82,3.82,0,0,0,1.32,1.78l2,1.87c.42.42.83.9,1.3,1.33s1,.76,1.57,1.14,1.16.71,1.76,1.09l.45.27.23.14h.22l.87,0,2.06-1.77c.84-.73,1.65-1.4,2.46-2.05a18.09,18.09,0,0,1,1.9-1.6l1.19-1a66.74,66.74,0,0,1,12-7.8c4-2.05,8-3.9,12.49-6.16a45.29,45.29,0,0,1,14.69-4.37A83.44,83.44,0,0,1,232.78,361.21Z"/><path class="cls-2" d="M212.24,199.65l.32.77c1.09-.49,2.12-1.81,2.28-4.08s-.81-5.3-2.57-8.2c-3.56-5.88-9.63-10.91-13.23-13.83-2.88-2.15-5.2-3.66-6.94-4.79-1.51-.91,2.16.9,6.94,4.79a74,74,0,0,1,7.4,6.28,68.12,68.12,0,0,0-8.69-9.51c-2.09-1.28-4.24-2.52-6.52-3.63-5.15-2.33-10.56-3.33-15.88-4.35s-10.69-1.75-16.09-2.54c-3.92-.6-12.51-1.52-16.21-2.33,7.85,1.14,15.86,1.87,23.82,3,4,.54,8,1.13,11.94,1.89a65.22,65.22,0,0,1,11.87,3.18l-1.23-.61A79.44,79.44,0,0,0,177,162.37c-4.18-.8-8.36-1.45-12.55-2,3.73.44,7.38.73,11.47,1.3,2.51.41,5.34,1.2,7.85,1.78a30.06,30.06,0,0,1,5.71,2.22,35.6,35.6,0,0,1,3.59,1.63,9.82,9.82,0,0,1,1.1.45s0,0,0-.05a9,9,0,0,0-2-1.63,25.6,25.6,0,0,0-4.28-2.16,71.67,71.67,0,0,0-12.34-3.5,179,179,0,0,0-20.84-2.93c-4.2-.22-8.1.33-12.66-.24-1.53-.2-2.77-.6-4-.64a3.76,3.76,0,0,1-1.33.05c-3-.52-5.86-1.71-8.19-2.07a12.74,12.74,0,0,1-3.32-1.89c-1.14-.87-2.1-1.67-2.32-1.59-1.62.59-.48.2-3.78-1.63a18.51,18.51,0,0,1-2.65-1.09c-1.25-.91-2-1.55-2.91-2.08-.44-.28-.92-.53-1.43-.89s-1.07-.79-1.75-1.34a12.59,12.59,0,0,1-2.37-2.19,15.74,15.74,0,0,1-1.53-1.86c-.22-.34-.36-.56-.67-1s-.76-.91-1.13-1.51l-.61-.86-.33-.44-.3-.58c-.43-.77-.88-1.54-1.37-2.29l-.85-1.53c-.47-.83-1-1.87-1.57-3a3.09,3.09,0,0,1-.8,0l-.39-.1-.18-.06c-.06,0-.11-.1-.2.11-.31.53-.57,1-.76,1.33a5.6,5.6,0,0,0-.26.51,33.75,33.75,0,0,0-3.56,8.36c-.36,1.32-.8,2.72-1.16,3.87A29.06,29.06,0,0,1,91,146c-.18,5.55-2.55,12.45-2.43,18.54.06,1.5.15,2.76.14,3.92s.12,2.18.13,3.2a50.72,50.72,0,0,0,.66,6.62c.4,1.46.81,2.52,1,3.4s1.41,2.7,2,4.07l-.46-.21c.2.47.57,1.4.81,1.85s.06.38-.09.32c-.31-.13-.63-.27-.33.58a37.81,37.81,0,0,0,3.2,5.69,59.53,59.53,0,0,0,4.47,4.74,1.65,1.65,0,0,1,.62.22l1.42,1.24c.43.13.52-.12.8,0,.46-.4,2.62,1,2.55.25-.07-.26-2.29-2.89-2.91-4.35-.13-.34.53.19.9.33-1.14-1.62-1-1.87-.35-1.34-.25-.39-.48-.8-.48-.8l.51.19c-2.48-4.34-4.06-9.6-5.69-13.88L96,177.06a9.75,9.75,0,0,1-.28-2.2c-.47-.68-.84-.49-1.26-.74,0-.88-.08-2-.13-3.19s0-2.43,0-3.55c0-2.27,0-4-.78-3.9.32-2.78-.27-3.45.09-6.46.26-2,.61-4.27,1.06-6.64.23-1.19.47-2.41.75-3.63l.43-1.84.42-1.69a22.75,22.75,0,0,1,1.47-4.61,9.22,9.22,0,0,1,.79-1.57l.16-.25c0-.08.11-.21.14,0l.23.5c.15.33.29.66.44,1a10,10,0,0,0,1,1.84,9,9,0,0,0,1.09,1.64c.1.12.18.29.28.42l.16.22.27.34a13.17,13.17,0,0,0,1.14,1.32l2.44,2.39a53,53,0,0,0,10.88,7.28,80.24,80.24,0,0,0,25.32,7.58c10.13,1.2,20.38,2,30.16,3.73a88.89,88.89,0,0,1,14,3.43,44,44,0,0,1,11.29,6.48c6.71,5.06,11.62,10.92,13.7,15.69a13,13,0,0,1,1.3,5.75,6.87,6.87,0,0,1-.67,2.64Z"/><path class="cls-2" d="M57.79,89.34c1.41,2.49,2.73,4.64,3.15,4.73,3.11.59.8.23,6.17,5.74.64.68,3.3,2.25,4.59,3.57,4.29,4.57,6,5.45,11.75,9.9L93,120.2a57.15,57.15,0,0,0,9.32,5.5c.51.27,4,2.16,7.45,3.9s6.78,3.29,6.78,3.29c5.08,2.71,9.39,4.54,13.4,6.22s7.73,3.24,11.82,5.19c10.06,2.71,23.15,6.93,33.47,10.38a71.7,71.7,0,0,1,11.9,5.09,105.59,105.59,0,0,1,10.06,6.31,55.73,55.73,0,0,1,5.17,3.57c1.22,1,4.56,2.86,6.61,4.62l-.72-.17c.7.56,2,1.74,2.7,2.34s.42.53.19.46c-.48-.13-1-.25.14.86A104.44,104.44,0,0,1,219,186a33.57,33.57,0,0,1,6.08,9.29,1.87,1.87,0,0,1,.8.64,31,31,0,0,1,1.25,3c.63.39,1.09-.11,1.55.14.69-.37,1.71.38,2.89,1s2.47,1,3,.1c.1-.3-.7-1.94-1.73-3.81l-1.64-2.86c-.56-.91-1.07-1.77-1.42-2.45s1,.46,1.84.77c-2.56-3.15-2.49-3.48-1-2.45l-1.25-1.46,1,.43-5.1-6c-1.69-2.07-3.41-4.17-5.27-6.13a71.69,71.69,0,0,0-11.86-10.29c-1.74-1.24-4.8-3-6.86-4.19-1-.54-3.13-2.1-3.94-2.58-1.57-.58-1.54-.15-2.31-.22a86.93,86.93,0,0,0-12.62-6.58c-4.42-1.85-8.07-2.91-8-2.25-5.47-1.92-6.75-1.68-12.48-3.37a253.11,253.11,0,0,1-26.17-8.6c-5-1.94-9.62-4.13-14.24-6.47-1.72-.89-3.4-1.74-5-2.6a186.88,186.88,0,0,1-23.16-14.68A159.38,159.38,0,0,1,74.44,97.38,176.31,176.31,0,0,1,57.83,78.61,90.25,90.25,0,0,1,51,67.86,63.69,63.69,0,0,1,48.16,62a33.79,33.79,0,0,1-1.51-4.08c-.18-.71-.58-1.6-.08-2.26s1.38-.43,2.11-.55a14.64,14.64,0,0,1,4.71.53A40.16,40.16,0,0,1,65.58,62c7.63,5.65,14.55,12.48,21.3,19.18s13.41,13.47,20.54,19.38a131.12,131.12,0,0,0,22.27,14.79,253.25,253.25,0,0,0,40.87,16.89c5.78,1.83,10.53,3.33,13.77,4.92a31.68,31.68,0,0,1,6.8,4.37,38.77,38.77,0,0,1,4.3,2,23.26,23.26,0,0,0-8.91-8c-4.58-2.5-11.35-4.19-18.3-6.32-13.88-4.15-28-9.87-36.09-14.37A104,104,0,0,1,118,106.24c-2.71-2.09,3.54,2.76,14.17,8.53a183.25,183.25,0,0,0,17.62,7.79,177.27,177.27,0,0,1-21.45-12.31A115.2,115.2,0,0,1,116.24,103C99,91,86.35,74.69,70.27,61.07a53.36,53.36,0,0,0-13.71-8.61c-.75-.26-1.46-.58-2.23-.79A24.67,24.67,0,0,0,51.7,51a16.8,16.8,0,0,0-2.57-.38,23.06,23.06,0,0,0-2.46-.11,15.72,15.72,0,0,0-2.24.19,4.78,4.78,0,0,0-1.94.58,2.49,2.49,0,0,0-1.06,1.51,6,6,0,0,0-.16,1.53,3.47,3.47,0,0,1,.9-2.92,5.74,5.74,0,0,1,3-.95,21.28,21.28,0,0,1,6.89.38,28.63,28.63,0,0,1,6.15,2,43.17,43.17,0,0,1,5.29,2.83c6.73,4.25,12.38,9.55,18,14.8,11.15,10.59,21.45,22,33.82,30.59-.66-.48-1.27-1-1.88-1.54-12.67-9.54-23.12-21.79-35-32.89-2-1.86-4.13-3.73-6.32-5.64,2.18,1.83,4.27,3.72,6.32,5.64,5.37,4.86,10.47,9.63,16.11,15C98,85,101.71,88.92,105.28,92c2.88,2.58,5.4,5.1,8.2,7.49.93.72,1.89,1.42,2.86,2.08s1.93,1.37,2.93,2c.61.33,1.26.68,1.91,1.06l-.06-.07c-1-1.21-4.85-4.07-9.68-8.44S100.75,85.92,94.86,79.74s-12-12.56-17.54-17.5a70.62,70.62,0,0,0-13-9.81,33.56,33.56,0,0,0-6.13-2.62c-.52-.19-1.09-.31-1.62-.46l-.82-.22a9.26,9.26,0,0,1-1-.21,43.54,43.54,0,0,0-4.54-.62,19.6,19.6,0,0,0-7.89,1.19,4.15,4.15,0,0,0-1.52,1.16,3.79,3.79,0,0,0-.75,1.79,13.63,13.63,0,0,0,.1,4,36.57,36.57,0,0,0,3.17,9.77,12.81,12.81,0,0,1,1.52,2.2c2.76,5.52,5.7,11,9,14.4A55.55,55.55,0,0,1,57.79,89.34Z"/><path class="cls-2" d="M196.59,136.27a43.71,43.71,0,0,0,6.1,10.25c2.3,2.93,4.64,5.33,6.54,7.36a34.65,34.65,0,0,1,4.07,4.9l.51.84.25.66a2.55,2.55,0,0,1,.21.84l.38,0,.29.06c.21,0,.45.09.7.16.57-.67.85-2-.28-3.91s-3.32-4.08-5.73-6.39a67.77,67.77,0,0,1-7-7.46,32,32,0,0,1-4.22-7.28,31.57,31.57,0,0,1-1.6-4.17,31.89,31.89,0,0,1-.74-3.27c-.15-.78,0-.29.34,1.1a44.27,44.27,0,0,0,2,6.34,35.41,35.41,0,0,0,4.93,7.8,34,34,0,0,1-3.9-11.16,37.67,37.67,0,0,1-2.06-6,59,59,0,0,1-2-13.84,32.86,32.86,0,0,1,.57-6.81,23.19,23.19,0,0,1,2.11-6.39,22.25,22.25,0,0,1,3.73-5.53,4.06,4.06,0,0,1,2.24-1.57,1.4,1.4,0,0,1,1.24.64,1.51,1.51,0,0,0-1-.47,1.92,1.92,0,0,0-1.17.52,9.83,9.83,0,0,0-1.51,1.6A14.85,14.85,0,0,0,200.23,97a23.25,23.25,0,0,0-3.44,9c-1.13,6.47-.27,13.34,1.49,19.88-.05-.37-.11-.74-.13-1.1-1.49-6.93-2-14.17-.21-20.62a11.57,11.57,0,0,1,.48-1.62,9.58,9.58,0,0,1,.67-1.59,12.68,12.68,0,0,0-.63,1.58,12.89,12.89,0,0,0-.52,1.63,30.2,30.2,0,0,0-.46,9.14,49,49,0,0,0,.35,6.49c.23,1.69.19,3.31.32,5,.25,1,.45,2.1.77,3.08a7.16,7.16,0,0,1,.42.88s0,0,0-.05c.49-1.45-.77-8.89-.3-15.89a32.7,32.7,0,0,1,1.78-9.31,30.62,30.62,0,0,1,2.34-4.94l.95-1.91a5.83,5.83,0,0,0,.57-1.44,4.77,4.77,0,0,0-.27-.66,1.61,1.61,0,0,1,.3.22c.48.54.51,1.42,1,2,.2,0,.43.31.63.72.44,2.4-.27,4.92.16,7,.13,1.41-3,5.21-2.45,5.62,1.82,1.37.44.31.2,4-.06.46.71,2,.69,2.88a9.26,9.26,0,0,0,.4,3.71,40.36,40.36,0,0,0,1.54,3.92c1.28,2.45,2,3.83,2.79,5.14a13.1,13.1,0,0,0,3.35,3.84c.21.17,1.49,1.5,2.71,2.77s2.44,2.44,2.44,2.44c3.29,4.1,6,6.07,7.93,9.77,3.75,3,7.14,8.29,10.39,12s4,5.81,5.95,9.63a14.57,14.57,0,0,1,1.39,2.47c.23.69,1.51,1.94,2,3l-.39-.13.65,1.47c.16.37,0,.32-.1.27s-.53-.17-.34.5a23.24,23.24,0,0,1,1.41,4.86,13.93,13.93,0,0,1,.63,2.4c.17.81.33,1.6.44,2.4a.74.74,0,0,1,.47.31l.2,1.42c.42.2.92,0,1.23.14a3.62,3.62,0,0,1,2.06.61,2.46,2.46,0,0,0,2.2.27c.32-.26-.45-3.29-.42-4.75,0-.34.68.26,1.18.48-.75-1.74-.46-1.93.23-1.32-.17-.42-.35-.83-.35-.83l.68.27c-.48-1.12-.88-2.3-1.33-3.46s-1-2.32-1.4-3.5a38.82,38.82,0,0,0-3.17-6.57,23.56,23.56,0,0,0-2.19-3,14.5,14.5,0,0,1-1-1.92c-.63-.49-.86-.21-1.28-.3-1.56-3-5.32-9.13-6.18-8.15-1.58-2.12-2.34-2.19-4.12-4.26-2.36-2.73-5.34-6.19-8.29-9.59-1.65-1.82-3.12-3.66-4.61-5.5-.57-.67-1.09-1.35-1.59-2-1.4-1.71-2.65-3.43-3.86-5.1a41,41,0,0,1-3.14-5,18.66,18.66,0,0,1-2.1-10c.11-3.53.8-7.23,1.1-11.38a35.22,35.22,0,0,0-.09-6.55,14.2,14.2,0,0,0-.86-3.78,10.79,10.79,0,0,0-2.38-3.73,7.13,7.13,0,0,0-2.27-1.53,5.65,5.65,0,0,0-3-.41,6,6,0,0,0-2.64,1,9.61,9.61,0,0,0-1.71,1.49A27.35,27.35,0,0,0,195.4,97a34.69,34.69,0,0,0-3.15,13.71,64.28,64.28,0,0,0,1,13.28A58.14,58.14,0,0,0,196.59,136.27Zm7.77-41.92h0v0Z"/><path class="cls-2" d="M98,14.7a13,13,0,0,0,.09,4.55c.08.69,1.27,2.63,1.55,3.87.8,4.28,1.79,5.21,3.59,9.77l1.74,4.17c.45,1.18.83,2.18,1.21,3.16a27.18,27.18,0,0,0,3.39,6.48c.32.73,5.53,9.23,5.53,9.23,3.78,6.8,6.89,10.49,9.55,16,4.6,5.29,9.59,13.18,14.62,18.69,1.26,1.38,2.29,2.58,3.21,3.7s1.76,2.08,2.55,3.07l2.34,3,2.79,3.39c1.27,1.37,2.27,2.35,2.95,3.21s2.94,2.33,4.23,3.68l-.57-.07c.44.44,1.29,1.36,1.74,1.78s.26.42.06.4c-.39,0-.77-.08-.07.78,1.83,1.86,3.7,3.78,5.66,5.69l6.23,5a1.41,1.41,0,0,1,.82.1l1.88,1.39c.6,0,.77-.46,1.17-.46.72-.89,3.95.24,4.09-1.2,0-.44-3.53-3.21-4.8-4.81-.26-.4.81,0,1.43,0-2.11-1.53-1.95-2-.88-1.57l-.94-.78h.8c-5-4.21-9.83-9.75-14.65-13.9-1-.89-2.83-2.3-4-3.28a23.92,23.92,0,0,1-2-2.27c-1-.53-1.14-.16-1.71-.24-1.49-1.84-3.85-4.74-5.87-7.07s-3.72-4.13-4.11-3.6c-2.42-2.93-3.3-3.19-5.86-6.22-1.65-2-3.44-4.42-5.35-6.91s-3.79-5.23-5.51-8L122,61l-2.59-4.53c-.64-1.13-1.3-2.21-1.83-3.29a135.89,135.89,0,0,1-12.42-33,28,28,0,0,1-.74-7.64l.07-.9.12-.7a7.11,7.11,0,0,1,.26-1.06,6.32,6.32,0,0,1,1.08-2,6.43,6.43,0,0,1,.81-.84A2.36,2.36,0,0,1,107.87,7a3.86,3.86,0,0,1,2,1.27,11.16,11.16,0,0,1,.8,1c.13.18.25.33.39.54l.55.92c.72,1.25,1.42,2.59,2.11,4,1.41,2.83,2.68,5.82,4.07,8.85.69,1.48,1.5,3.14,2.33,4.53l2.46,4.31c3.38,5.68,6.79,11.31,10.41,16.68,7.11,10.81,14.59,20.83,21.52,29.78,13.9,17.85,26.1,31.27,30.85,35.94l3.68,1.54c-2.32-4-8.91-10.56-15.51-17.73s-13.31-14.82-17-19.78c-2.94-3.73-5.13-6.61-6.62-8.89-1.26-1.9,1.81,2.37,6.62,8.89,2.29,2.8,5,6.09,8.35,9.85-1.76-2.66-3.49-5.23-5-7.66s-2.89-4.62-4-6.5c-2.06-2.37-4-4.85-6-7.37-8.7-11.13-16.6-22.34-23.18-34.63-.62-1.1-1.35-2.56-2.2-4.17s-1.83-3.35-2.57-5.14c-1.53-3.62-2.89-7.43-3.75-9.78,1,2.4,2,4.81,2.94,7.17a55.54,55.54,0,0,0,3.26,6.78c1.2,2.26,2.42,4.49,3.74,6.68s2.6,4.39,4,6.55a262.83,262.83,0,0,0,17.85,24.92L149,64.12A275,275,0,0,1,131,37.49c-1-1.53-1.85-3.15-2.75-4.81.92,1.6,1.79,3.23,2.75,4.81,2.52,4,5.26,7.77,8.33,11.95.92,1.3,1.85,2.74,2.77,4.19S144,56.46,145,57.75c1.51,2.14,2.75,4.23,4.07,6.37.95,1.29,2,2.54,3,3.79.34.33.69.69,1,1.08a.19.19,0,0,1,0-.07c-.56-2.14-6.87-11.31-12.89-21s-11.6-19.81-13.3-22.64a116.24,116.24,0,0,1-8.13-13.87c-.94-1.9-1.45-3.56-2.64-5-.29-.07-.94-1-1.69-1.69-1.65-2.13-3.63-4-6-4.59a5.05,5.05,0,0,0-3.43.27c-.45.3-.89.6-1.3.91a9.29,9.29,0,0,0-1,1.26c-.49.52-1.07,1.31-1.89,2.15L99.53,6.28c-.37.55-.68,1.18-1,1.8a10.94,10.94,0,0,0-.82,2,8.46,8.46,0,0,0-.46,1.37c-.22.8-.32,1.38-.18,1.52C97.94,14,98.06,14.07,98,14.7Z"/><path class="cls-2" d="M219.06,126.94l.22.91c.29.19.59.14.78.27.8,0,1.52,1.28,2.23,1,.22-.11.38-1.76.84-2.46.14-.17.36.25.63.43.11-.95.44-1,.66-.58.05-.22.11-.44.11-.44l.36.25c.68-2.35,2-4.83,2.18-7.11a15,15,0,0,0,0-1.89,2.91,2.91,0,0,1,.43-1c-.21-.44-.62-.47-.93-.7.75-1.62,2.68-4.84,1.26-5.14.51-1.28,0-1.74.41-3.11.3-.9.64-1.93,1.08-3,.26-.63.28-.78.44-1.15s.25-.67.41-1a11,11,0,0,1,1.06-2.12l.44-.73a8.07,8.07,0,0,1,2.74-2.75,10,10,0,0,1,2.75-1.16,17.17,17.17,0,0,1,3.12-.64,1.85,1.85,0,0,1,1.55.68,3.83,3.83,0,0,1,.47,1c.18,1-1,4.56-1.88,8.06-.25,1-.49,1.9-.73,2.84-.24,1.2-.57,2.39-.8,3.58-.48,2.37-.94,4.7-1.24,7a77.75,77.75,0,0,0-.74,18.84,16.11,16.11,0,0,1-4.89-4.06c-1-1.38-1.1-2.38-.89-2.59a6,6,0,0,1-.91.8,2.06,2.06,0,0,0-.47,2.05,3.71,3.71,0,0,0,.21.58c.12.19.26.38.4.57a5.71,5.71,0,0,0,1.06,1.09,60,60,0,0,0,5.17,3.42,16.54,16.54,0,0,1,2.42,1.44c.51.37-.72-.19-2.42-1.44-.8-.4-1.72-.88-2.77-1.44,1,1.62,2.19,3.12,3,4.29.75.23,1.51.48,2.28.74,3.4,1.08,6.79,1.66,10,2.9,1.18.46,3.77,1.07,4.63,1.88a56.14,56.14,0,0,0-7.08-1.84c-2.48-.53-5-1-7.54-1.64a3.28,3.28,0,0,1,.38.27c2.61.87,5.23,1.64,7.78,2.41a5.47,5.47,0,0,1,1.31.4l-1.31-.4c-1.16-.22-2.34-.13-3.65-.26-.78-.18-1.63-.73-2.42-.92a5.66,5.66,0,0,1-1.71-1.23l-1.17-.4a1.29,1.29,0,0,1-.39,0v0c.26,1.25,2.84,3,5.54,4.36s5.35,2.24,6.12,2.16a5.61,5.61,0,0,0,2-.75,3.09,3.09,0,0,1,2-.51c.43.08.63.58,1.08.35a1.24,1.24,0,0,1,.58-.44c.93.15,1.25,1.36,2.2,1,.28,0,.29.89.16,1.77s-.27,1.6,0,1.34c1.64-1.9.48-.52,1.14.12.05.1,1-.46,1.09-.24a.68.68,0,0,0,.69.59,3.42,3.42,0,0,1,1.12.3,1.41,1.41,0,0,1,1.07,1c.15.38.44.59,1.35.81a7.18,7.18,0,0,1,1.09.76,3.81,3.81,0,0,1,.61.55l.26.27a4.53,4.53,0,0,0,.46,1.09c.15.34.29.66.4,1a1.9,1.9,0,0,1-.33,2,2.75,2.75,0,0,1,.67,2.6,15.43,15.43,0,0,0-.28,2.79c.18,1.76-.81,2.42-1.62,3.81-.16.42-.11.75-.36,1s.33.93.17,1.35l-.42-.19c-.06.14-.17.41-.22.55s-.19.07-.33,0-.56-.26-.8,0a9,9,0,0,0-.74,1.72c.14.64.28,1.31.43,2a1.54,1.54,0,0,1,.48.29l.2.61c.37.21.8.28,1,.42,1.1.28,2,1.33,3,1.4.3,0,.68-1.05,1.35-1.41.19-.08.48.27.84.48.19-.64.64-.57.92-.22l.16-.29.48.28c1-1.5,2.67-3.19,2.59-5a5.67,5.67,0,0,0-.29-1.49c-.06-.22.31-.62.39-.78a3.69,3.69,0,0,0-1.32-.56,10.71,10.71,0,0,0,1.06-2.43c.18-.87,0-1.59-.88-1.58.18-1.05-.6-1.27-.69-2.36a42.14,42.14,0,0,0-.62-5.14c-.34-1-.41-2-.76-2.94l-.35-1a24.7,24.7,0,0,0-5.6-9.07,14.89,14.89,0,0,0-9-4.52,85.54,85.54,0,0,1-10.21-1.18,32.28,32.28,0,0,1-6.74-2.2c.43-2.33,0-5.67-.1-9.1a42.85,42.85,0,0,1,.48-10.36,20.08,20.08,0,0,1,.9-4.24c.15-.42.12-.14,0,.63s-.5,2-.85,3.61a21.74,21.74,0,0,0-.21,2.31c0,.84-.11,1.76-.09,2.75A41.18,41.18,0,0,1,242,117c.05-1.16.2-2.33.34-3.51s.36-2.57.65-3.82c.13-.64.23-1.24.39-1.91l.49-2a38.78,38.78,0,0,1,1.43-4.26c.62-1.46,1.31-3,2-4.47.25-.53.57-1.3.86-2s.58-1.44.89-2.19c.63-1.4,1.27-2.75,1.78-3.66-.65,1.57-1.33,3.18-2,5.14s-1.57,4.25-2.51,6.57a36.28,36.28,0,0,0-1.89,6.68c-.12.57-.2,1-.27,1.47l-.23,1.37c-.17.91-.22,1.83-.34,2.75a5.89,5.89,0,0,1,.24-.58c.16-1,.33-1.91.57-2.85l.33-1.41.43-1.73c.15-.59.25-1.15.45-1.77l.69-1.89A41.54,41.54,0,0,1,247.94,99c.19-.45.37-.9.57-1.35s.36-.87.57-1.33l-.52,1.29L247.94,99a20.83,20.83,0,0,0-1.11,3.41c-.14.58-.28,1.16-.42,1.76-.07.3-.15.6-.22.9s-.07.58-.11.88a19.86,19.86,0,0,1-.61,2.25A14.38,14.38,0,0,0,245,110a15.81,15.81,0,0,1-1.15,2.57c-.1.57-.22,1.14-.28,1.72a3,3,0,0,1,.1.54l0,0a8.11,8.11,0,0,0,1.9-3c.31-.75.74-1.57,1.09-2.45l.27-.66.34-1c.21-.69.42-1.39.64-2.09a17.78,17.78,0,0,1,.93-2.35l1.06-2.46L252.32,96c.54-1.36,1-2.54,1.27-3.52a4.31,4.31,0,0,0,.29-1.14,4.48,4.48,0,0,0,0-.6,2.45,2.45,0,0,0-.91-1.83,1.65,1.65,0,0,1-.53-1.54c0-.48.4-1.32.07-1.54-.17.13-.33,0-.51-.1-.1-1.32-1.2-3.38-2.77-3.07-.49,0-.75-.79-.95-1.54s-.36-1.53-.65-1.21c-2.08,2.44-.54.64-2.35.59-.21-.07-1.54,1.25-2,1.25-1.32-.15-2.25,1-4.17,2.26a14.28,14.28,0,0,1-3,1.87,6.81,6.81,0,0,0-2.66,2.78c-.14.21-1.05,1.33-1.78,2.48a14.06,14.06,0,0,0-.92,1.59l-.39.72a10.75,10.75,0,0,0-1.31,2c-.37.7-.71,1.34-1,2a10.39,10.39,0,0,1-1,1.67,8.57,8.57,0,0,1-1.3,1.57c-.06.49-.17,1-.22,1.42a9,9,0,0,1-.3,1.12c-.24.71-.53,1.44-.85,2.16a21,21,0,0,0-1.55,4.32c-.52,2.79-1.43,3.77-2.37,6.14a7.9,7.9,0,0,1-.42,1.62c-.22.39.15,1.47,0,2.16l-.32-.22c-.05.23-.15.7-.19.93s-.15.16-.25.09-.42-.3-.61.1a20,20,0,0,0-.54,3c.11,1.06.3,2.11.48,3.12A1.1,1.1,0,0,1,219.06,126.94Z"/><path class="cls-2" d="M217.31,383.32l.05.08h0l-.05-.07Z"/><path class="cls-2" d="M306.57,363.63c-.85-.68-.73-.94-.22-.84l-.39-.35.43-.11c-2-2-4.62-4.08-7.34-4.79a11.8,11.8,0,0,0-2.22-.43,11.74,11.74,0,0,1-1.21-.48c-.5.09-.51.34-.76.51-1.81-.82-6-1.79-6-.95-1.56-.2-1.91.14-3.52.09a50.9,50.9,0,0,0-7.46.51c-1.44.23-2.8.47-4.17.78-.51.12-1,.22-1.47.35-10.11,2.69-17,6.17-25.66,11.32-4.88,2.94-9.93,5.87-14.93,8.32a84.56,84.56,0,0,1-13.45,5.37,33.53,33.53,0,0,0,7.45-6.69,28.62,28.62,0,0,0,4.28-6.85,12.16,12.16,0,0,0-.67-2c-1.63,2.16-3.14,5.61-5.18,8.65a30.3,30.3,0,0,1-6.22,7h0c.42-.34.89-.74,1.39-1.23-.56.48-1.07.9-1.49,1.27l-.43.13h0l0,.06h0l.28-.08h0l-.27.08,0,0,.18-.05-.14.12,0,0,.21-.17h0l-.24.19,0,.05c.16-.1.3-.21.45-.31,1.35-.37,2.44-.69,3.32-1,1.16-.39,2.32-.81,3.5-1.26a149.49,149.49,0,0,0,14.82-7c1.77-.91,5.58-3,7.31-3.82-7.09,3.76-14.13,7.72-21.64,10.66l-1.18.46-.55.21h0a89.32,89.32,0,0,0,9-3.57c4.14-1.86,8.3-4,9.46-4.59,1.86-1,3.45-2.1,5.51-3.22.69-.37,1.3-.63,1.81-1a3.31,3.31,0,0,1,.54-.39c1.37-.74,2.84-1.31,3.86-1.95.72-.43,3.15-.78,3.26-1,.38-.71.09-.22,1.92-1,.22-.08.84-.59,1.29-.75a34.67,34.67,0,0,0,3.61-1.55c2.51-1.11,3.2-.92,5.41-2,.13-.06,1.1-.4,2-.72l1.86-.58c2.91-.55,4.71-1.14,7.06-.8,2.64-.64,6.21,0,9,.4s3.85,1.12,6,2.24a7.44,7.44,0,0,1,1.44.7c.3.29,1.33.33,1.91.71l-.26.14.76.5c.19.12.1.17,0,.21s-.34.19-.06.48c.73.58,1.46,1.16,2.16,1.78.83.42,1.61.89,2.4,1.37a.72.72,0,0,1,.4-.1l.71.43c.3-.08.46-.32.66-.37.5-.56,1.92-.21,2.2-.9,0-.21-1.18-1.53-1.62-2.27C305.75,363.62,306.25,363.71,306.57,363.63Zm-88.89,19.54h0l0,0h0Zm2.14-.64c-.53.18-1.11.34-1.81.55h0c.66-.19,1.28-.36,1.8-.54,1.75-.55,3.07-1,4.05-1.4C224.7,380.81,222.8,381.6,219.82,382.53Zm12.36-4.64c-1.14.54-2.47,1.11-3.64,1.62-.95.4-1.84.74-2.76,1.09,3.94-1.56,7.77-3.39,11.55-5.3C235.66,376.17,234,377,232.18,377.89Z"/><polygon class="cls-2" points="217.32 383.32 217.37 383.39 217.38 383.38 217.34 383.31 217.33 383.31 217.32 383.32"/><polygon class="cls-2" points="217.3 383.29 217.3 383.29 217.32 383.32 217.32 383.32 217.3 383.29"/><polygon class="cls-2" points="217.37 383.39 217.38 383.42 217.38 383.42 217.37 383.39 217.37 383.39"/><path class="cls-2" d="M217.38,383.42h0Z"/><path class="cls-2" d="M217.32,383.28h0Z"/><path class="cls-2" d="M316.39,297.23a4.94,4.94,0,0,0-.67-1.51c-.12-.21.25-.7.31-.88a5.74,5.74,0,0,0-1.75-.36c.68-1.26,1.48-4.55-.73-4.07-.06-1.12-1.11-1.1-1.48-2.13a25.43,25.43,0,0,0-2.36-4.64c-.65-.8-1.2-1.62-1.88-2.4-.25-.28-.52-.54-.78-.79a23.22,23.22,0,0,0-8.86-5.09,15.68,15.68,0,0,0-8.24-.56,9.6,9.6,0,0,1-7.55-1.09,12.88,12.88,0,0,1-4.84-5.55,13.09,13.09,0,0,1-1.23-5.78,26.08,26.08,0,0,1,.39-3.26c-.43,0-.87-.06-1.32-.11-1.26,1.16-1.49,3.08-1.08,5a42.67,42.67,0,0,0,1.76,5.19,18.58,18.58,0,0,1,1,2.27c.2.54-.49-.47-1-2.27-.36-.7-.77-1.5-1.19-2.46a37.55,37.55,0,0,0-.26,5l1.42,1.69a30.43,30.43,0,0,0,8,6.06c1.12.7,3.81,1.27,4.89,1.89a24,24,0,0,1-7.35-2.34,27.48,27.48,0,0,1-6.15-4.43,2.65,2.65,0,0,1,.18.42,26,26,0,0,0,6.33,5.23c-1.15-.5-2.37-.81-3.58-1.45a25.44,25.44,0,0,1-1.86-1.89,4.79,4.79,0,0,1-.89-1.89l-.77-.91a1.19,1.19,0,0,1-.35-.15v0c-.45,1.18.7,4.13,3,6.59s5.71,4.21,6.77,4.16c1.7.09,3.32-1.45,4.79-1.5.51,0,.86.46,1.27.1a1.38,1.38,0,0,1,.47-.61c.95-.06,1.75.95,2.5.23.54-.26,1.27,3.86,1.42,3.11.71-2.69.21-.73,1.1-.41.11.06.65-1,.86-.82.57.76,1-.11,1.84-.19a1,1,0,0,1,1.2.28c.25.22.5.29,1.34-.14a3.49,3.49,0,0,1,1.16-.06,6.93,6.93,0,0,1,1,.17c.82,1.05,2.4,1.26,1.5,3.05a1.78,1.78,0,0,1,1.32,1.81,8.8,8.8,0,0,0,.22,2.31c.51,1.4-.55,2.14-1.4,3.32-.13.34,0,.61-.31.8s.53.73.37,1.09l-.56-.14-.2.45c0,.12-.24.06-.42,0a1.37,1.37,0,0,0-1,0,6.26,6.26,0,0,0-.78,1.37c.25.54.51,1.1.78,1.7a2.84,2.84,0,0,1,.66.27l.33.55c.51.21,1.08.3,1.42.44,1.48.31,2.76,1.33,4.13,1.47.41,0,.77-1,1.58-1.28.24-.06.67.28,1.17.49.15-.61.74-.54,1.16-.19l.16-.28.68.29C315.06,300.94,316.85,299.13,316.39,297.23Z"/></svg>