<?xml version="1.0" standalone="no"?>
<!DOCTYPE svg PUBLIC "-//W3C//DTD SVG 20010904//EN"
 "http://www.w3.org/TR/2001/REC-SVG-20010904/DTD/svg10.dtd">
<svg version="1.0" xmlns="http://www.w3.org/2000/svg"
 width="2472.000000pt" height="2472.000000pt" viewBox="0 0 2472.000000 2472.000000"
 preserveAspectRatio="xMidYMid meet">
<metadata>
Created by potrace 1.14, written by Peter Selinger 2001-2017
</metadata>
<g transform="translate(0.000000,2472.000000) scale(0.100000,-0.100000)"
fill="#000000" stroke="none">
<path d="M11622 23458 c-7 -7 -12 -16 -12 -21 0 -4 -13 -22 -30 -40 -16 -17
-37 -46 -47 -64 -10 -18 -21 -33 -26 -33 -4 0 -5 -4 -2 -10 3 -5 1 -10 -4 -10
-6 0 -11 -7 -11 -15 0 -8 -4 -15 -9 -15 -9 0 -86 -100 -146 -190 -16 -25 -38
-54 -47 -64 -17 -19 -22 -31 -19 -48 0 -5 -4 -7 -10 -5 -6 1 -14 -4 -16 -11
-3 -8 2 -10 14 -6 14 5 15 4 3 -4 -8 -6 -18 -8 -23 -5 -4 3 -11 -4 -14 -16 -3
-11 -9 -19 -13 -16 -4 3 -13 -8 -20 -24 -6 -16 -18 -32 -27 -35 -8 -3 -12 -10
-9 -15 3 -5 -1 -12 -10 -15 -12 -5 -14 -14 -10 -34 5 -19 4 -23 -3 -12 -6 8
-12 12 -14 10 -28 -36 -58 -80 -53 -80 4 0 -4 -11 -18 -24 -27 -24 -35 -43
-14 -30 7 5 8 3 4 -5 -5 -7 -10 -10 -13 -7 -10 9 -34 -24 -27 -35 4 -7 3 -9
-3 -6 -12 8 -56 -50 -48 -63 4 -6 11 -8 16 -5 5 4 9 2 9 -4 0 -5 -9 -9 -19 -8
-11 0 -17 5 -15 9 3 4 1 8 -4 8 -5 0 -12 -9 -15 -21 -4 -13 -10 -18 -18 -13
-7 4 -10 3 -6 -3 4 -6 -3 -24 -15 -39 -29 -39 -43 -53 -34 -34 4 8 -2 4 -13
-10 -11 -14 -19 -29 -18 -35 2 -5 -5 -18 -14 -29 -10 -10 -16 -23 -13 -28 3
-4 1 -8 -5 -8 -5 0 -19 -16 -31 -35 -18 -29 -26 -34 -43 -29 -19 6 -20 5 -8
-9 11 -14 10 -20 -8 -43 -12 -15 -21 -21 -21 -15 0 7 -4 10 -10 6 -5 -3 -7
-12 -4 -19 3 -7 -2 -19 -11 -26 -10 -8 -15 -9 -15 -1 0 6 5 11 10 11 6 0 10 5
10 12 0 6 -3 8 -7 5 -3 -4 -12 -2 -19 4 -12 10 -13 3 -5 -54 0 -5 7 -5 14 -1
7 4 9 3 4 -2 -5 -5 -14 -9 -20 -9 -7 -1 -11 -7 -9 -14 1 -7 -2 -10 -9 -5 -9 5
-10 2 -6 -9 4 -11 2 -14 -9 -10 -10 4 -13 0 -8 -13 5 -16 4 -16 -5 -4 -6 8
-11 11 -11 6 0 -5 -11 4 -25 20 -14 16 -23 34 -21 40 5 13 -13 34 -27 34 -5 0
-4 -7 3 -15 10 -12 10 -19 2 -27 -7 -7 -12 -9 -12 -4 0 4 -7 0 -16 -8 -20 -20
-43 -20 -50 -1 -4 8 -10 13 -14 10 -5 -3 -15 1 -23 9 -8 8 -18 12 -22 8 -5 -4
-5 -1 -1 6 12 20 -4 14 -25 -10 l-20 -23 17 28 c19 31 32 34 50 10 7 -10 17
-19 23 -19 6 -1 16 -2 22 -3 5 0 7 -5 4 -11 -10 -16 15 -12 32 5 8 8 19 12 25
9 6 -4 8 -1 6 7 -6 14 -11 15 -39 4 -9 -3 -24 1 -33 10 -10 11 -16 12 -16 4 0
-6 -9 0 -21 15 -11 14 -17 31 -13 37 4 7 1 10 -7 7 -8 -3 -14 -11 -14 -19 0
-19 -20 -30 -39 -23 -15 6 -11 34 5 34 4 0 6 -7 3 -15 -10 -25 10 -17 22 9 10
22 9 23 -28 22 -21 -1 -45 -9 -54 -18 -16 -16 -18 -15 -36 8 -11 13 -25 21
-31 18 -8 -5 -8 -2 1 7 16 18 16 34 -1 20 -11 -9 -14 -4 -13 23 1 19 4 38 9
42 13 14 7 27 -7 15 -12 -10 -14 -7 -11 16 1 15 -2 31 -9 35 -7 5 -6 8 4 8 13
0 13 1 0 11 -12 8 -10 9 7 4 15 -4 26 1 37 17 9 12 16 17 16 11 0 -7 -4 -15
-10 -18 -5 -3 -15 -15 -21 -26 -9 -19 -9 -19 10 -10 11 6 23 17 27 24 5 7 0 6
-12 -3 -18 -14 -18 -14 -5 2 10 14 18 15 32 7 22 -11 24 -20 8 -36 -8 -8 -7
-13 2 -18 8 -6 10 -4 4 6 -7 11 -5 11 10 -1 17 -13 18 -13 11 0 -4 8 0 6 10
-5 12 -14 15 -15 11 -4 -4 12 1 16 16 15 12 -1 21 -7 19 -14 -1 -7 2 -12 8
-12 17 0 11 18 -12 34 -12 9 -17 16 -11 16 6 0 25 -17 43 -37 25 -31 28 -32
13 -8 l-18 30 30 -19 c17 -11 25 -13 18 -5 -9 11 -8 18 3 33 8 11 14 15 14 10
0 -6 -6 -16 -12 -24 -10 -11 -9 -11 7 0 19 14 19 14 5 -5 -14 -19 -14 -19 5
-5 19 14 19 14 5 -4 -13 -18 -13 -19 0 -11 11 6 10 3 -2 -12 -29 -32 -21 -36
10 -5 15 15 19 18 10 7 -21 -24 -23 -35 -7 -35 5 0 8 4 5 9 -7 11 28 43 37 34
4 -3 7 -1 7 5 0 7 -5 12 -12 12 -6 0 -9 3 -5 6 3 3 22 -10 42 -29 34 -34 75
-45 75 -22 0 5 4 3 9 -5 6 -8 7 -18 4 -24 -3 -5 -1 -6 5 -2 6 4 8 14 5 23 -5
13 -2 15 11 10 10 -4 21 -7 24 -7 4 0 -4 -7 -16 -16 -26 -18 -27 -24 -7 -50
13 -16 14 -16 9 -1 -3 9 -1 17 5 17 6 0 10 -3 9 -7 -4 -12 28 -54 35 -47 3 4
-2 14 -11 23 -10 9 -11 12 -3 6 11 -8 13 -7 6 4 -6 10 -4 12 6 6 8 -5 11 -5 7
0 -4 4 -3 14 3 22 9 10 15 10 25 2 10 -8 14 -8 14 0 0 6 -6 11 -12 11 -9 0 -8
3 2 9 8 6 19 7 25 3 5 -3 4 2 -4 11 -13 17 -6 23 22 18 6 -1 9 8 6 25 0 4 5
11 13 15 8 5 -2 7 -24 4 -20 -3 -40 0 -43 5 -6 9 14 14 43 11 16 -2 15 24 -2
38 -12 10 -10 16 12 39 15 14 33 27 41 27 18 0 23 32 5 32 -11 0 -11 -3 -2
-15 9 -11 9 -13 -3 -12 -26 4 -39 0 -39 -11 0 -7 -11 -22 -25 -35 -26 -24 -26
-24 -47 -4 -21 20 -21 20 -35 0 -17 -24 -33 -26 -33 -4 0 8 4 13 8 10 5 -3 16
4 25 15 16 18 19 18 33 4 18 -17 34 -20 34 -4 0 5 -4 7 -10 4 -5 -3 -10 -2
-10 2 0 5 -9 14 -21 21 -12 8 -19 10 -17 5 6 -10 -23 -37 -45 -41 -11 -2 -15
2 -11 11 3 8 -3 22 -12 32 -15 14 -15 18 -3 26 8 5 9 9 4 9 -6 0 -16 -5 -23
-12 -9 -9 -12 -9 -12 2 0 7 -3 11 -6 7 -10 -10 -42 26 -37 42 4 13 3 14 -5 2
-8 -11 -5 -22 11 -42 12 -14 25 -25 28 -23 9 5 49 -26 49 -37 0 -5 -11 -2 -25
7 -14 9 -25 12 -25 8 0 -5 -13 5 -28 21 -53 58 -60 61 -88 34 -25 -24 -26 -24
-41 -4 -12 15 -14 16 -10 3 3 -9 -1 -22 -8 -28 -12 -10 -14 -6 -10 27 3 25 2
33 -4 24 -5 -8 -7 -20 -4 -28 5 -13 -12 -19 -20 -5 -2 4 -2 1 0 -6 1 -8 -2
-12 -9 -10 -14 5 -18 60 -5 69 4 3 5 13 1 23 -9 23 -24 1 -19 -26 2 -10 1 -18
-3 -19 -4 0 -15 -2 -25 -4 -12 -2 -17 1 -13 10 3 9 0 12 -9 9 -12 -5 -12 -9 0
-28 15 -22 11 -36 -7 -36 -5 0 -6 5 -3 10 3 6 -3 22 -14 36 -12 15 -21 22 -21
16 0 -6 7 -17 15 -26 17 -17 20 -30 5 -21 -5 3 -10 1 -10 -4 0 -6 6 -11 13
-11 8 0 7 -4 -3 -10 -23 -15 -29 -12 -25 10 6 32 -5 52 -26 47 -10 -3 -25 4
-35 14 -13 15 -14 19 -3 20 8 0 5 4 -6 8 -19 8 -19 8 3 20 12 6 22 16 22 22 0
6 -7 3 -16 -6 -9 -9 -19 -13 -23 -9 -3 4 0 9 7 11 9 3 10 9 3 17 -6 7 -9 99
-8 239 2 232 -6 285 -17 117 -7 -108 -9 -119 -33 -265 -3 -22 -6 -48 -7 -57 0
-20 -16 -25 -16 -6 0 6 -3 8 -6 5 -4 -4 -1 -13 6 -22 9 -11 10 -18 1 -29 -8
-9 -8 -15 -1 -18 5 -1 -6 -8 -25 -14 -34 -11 -35 -10 -30 10 6 21 6 21 -7 -1
-12 -19 -15 -20 -32 -8 -22 17 -36 11 -36 -15 0 -19 -58 -75 -68 -65 -4 3 8
17 26 31 27 21 30 29 22 45 -9 16 -15 17 -31 8 -12 -6 -18 -13 -15 -16 3 -3
-10 -22 -29 -42 -25 -26 -33 -42 -28 -56 5 -18 4 -18 -11 -6 -15 12 -15 16 -1
37 14 21 13 24 -10 42 -13 11 -21 23 -17 27 4 5 1 5 -5 1 -18 -10 -16 -26 3
-26 8 0 12 -5 9 -10 -4 -6 -11 -8 -16 -5 -5 4 -9 1 -9 -4 0 -6 7 -11 15 -11 8
0 15 5 15 11 0 5 5 7 12 3 8 -5 7 -10 -4 -18 -15 -11 -18 -17 -18 -37 0 -5 -5
-7 -10 -4 -6 4 -8 10 -5 14 2 5 -4 16 -15 26 -14 12 -17 21 -9 25 7 5 5 9 -6
13 -9 4 -13 3 -10 -3 3 -6 1 -10 -5 -10 -6 0 -1 -10 12 -22 24 -23 35 -82 14
-75 -6 2 -11 10 -12 18 -2 33 -5 39 -25 58 -13 12 -17 21 -10 26 14 8 14 35 0
35 -5 0 -7 -5 -4 -10 4 -6 1 -17 -5 -25 -7 -8 -9 -15 -6 -15 4 0 0 -10 -8 -22
-19 -26 -20 -38 -5 -38 5 0 8 4 5 9 -3 4 0 16 7 25 12 16 14 16 26 3 6 -9 12
-24 11 -34 0 -10 -1 -28 -1 -41 0 -19 -3 -21 -14 -12 -8 6 -19 8 -26 4 -7 -4
-10 -2 -8 5 3 7 8 12 13 11 17 -3 27 29 16 48 -9 15 -10 14 -5 -5 4 -14 2 -23
-5 -23 -7 0 -20 -10 -31 -22 -10 -13 -18 -18 -19 -11 0 6 5 15 10 18 7 4 7 13
0 24 -6 12 -5 22 2 29 9 9 9 12 0 12 -7 0 -12 -5 -12 -12 0 -9 -3 -9 -12 0
-15 15 -28 15 -28 1 0 -5 4 -8 9 -4 12 7 42 -35 34 -48 -3 -5 -11 -1 -17 11
-10 18 -12 18 -25 5 -13 -14 -16 -14 -33 7 -22 27 -23 41 -3 34 8 -4 15 -12
15 -20 0 -8 5 -14 10 -14 15 0 -5 36 -24 43 -26 10 -29 -14 -7 -44 23 -31 18
-37 -11 -15 -10 7 -14 16 -10 21 4 4 -3 1 -15 -6 -24 -14 -30 -29 -13 -29 6 0
10 5 10 10 0 6 11 3 25 -6 13 -8 30 -12 36 -8 9 5 10 2 6 -10 -4 -10 -7 -20
-7 -22 0 -2 -7 -4 -15 -4 -8 0 -14 6 -13 12 2 8 -11 13 -34 14 -31 1 -35 -1
-22 -10 14 -11 14 -13 -2 -27 -16 -12 -17 -12 -11 3 4 12 2 15 -9 11 -8 -3
-14 -2 -13 3 3 20 -2 35 -10 29 -5 -3 -11 5 -13 17 -2 13 -9 22 -17 20 -8 -2
-11 3 -8 11 3 8 1 20 -4 28 -8 12 -10 12 -8 -1 3 -30 -1 -41 -13 -34 -6 4 -8
3 -4 -4 3 -6 15 -9 26 -7 15 3 20 -2 20 -16 0 -11 7 -22 15 -25 13 -5 12 -11
-6 -35 -11 -16 -25 -27 -30 -23 -5 3 -2 12 6 20 17 18 20 34 5 34 -6 0 -9 -5
-8 -12 2 -7 -13 -21 -32 -31 -31 -17 -32 -18 -8 -13 23 5 27 3 22 -11 -5 -15
-4 -16 5 -3 6 8 11 13 12 10 0 -3 2 -18 4 -35 l4 -30 -26 30 c-22 25 -25 26
-19 7 5 -13 3 -22 -3 -22 -10 0 -15 14 -12 33 0 4 -4 7 -10 7 -6 0 -9 -7 -6
-15 4 -8 2 -17 -3 -20 -5 -3 -11 3 -14 12 -3 11 -4 9 -3 -6 1 -13 -4 -26 -11
-28 -8 -3 -10 2 -6 14 5 14 4 15 -4 3 -6 -8 -9 -17 -6 -22 3 -4 -4 -13 -15
-20 -14 -9 -17 -16 -10 -25 8 -9 5 -11 -10 -10 -13 1 -20 6 -17 14 3 7 1 13
-3 13 -5 0 -11 -7 -15 -15 -5 -13 5 -20 27 -16 4 0 7 -3 7 -8 0 -6 9 -8 21 -6
12 2 19 0 17 -7 -2 -6 -16 -12 -31 -14 -18 -2 -25 1 -21 8 4 6 2 8 -4 4 -5 -3
-12 0 -15 6 -6 19 -38 -10 -35 -31 2 -10 -5 -17 -21 -19 -15 -2 -21 0 -16 7 3
6 10 9 14 7 4 -3 7 4 8 14 1 11 11 29 22 41 14 15 17 26 11 38 -5 9 -11 24
-14 34 -3 10 -11 15 -17 11 -8 -4 -9 1 -5 17 6 20 5 21 -4 6 -12 -19 -4 -41
11 -32 5 4 9 -2 9 -12 0 -11 5 -24 10 -29 7 -7 4 -16 -10 -29 -21 -19 -29 -8
-8 13 7 7 8 12 2 12 -8 -1 -58 -70 -49 -70 2 0 11 7 19 16 15 14 16 14 16 -1
0 -8 -7 -18 -15 -21 -10 -4 -13 -13 -10 -25 5 -14 2 -17 -9 -13 -9 3 -16 1
-16 -6 0 -6 5 -8 10 -5 6 3 10 1 10 -4 0 -6 -5 -11 -11 -11 -6 0 -9 -6 -6 -12
2 -7 0 -21 -4 -30 -6 -11 -4 -21 4 -30 10 -11 9 -16 -6 -31 -18 -18 -18 -18
-17 0 4 38 1 48 -12 35 -7 -7 -17 -12 -22 -12 -6 1 0 10 14 21 30 25 37 73 9
58 -25 -13 -29 -11 -22 8 6 15 5 16 -9 3 -9 -8 -12 -17 -7 -18 5 -2 14 -13 20
-24 10 -18 9 -20 -5 -15 -25 10 -49 -3 -35 -19 8 -10 6 -13 -13 -12 -13 1 -30
6 -38 12 -13 10 -13 9 -1 -6 9 -13 23 -16 48 -13 28 3 33 2 24 -9 -7 -9 -7
-16 1 -24 9 -9 9 -12 0 -12 -7 0 -15 7 -18 15 -4 8 -10 15 -16 15 -5 0 -6 -4
-3 -10 3 -5 2 -10 -4 -10 -5 0 -11 6 -14 13 -2 6 -3 -21 -1 -62 3 -63 1 -71
-10 -55 -8 10 -11 24 -8 32 4 11 0 13 -16 8 -18 -6 -21 -4 -15 11 6 17 6 17
-10 1 -10 -9 -17 -21 -16 -25 8 -45 -18 -54 -53 -20 -10 10 -23 15 -28 12 -6
-4 -10 -2 -10 4 0 5 5 12 10 14 6 3 5 4 -2 3 -17 -3 -17 -31 0 -32 6 -1 17 -2
23 -3 5 0 7 -5 4 -11 -7 -11 -5 -12 45 -14 42 -2 78 -20 61 -30 -6 -4 -11 -3
-11 1 0 5 -16 9 -35 10 -32 1 -34 -1 -18 -13 10 -7 13 -14 6 -14 -6 0 -19 8
-29 17 -16 16 -16 16 -10 -4 5 -16 2 -25 -13 -32 -24 -13 -34 -14 -27 -2 6 9
-22 26 -36 23 -4 -1 -7 8 -5 19 1 16 -4 22 -23 25 -18 3 -21 2 -10 -5 8 -5 18
-7 24 -4 5 4 7 -1 3 -12 -8 -19 10 -48 23 -40 5 3 11 -4 15 -15 6 -18 8 -18
29 -5 21 14 36 12 36 -7 0 -4 -3 -7 -7 -7 -29 5 -36 -2 -17 -16 21 -16 12 -20
-15 -6 -15 8 -17 5 -16 -30 1 -24 -3 -38 -9 -36 -6 2 -10 13 -8 23 2 18 2 18
-13 -1 -8 -11 -13 -25 -10 -33 3 -9 -1 -12 -14 -7 -14 4 -23 0 -31 -15 -6 -11
-15 -18 -19 -15 -5 2 -14 -2 -21 -10 -9 -10 -9 -15 -1 -15 6 0 11 4 11 10 0 5
3 9 8 9 20 -3 32 2 32 16 0 8 5 15 10 15 6 0 10 -4 10 -10 0 -11 -40 -50 -52
-50 -4 0 -8 -5 -8 -12 0 -6 7 -4 18 5 10 10 22 17 27 17 14 0 -26 -39 -47 -45
-17 -6 -17 -7 4 -25 13 -10 19 -22 15 -26 -4 -5 -11 -4 -15 2 -4 6 -17 16 -29
23 -19 10 -24 8 -33 -9 -6 -12 -7 -20 -1 -20 5 0 11 8 13 18 3 15 7 14 30 -9
20 -20 29 -24 39 -15 9 8 10 7 5 -7 -3 -10 -6 -21 -6 -23 0 -3 -4 -2 -10 1 -5
3 -10 2 -10 -3 0 -6 7 -13 16 -16 8 -3 12 -2 9 4 -7 12 31 8 42 -5 5 -4 2 -5
-4 -1 -8 4 -13 2 -13 -5 0 -7 -3 -9 -6 -6 -4 3 -16 2 -27 -4 -15 -9 -18 -8
-12 3 3 7 -1 4 -9 -6 -9 -11 -16 -16 -16 -12 0 5 -7 3 -15 -4 -8 -6 -20 -8
-26 -4 -8 5 -9 3 -4 -6 6 -10 4 -12 -8 -7 -10 4 -17 2 -17 -4 0 -6 -7 -8 -16
-5 -10 4 -13 2 -8 -6 5 -8 2 -9 -9 -5 -10 3 -17 3 -17 -1 0 -7 -9 -11 -104
-52 -40 -17 -47 -18 -42 -5 3 9 2 13 -4 10 -6 -3 -10 -12 -10 -20 0 -15 -27
-28 -41 -19 -5 3 -9 1 -9 -3 0 -5 -19 -17 -42 -27 -471 -209 -1063 -531 -1436
-783 -35 -24 -67 -43 -72 -43 -4 0 -10 -3 -12 -7 -1 -5 -23 -21 -48 -38 -252
-167 -702 -513 -930 -714 -245 -217 -266 -237 -505 -476 -253 -252 -303 -305
-475 -505 -332 -383 -652 -813 -885 -1189 -22 -35 -50 -80 -63 -100 -12 -20
-31 -52 -42 -71 -21 -36 -33 -57 -61 -100 -9 -14 -31 -52 -49 -85 -18 -33 -64
-116 -102 -185 -76 -137 -267 -521 -318 -640 -18 -41 -43 -97 -55 -125 -99
-217 -280 -712 -365 -995 -12 -41 -30 -102 -40 -135 -19 -64 -78 -279 -85
-311 -2 -10 -20 -91 -40 -179 -46 -200 -41 -176 -70 -330 -14 -71 -27 -137
-30 -145 -2 -8 -6 -37 -10 -65 -3 -27 -8 -57 -10 -65 -2 -8 -6 -35 -9 -60 -4
-25 -8 -56 -10 -70 -9 -51 -26 -177 -32 -233 -3 -32 -7 -66 -9 -75 -1 -9 -6
-55 -10 -102 -4 -47 -9 -92 -10 -101 -2 -9 -6 -63 -10 -120 -4 -57 -8 -120
-10 -139 -7 -72 -17 -412 -18 -610 -1 -274 17 -665 38 -850 2 -19 7 -62 10
-95 3 -33 7 -76 10 -95 2 -19 7 -57 10 -85 3 -27 10 -84 16 -125 6 -41 12 -84
14 -95 17 -121 41 -266 49 -293 3 -9 7 -35 11 -57 3 -22 12 -74 21 -115 9 -41
18 -86 20 -100 3 -14 11 -53 19 -86 8 -34 16 -73 19 -85 8 -39 63 -260 80
-321 9 -32 22 -82 30 -110 94 -349 303 -929 457 -1266 192 -419 282 -592 529
-1018 67 -115 278 -441 368 -569 16 -22 46 -65 67 -95 35 -51 181 -244 257
-343 46 -58 324 -393 345 -415 10 -10 54 -58 98 -107 119 -132 127 -140 260
-275 296 -302 606 -582 895 -810 36 -28 72 -56 80 -63 8 -7 33 -26 55 -42 22
-16 42 -32 45 -35 3 -3 21 -17 40 -30 19 -13 37 -27 40 -30 12 -15 329 -237
475 -333 627 -411 1327 -765 2005 -1014 214 -79 540 -186 675 -223 17 -5 89
-25 160 -45 72 -20 137 -38 145 -40 176 -43 432 -102 525 -120 17 -3 41 -7 55
-10 14 -3 50 -9 80 -15 30 -6 66 -12 80 -15 108 -21 364 -60 530 -80 19 -2 53
-6 75 -9 49 -6 120 -14 300 -31 33 -3 92 -8 130 -10 39 -2 117 -7 175 -11 58
-3 139 -7 180 -9 103 -5 669 -5 755 -1 39 2 129 7 200 10 187 10 278 17 515
41 87 9 140 16 250 30 19 3 55 7 80 10 25 3 52 8 60 10 8 2 40 7 70 10 30 4
91 13 135 22 44 8 89 16 100 17 11 2 61 11 110 21 50 9 101 19 115 21 78 13
566 129 625 148 6 1 24 6 40 10 419 106 1107 357 1570 574 261 122 788 400
877 463 14 11 31 19 37 19 6 0 11 5 11 10 0 6 5 10 11 10 32 0 550 346 824
550 745 556 1387 1196 1972 1965 49 63 70 93 83 111 8 12 37 53 64 91 160 221
357 529 509 793 114 199 303 566 390 760 21 47 51 112 67 146 68 147 229 569
305 799 70 211 159 504 170 564 2 9 4 16 5 16 1 0 3 7 5 15 2 8 24 101 49 205
39 168 59 262 96 450 9 48 37 214 45 265 6 42 16 113 20 140 11 73 32 243 40
320 3 30 7 75 10 100 52 507 52 1205 0 1750 -2 25 -7 74 -10 110 -3 36 -8 81
-11 100 -28 234 -48 370 -69 495 -15 83 -28 161 -30 175 -2 14 -13 70 -25 125
-11 55 -23 114 -26 130 -3 17 -9 46 -15 65 -5 19 -23 94 -40 165 -40 171 -33
145 -104 395 -228 807 -612 1659 -1083 2404 -79 126 -205 314 -234 351 -5 6
-76 109 -159 230 -181 262 -264 370 -473 609 -210 242 -579 621 -781 802 -514
463 -980 811 -1558 1162 -64 40 -120 72 -123 72 -3 0 -25 14 -49 30 -24 17
-46 30 -49 30 -2 0 -71 37 -153 81 -246 136 -602 307 -883 426 -19 8 -44 19
-55 23 -11 5 -45 19 -75 31 -30 12 -68 27 -85 34 -16 7 -100 39 -185 70 -85
31 -164 60 -175 65 -77 32 -583 187 -731 224 -32 8 -95 24 -139 36 -64 16
-285 68 -365 85 -48 10 -169 35 -190 38 -74 14 -148 28 -170 32 -14 3 -70 12
-125 20 -55 9 -111 18 -125 20 -53 9 -87 14 -135 19 -27 4 -61 9 -75 11 -25 5
-64 10 -170 20 -30 3 -71 7 -90 10 -41 5 -127 13 -225 20 -38 3 -92 8 -120 10
-70 7 -256 16 -415 20 -74 2 -166 7 -205 11 -38 4 -101 7 -140 7 -91 -1 -403
-13 -435 -18 -14 -2 -70 -7 -125 -10 -55 -3 -126 -8 -159 -11 -37 -3 -64 0
-73 8 -11 9 -13 9 -11 -2 4 -17 -52 -22 -71 -6 -11 8 -13 8 -7 -1 5 -9 0 -13
-18 -13 -13 0 -32 -3 -42 -7 -13 -5 -15 -3 -9 8 8 12 6 12 -8 0 -9 -7 -23 -11
-31 -8 -8 3 -17 3 -20 -1 -11 -11 -71 -10 -85 2 -12 9 -13 8 -6 -3 6 -11 4
-13 -8 -8 -10 3 -17 2 -17 -4 0 -6 -13 -8 -30 -5 -16 2 -32 1 -35 -4 -6 -10
-55 -10 -55 1 0 5 3 8 8 8 21 -4 23 3 8 26 -9 14 -12 25 -7 25 15 0 41 -42 34
-54 -4 -6 -2 -7 3 -3 15 14 11 31 -11 49 -25 22 -12 23 20 2 13 -8 23 -21 21
-27 -1 -7 -1 -8 2 -4 2 4 10 3 17 -3 9 -8 14 -6 19 6 4 11 -1 22 -14 31 -11 8
-18 18 -16 22 3 4 -5 8 -17 8 -15 2 -18 0 -8 -6 9 -6 10 -11 2 -15 -6 -4 -16
4 -22 18 -10 21 -14 23 -30 13 -11 -7 -17 -17 -15 -23 2 -6 -8 -11 -23 -11
-17 0 -28 6 -28 14 0 8 8 11 21 8 12 -3 15 -2 8 1 -16 8 -5 25 13 18 7 -3 18
4 25 15 7 14 7 21 0 21 -5 0 -10 -7 -10 -15 0 -19 -14 -19 -30 0 -8 10 -20 13
-34 9 -19 -6 -19 -5 -7 10 13 15 16 15 37 1 13 -9 24 -12 24 -7 0 4 -14 16
-31 26 -23 14 -34 15 -42 7 -9 -9 -7 -11 8 -6 17 6 16 3 -5 -15 -14 -13 -24
-27 -23 -31 2 -5 -3 -9 -10 -9 -8 0 -7 -4 3 -10 13 -8 12 -10 -2 -10 -10 0
-18 -5 -18 -11 0 -5 4 -8 9 -4 5 3 12 1 16 -4 3 -6 -4 -8 -15 -6 -14 3 -18 0
-14 -8 5 -9 4 -9 -5 -1 -9 9 -7 20 11 50 12 21 26 42 31 45 5 3 9 10 9 15 -1
5 6 24 15 42 11 24 21 32 37 30 11 -2 22 1 23 6 1 5 14 17 30 27 15 10 24 19
20 19 -16 0 -57 -32 -51 -41 3 -5 2 -9 -3 -9 -17 0 -34 17 -38 39 -3 19 -2 21
10 11 8 -7 12 -17 8 -23 -3 -6 -1 -7 5 -3 6 4 10 20 8 36 -2 16 0 28 4 25 4
-2 16 13 26 35 10 22 23 40 27 40 5 0 6 4 2 9 -3 6 3 15 12 21 16 11 16 11 -2
6 -18 -5 -18 -5 -4 6 22 18 58 87 38 73 -8 -5 -6 -2 5 8 17 15 18 22 8 38 -7
11 -8 19 -2 19 5 0 10 -5 10 -11 0 -8 4 -8 14 1 8 6 12 18 9 26 -3 8 -1 14 5
14 6 0 21 23 33 50 12 28 26 50 31 50 4 0 8 7 8 16 0 9 8 28 18 42 34 51 72
129 65 136 -3 3 0 6 7 6 11 0 11 3 2 12 -7 7 -12 17 -12 23 0 5 4 4 9 -4 12
-19 34 -3 28 20 -3 11 -1 17 3 14 12 -7 29 26 22 44 -3 8 0 11 7 7 10 -6 13 0
10 20 0 4 3 10 8 13 5 3 18 23 30 43 17 29 19 39 9 47 -7 6 -17 7 -21 3 -5 -4
-5 -1 0 6 5 10 10 11 18 3 13 -13 30 -15 23 -2 -4 5 -2 11 3 13 4 1 12 14 16
27 5 18 4 22 -6 16 -8 -5 -11 -4 -6 1 5 5 14 9 20 9 7 1 11 6 10 13 -2 7 1 12
5 12 4 0 25 35 47 78 22 42 44 80 50 84 5 4 7 9 4 12 -3 3 -11 0 -17 -6z
m-172 -288 c6 -11 8 -20 6 -20 -3 0 -10 9 -16 20 -6 11 -8 20 -6 20 3 0 10 -9
16 -20z m-49 -53 c-10 -9 -11 -8 -5 6 3 10 9 15 12 12 3 -3 0 -11 -7 -18z m18
-33 c14 -12 -19 -1 -35 12 -18 14 -18 14 6 3 14 -6 27 -13 29 -15z m-54 -24
c-3 -5 -12 -10 -18 -10 -7 0 -6 4 3 10 19 12 23 12 15 0z m30 -20 c3 -6 -1 -7
-9 -4 -18 7 -21 14 -7 14 6 0 13 -4 16 -10z m-27 -25 c-3 -3 -9 2 -12 12 -6
14 -5 15 5 6 7 -7 10 -15 7 -18z m-18 -11 c0 -8 -19 -13 -24 -6 -3 5 1 9 9 9
8 0 15 -2 15 -3z m-17 -45 c-8 -8 -13 -7 -18 2 -5 8 -4 10 3 5 7 -4 12 -2 12
5 0 7 3 9 7 6 4 -4 2 -12 -4 -18z m-28 -8 c3 -5 0 -13 -6 -17 -7 -4 -9 -3 -5
4 3 5 0 13 -6 15 -9 4 -10 6 -1 6 6 1 14 -3 18 -8z m32 -33 c-3 -8 -6 -5 -6 6
-1 11 2 17 5 13 3 -3 4 -12 1 -19z m-22 2 c-3 -5 -12 -10 -18 -10 -7 0 -6 4 3
10 19 12 23 12 15 0z m-25 -20 c8 -5 11 -10 5 -10 -5 0 -17 5 -25 10 -8 5 -10
10 -5 10 6 0 17 -5 25 -10z m30 -15 c-7 -8 -17 -15 -23 -15 -6 0 -2 7 9 15 25
19 30 19 14 0z m-57 -2 c-7 -2 -13 -9 -13 -14 0 -6 5 -7 12 -3 7 5 8 3 3 -5
-5 -9 -11 -9 -17 -3 -12 12 -2 32 15 31 9 0 9 -2 0 -6z m7 -69 c0 -2 -11 2
-25 8 -14 6 -25 15 -25 20 0 5 11 1 25 -8 14 -9 25 -18 25 -20z m30 20 c0 -2
-7 -4 -15 -4 -8 0 -15 4 -15 10 0 5 7 7 15 4 8 -4 15 -8 15 -10z m-93 -19 c0
-8 -4 -12 -9 -9 -4 3 -8 9 -8 15 0 5 4 9 8 9 5 0 9 -7 9 -15z m-22 -15 c3 -5
1 -10 -4 -10 -6 0 -11 5 -11 10 0 6 2 10 4 10 3 0 8 -4 11 -10z m74 -13 c0 -9
-2 -8 -6 1 -2 6 -10 9 -15 6 -7 -4 -8 -2 -4 5 9 13 26 5 25 -12z m-95 -5 c3
-5 -1 -9 -9 -9 -8 0 -12 4 -9 9 3 4 7 8 9 8 2 0 6 -4 9 -8z m43 -6 c0 -8 -6
-12 -15 -9 -11 5 -11 7 0 14 7 5 13 9 14 9 0 0 1 -6 1 -14z m34 -11 c5 4 6 -1
2 -10 -5 -13 -7 -14 -14 -3 -5 7 -8 18 -8 23 0 6 3 4 6 -3 2 -6 9 -10 14 -7z
m-76 -14 c3 -5 2 -12 -3 -15 -5 -3 -9 1 -9 9 0 17 3 19 12 6z m-35 -25 c0 -3
-4 -8 -10 -11 -5 -3 -10 -1 -10 4 0 6 5 11 10 11 6 0 10 -2 10 -4z m50 -6 c-8
-5 -19 -10 -25 -10 -5 0 -3 5 5 10 8 5 20 10 25 10 6 0 3 -5 -5 -10z m-76 -16
c3 -8 2 -12 -4 -9 -6 3 -10 10 -10 16 0 14 7 11 14 -7z m41 -15 c-4 -5 -12 -9
-18 -8 -9 0 -8 2 1 6 6 2 9 10 6 15 -4 7 -2 8 5 4 6 -4 9 -12 6 -17z m72 15
c-3 -3 -12 -4 -19 -1 -8 3 -5 6 6 6 11 1 17 -2 13 -5z m-43 -28 c-3 -9 -10
-16 -15 -16 -5 0 -4 9 3 20 14 22 21 20 12 -4z m-69 -4 c-3 -3 -11 0 -18 7 -9
10 -8 11 6 5 10 -3 15 -9 12 -12z m45 -32 c0 -5 -4 -10 -10 -10 -5 0 -10 5
-10 10 0 6 5 10 10 10 6 0 10 -4 10 -10z m-57 -16 c-7 -3 -9 -12 -6 -20 3 -8
1 -14 -5 -14 -8 0 -9 16 -3 38 1 1 7 2 14 1 9 0 9 -2 0 -5z m52 -34 c4 -6 -1
-7 -11 -3 -10 4 -15 2 -11 -4 3 -5 0 -10 -8 -10 -11 0 -12 4 -4 14 14 15 26
17 34 3z m-1263 -57 c-15 -13 -31 -23 -36 -23 -5 0 -3 -6 3 -13 10 -13 6 -27
-9 -27 -16 0 -5 37 18 63 14 15 22 27 16 27 -5 0 -2 4 6 10 28 17 29 -13 2
-37z m118 23 c8 2 24 6 36 9 15 5 21 2 21 -9 0 -9 -4 -16 -8 -16 -4 0 -7 -15
-8 -32 -1 -77 -4 -83 -39 -84 -19 0 -31 4 -28 10 4 12 10 12 40 0 16 -6 18 -4
13 10 -4 10 -3 25 2 35 5 9 7 22 3 28 -9 15 -44 -9 -40 -27 2 -7 -2 -14 -8
-17 -6 -2 -10 9 -9 29 1 17 7 34 15 36 8 3 10 0 5 -7 -5 -9 -1 -9 14 1 11 7
23 19 26 27 5 11 1 11 -13 -2 -10 -9 -22 -14 -25 -11 -4 4 -13 2 -20 -4 -8 -7
-17 -9 -20 -5 -4 3 -16 -2 -27 -12 -15 -14 -17 -20 -8 -26 7 -4 9 -11 5 -15
-4 -4 -12 -3 -18 3 -9 9 -19 6 -40 -9 -15 -12 -26 -24 -24 -28 3 -4 -3 -14
-12 -21 -14 -12 -15 -11 -9 11 5 16 4 20 -2 12 -6 -9 -9 -3 -9 18 0 16 4 30 9
30 5 0 7 -4 3 -9 -13 -21 17 -20 47 1 44 31 67 59 68 82 0 17 2 17 23 4 12 -8
29 -14 37 -12z m1100 -10 c0 -2 -8 -10 -17 -17 -16 -13 -17 -12 -4 4 13 16 21
21 21 13z m-937 -35 c-4 -3 -9 -15 -11 -26 -2 -14 0 -16 6 -7 7 10 11 10 22
-3 11 -13 9 -15 -11 -12 -20 3 -24 11 -27 42 -2 34 -1 36 13 25 9 -7 12 -16 8
-19z m828 12 c13 -16 12 -17 -3 -4 -10 7 -18 15 -18 17 0 8 8 3 21 -13z m33
-13 c-6 -6 -10 -3 -10 10 0 13 4 16 10 10 7 -7 7 -13 0 -20z m-1056 -11 c3
-11 2 -11 -7 1 -7 9 -11 10 -11 3 0 -6 5 -15 11 -18 6 -5 4 -12 -8 -21 -16
-13 -16 -14 0 -8 20 7 23 -6 5 -24 -9 -9 -9 -12 0 -13 7 -1 21 -3 32 -4 11 -1
25 -3 30 -4 13 -1 13 -31 0 -31 -5 0 -7 -7 -4 -15 4 -8 -1 -17 -10 -21 -9 -3
-13 -10 -10 -15 3 -5 11 -6 17 -2 8 5 8 2 0 -9 -7 -8 -9 -19 -5 -23 4 -5 2 -6
-3 -2 -6 3 -17 -4 -24 -15 -11 -18 -11 -20 2 -15 13 5 14 2 8 -16 -5 -12 -14
-22 -21 -22 -7 0 -15 -5 -17 -12 -3 -8 3 -11 17 -8 11 2 18 0 15 -6 -4 -5 -11
-7 -16 -4 -5 4 -9 1 -9 -4 0 -6 6 -11 13 -12 9 0 9 -2 -1 -6 -6 -2 -10 -9 -6
-14 3 -5 0 -9 -6 -9 -7 0 -10 6 -7 14 7 17 -21 58 -34 51 -13 -9 -11 -25 4
-22 7 1 11 -7 10 -20 -1 -11 4 -27 12 -33 8 -7 15 -17 15 -23 0 -5 -9 1 -21
14 -17 20 -22 21 -30 9 -8 -12 -9 -11 -7 4 2 10 -2 21 -9 23 -8 3 -10 -7 -8
-29 2 -18 1 -25 -1 -15 -3 9 -10 15 -15 12 -5 -4 -5 -15 2 -28 7 -16 4 -14
-11 6 -12 15 -26 24 -31 21 -6 -3 -2 -12 8 -21 17 -13 17 -14 -2 -6 -11 5 -27
8 -35 7 -8 -1 -20 -2 -26 -3 -6 0 -16 -11 -23 -23 -9 -18 -10 -18 -5 -3 3 11
6 27 5 35 -1 8 -1 23 -2 33 0 15 -3 16 -14 7 -11 -9 -12 -17 -4 -32 7 -14 8
-23 1 -30 -6 -6 -8 -18 -5 -27 4 -14 3 -14 -6 -1 -6 9 -7 18 -1 24 19 19 10
29 -10 11 -15 -14 -17 -21 -9 -32 9 -9 9 -13 0 -13 -11 0 -15 13 -11 39 1 12
-1 13 -14 2 -8 -7 -12 -19 -9 -27 3 -8 0 -14 -6 -14 -6 0 -10 3 -10 8 3 17 -2
32 -10 32 -5 0 -8 -11 -8 -25 0 -16 5 -25 16 -25 13 0 14 -2 2 -9 -10 -7 -19
-4 -27 6 -14 20 -48 27 -41 8 4 -9 -1 -11 -14 -8 -11 3 -19 0 -19 -6 0 -7 4
-10 8 -7 4 2 9 -7 10 -22 l1 -27 -15 28 c-8 15 -12 32 -9 37 8 12 -5 13 -24 1
-9 -6 -10 -11 -2 -15 12 -8 45 -66 37 -66 -3 0 -12 12 -20 27 -11 21 -22 28
-50 29 -30 2 -35 0 -26 -11 6 -8 19 -11 28 -8 10 3 8 -1 -6 -11 -12 -10 -27
-14 -32 -11 -6 3 -10 2 -10 -3 0 -18 14 -22 36 -7 20 13 23 12 28 -1 7 -19 -1
-34 -17 -34 -7 0 -6 4 3 10 21 13 5 24 -17 11 -10 -6 -14 -11 -9 -11 6 0 1 -6
-10 -14 -15 -12 -17 -17 -6 -27 14 -15 16 -45 2 -54 -6 -3 -7 1 -4 10 7 18
-14 65 -28 65 -5 0 -6 -4 -3 -10 3 -5 1 -10 -5 -10 -7 0 -10 6 -7 13 2 6 12
12 22 12 10 0 20 5 22 12 6 16 -36 8 -56 -11 -12 -12 -12 -18 -1 -30 10 -13
10 -16 0 -16 -8 0 -10 -3 -7 -7 4 -3 -2 -13 -13 -20 -11 -8 -18 -18 -15 -23 3
-5 -4 -15 -15 -23 -11 -7 -17 -18 -12 -23 4 -4 -1 -2 -11 5 -26 21 -32 6 -8
-20 23 -25 27 -39 10 -39 -5 0 -8 4 -5 9 11 18 -28 36 -79 36 -50 0 -52 0 -52
-28 0 -28 1 -29 16 -9 20 24 92 26 98 2 4 -13 3 -13 -6 0 -8 12 -14 10 -32
-14 -19 -24 -23 -26 -31 -12 -5 9 -6 21 -3 26 3 6 2 10 -3 10 -24 0 -20 -33 7
-61 16 -16 26 -29 22 -29 -4 0 -12 5 -19 12 -6 6 -15 8 -19 3 -5 -4 -2 -10 4
-12 7 -3 23 -13 35 -24 23 -19 23 -19 -12 -1 -26 15 -34 25 -32 42 2 19 0 21
-13 10 -9 -7 -14 -19 -11 -26 3 -7 -1 -15 -8 -17 -9 -4 -12 -18 -11 -39 2 -18
1 -27 -2 -19 -4 11 -7 11 -13 1 -6 -10 -12 -10 -25 3 -23 24 -33 21 -29 -9 1
-14 0 -23 -3 -20 -4 3 -13 0 -22 -7 -14 -11 -14 -10 -2 6 12 16 11 17 -10 14
-15 -3 -26 -13 -30 -28 -5 -17 -7 -19 -8 -6 -1 10 -6 15 -11 12 -6 -4 -7 -11
-4 -17 4 -7 2 -8 -4 -4 -7 4 -12 2 -12 -4 0 -7 -8 -9 -21 -5 -16 6 -20 4 -13
-6 6 -12 5 -12 -9 0 -15 12 -17 11 -17 -4 0 -11 -5 -15 -15 -11 -8 3 -18 -1
-22 -9 -5 -7 -20 -16 -35 -19 -14 -2 -35 -9 -45 -14 -11 -6 -25 -7 -33 -2 -8
5 -17 7 -21 4 -4 -2 -10 0 -14 6 -3 5 -2 10 4 10 5 0 17 3 27 7 11 4 15 3 10
-5 -3 -6 -1 -14 5 -18 7 -4 9 -3 6 3 -4 6 0 14 9 17 10 4 13 2 9 -7 -4 -6 0
-4 8 5 11 14 16 15 27 5 10 -10 11 -9 5 2 -6 11 -4 13 8 8 9 -3 19 -1 23 5 5
7 2 8 -6 3 -9 -6 -11 -4 -5 5 5 9 4 11 -3 6 -7 -4 -12 -5 -12 -2 0 3 9 10 20
16 15 8 18 8 14 -3 -3 -8 2 -14 10 -14 11 0 13 5 5 19 -9 17 -5 22 14 19 5 -1
5 4 1 10 -5 8 -3 9 7 4 11 -7 11 -5 -1 10 -13 17 -13 18 0 10 13 -8 13 -7 0
10 -11 14 -11 17 -1 11 9 -6 8 -1 -3 17 -15 22 -15 25 -2 30 9 4 18 2 21 -3 3
-4 -1 -10 -7 -13 -9 -3 -7 -10 6 -23 20 -19 20 -19 5 1 -13 18 -12 19 2 7 15
-11 16 -9 14 18 -1 17 -10 39 -19 49 -9 10 -16 21 -16 26 0 5 7 0 16 -11 8
-10 13 -14 10 -8 -4 8 5 11 24 9 17 -1 30 2 30 7 0 6 -8 7 -17 4 -11 -4 -8 2
7 13 25 20 25 20 5 35 -11 9 -15 16 -10 16 6 0 17 -6 24 -12 11 -11 12 -10 6
1 -6 10 -4 12 5 6 8 -5 18 -1 27 11 16 21 21 22 35 2 7 -10 8 -8 4 5 -3 10 -2
16 2 13 4 -2 9 5 9 17 2 21 1 21 -18 -3 -14 -17 -19 -19 -15 -7 3 10 2 16 -2
13 -5 -3 -8 7 -8 22 1 26 46 85 46 60 0 -9 4 -8 10 2 8 12 10 12 10 1 0 -20
10 -8 15 18 2 13 0 19 -6 15 -6 -3 -5 3 2 14 9 14 17 18 25 12 6 -6 14 -7 18
-3 4 4 4 -1 1 -12 -6 -16 -5 -17 3 -5 8 10 8 18 1 27 -8 9 -6 11 10 8 15 -3
19 0 15 8 -5 8 -3 8 7 0 18 -18 32 -16 25 3 -4 10 -2 13 6 8 7 -5 8 -3 3 6 -6
9 -4 11 6 5 12 -7 11 -5 -1 11 -11 15 -11 16 0 7 17 -16 30 -17 30 -2 0 5 -4
8 -9 4 -5 -3 -13 0 -17 6 -5 8 -3 9 7 4 12 -7 12 -6 0 6 -10 11 -15 11 -18 2
-3 -7 -9 -13 -14 -13 -5 0 -4 9 3 19 7 11 17 17 23 13 5 -3 16 -7 23 -8 11 -2
11 1 0 14 -12 16 -11 16 6 2 11 -8 17 -10 13 -4 -3 6 0 11 8 11 8 0 11 -5 8
-10 -3 -6 -1 -7 5 -3 9 5 8 13 -3 30 -14 21 -14 24 -1 29 9 4 18 2 21 -3 3 -4
-1 -10 -7 -13 -10 -3 -10 -8 1 -18 8 -9 11 -9 7 -2 -5 9 -2 11 8 7 9 -3 16
-11 16 -17 0 -15 13 1 16 19 2 11 -4 13 -19 9 -17 -5 -19 -4 -7 4 11 8 12 11
2 11 -7 0 -10 5 -7 10 5 8 11 7 21 -1 13 -10 18 -6 15 14 0 4 2 7 6 8 38 4 71
19 42 19 -8 0 -4 6 9 16 12 8 22 23 22 32 0 15 2 15 10 2 7 -11 10 -11 10 -2
0 7 5 10 11 6 8 -4 3 -12 -12 -21 -13 -8 -16 -12 -7 -9 12 3 15 1 11 -10 -6
-17 8 -18 27 -1 11 9 11 8 0 -8 -14 -18 -13 -19 1 -8 9 7 20 10 25 6 5 -4 3
-1 -3 7 -15 16 -17 34 -5 26 5 -3 8 8 7 23 -1 22 2 28 13 23 11 -4 14 -1 9 11
-9 24 0 21 14 -4 9 -17 8 -20 -2 -14 -8 5 -10 4 -5 -3 4 -7 16 -17 28 -23 16
-9 19 -8 13 2 -6 8 -4 10 5 4 9 -6 11 -4 5 5 -6 9 -4 11 6 5 11 -6 12 -5 2 6
-18 18 -16 32 3 25 10 -4 13 -2 8 6 -5 7 -3 8 7 2 22 -13 40 -14 32 -1 -4 7 2
5 12 -3 10 -8 16 -10 13 -5 -4 6 0 19 8 30 9 12 14 14 14 5 0 -9 5 -7 15 6 15
19 15 19 9 -1 l-7 -20 16 20 c9 11 17 16 17 10 0 -5 4 -4 9 4 8 12 12 13 26 1
9 -7 15 -9 14 -4 -3 20 2 34 12 34 8 0 7 -6 -2 -17 -13 -17 -13 -17 5 -3 18
13 19 13 12 0 -4 -8 0 -6 10 5 11 14 15 15 11 4 -3 -9 0 -16 8 -16 7 0 11 6 8
14 -7 19 12 16 28 -4 13 -16 12 -17 -3 -4 -26 19 -22 8 4 -15 12 -10 18 -14
15 -7 -5 7 1 10 18 9 14 -2 22 1 18 7 -3 6 -1 7 5 3 7 -4 10 1 7 14 -2 11 0
18 4 16 4 -3 8 1 8 8 0 10 -9 13 -26 10 -17 -3 -22 -2 -13 4 11 7 10 10 -3 15
-9 4 -13 3 -10 -2 3 -5 1 -12 -5 -16 -5 -3 -10 -1 -10 5 0 7 -8 9 -21 5 -14
-5 -19 -3 -15 3 3 6 2 13 -4 17 -6 4 -8 11 -5 16 4 5 1 9 -4 9 -12 0 -15 -26
-3 -33 4 -2 2 -2 -5 -1 -19 5 -26 -15 -13 -31 14 -16 3 -20 -18 -6 -17 10 -15
21 5 44 9 9 13 17 8 17 -4 0 3 9 16 19 17 13 28 16 36 9 16 -13 36 0 29 19 -3
8 -3 19 0 24 8 13 27 6 32 -12z m238 -7 c1 -12 -2 -22 -6 -22 -14 0 -32 29
-25 40 11 17 30 6 31 -18z m111 13 c-2 -5 -10 -10 -17 -10 -7 0 -15 5 -17 10
-2 6 6 11 17 11 11 0 19 -5 17 -11z m246 -60 c12 -3 34 -19 49 -36 27 -32 28
-32 48 -14 17 15 22 16 36 4 10 -8 26 -14 37 -14 11 0 22 -6 24 -13 3 -7 -1
-10 -9 -7 -7 3 -22 -1 -33 -9 -20 -15 -20 -15 0 -30 11 -8 22 -10 25 -6 3 5
11 5 18 1 9 -5 5 -11 -14 -20 -15 -6 -24 -14 -21 -17 3 -3 -9 -18 -26 -34 -29
-25 -34 -27 -48 -14 -11 10 -19 12 -22 4 -4 -7 -5 -7 -3 1 1 6 5 10 10 9 18
-3 26 25 11 36 -14 10 -14 12 0 18 9 3 14 2 11 -3 -3 -5 1 -12 10 -15 13 -5
14 -9 5 -20 -9 -11 -9 -16 0 -22 8 -5 9 -3 4 6 -5 8 -4 11 3 6 7 -4 9 1 7 15
-4 17 -2 19 10 9 8 -7 15 -9 16 -4 0 5 2 17 4 27 2 9 -1 15 -6 11 -5 -3 -7
-10 -4 -15 4 -5 2 -9 -4 -9 -15 0 -23 18 -11 25 6 4 8 11 4 16 -3 5 -9 7 -14
4 -4 -3 -7 6 -6 20 1 28 16 35 16 8 0 -15 2 -16 10 -3 13 20 -14 34 -40 20
-14 -8 -26 -8 -41 1 -15 8 -24 8 -32 0 -14 -14 -37 -14 -37 0 0 5 5 7 10 4 6
-3 13 1 16 9 3 9 10 13 15 10 5 -3 6 2 2 11 -4 11 -8 13 -13 6 -4 -8 -15 -5
-33 9 -18 15 -28 17 -33 9 -5 -8 -3 -9 6 -4 8 5 11 3 8 -5 -2 -7 -14 -15 -27
-17 l-22 -3 19 27 20 28 -26 19 c-24 19 -25 19 -38 1 -8 -11 -14 -15 -14 -11
0 4 -5 4 -10 1 -7 -4 -7 -13 0 -24 6 -12 5 -22 -2 -29 -16 -16 -33 -15 -20 1
13 15 -1 42 -17 33 -6 -4 -11 -3 -11 2 0 13 26 33 33 26 3 -4 18 4 34 16 l28
22 33 -37 c19 -20 43 -38 55 -40z m524 26 c0 -10 -7 -18 -14 -18 -9 0 -10 4
-2 14 9 10 8 18 -2 31 -13 15 -12 16 3 4 9 -7 16 -21 15 -31z m-1067 9 c-6
-11 -8 -25 -5 -30 3 -6 -1 -7 -9 -4 -9 3 -13 11 -9 18 4 6 8 14 9 19 3 15 4
17 14 17 7 0 7 -7 0 -20z m266 -8 c-12 -3 -15 -7 -7 -11 8 -5 7 -13 -4 -27
-11 -14 -14 -15 -9 -3 3 10 1 20 -5 24 -7 4 -8 -1 -4 -12 6 -15 4 -16 -9 -6
-8 7 -17 12 -19 10 -2 -1 -3 0 -2 2 8 13 60 37 68 32 6 -3 1 -7 -9 -9z m63 2
c6 4 15 -2 20 -13 14 -25 14 -41 1 -21 -8 13 -10 13 -10 0 0 -9 -5 -7 -16 8
-12 18 -19 21 -30 11 -7 -6 -12 -15 -9 -19 3 -4 -1 -10 -9 -13 -8 -3 -13 -14
-12 -24 2 -10 -1 -21 -6 -24 -5 -3 -2 -9 7 -12 10 -5 14 -3 9 5 -5 7 -3 8 6 3
9 -6 11 -4 5 4 -6 10 -3 11 15 1 12 -7 20 -8 16 -2 -3 5 1 15 9 22 18 15 19 7
4 -22 -8 -16 -8 -19 1 -13 7 4 16 2 20 -5 5 -8 9 -7 13 5 4 9 3 14 -1 11 -5
-3 -9 0 -9 7 0 7 -4 21 -9 31 -5 14 -4 17 4 12 7 -4 15 -1 18 8 3 9 11 13 16
10 6 -4 5 -10 -3 -15 -11 -8 -9 -13 10 -29 12 -11 28 -17 34 -13 6 4 8 0 4
-11 -4 -9 -3 -15 2 -12 17 11 20 -23 3 -36 -10 -8 -13 -9 -9 -1 10 16 -22 53
-39 46 -8 -3 -11 -9 -8 -14 3 -5 0 -10 -5 -10 -6 -1 -17 -2 -23 -3 -7 -1 -21
4 -30 12 -16 13 -43 8 -34 -7 3 -4 -6 -7 -19 -7 -14 0 -21 5 -18 12 3 7 -5 19
-16 26 -12 7 -21 16 -21 21 0 4 5 5 12 1 6 -4 8 -3 5 4 -4 5 -15 9 -25 7 -9
-2 -20 -4 -24 -4 -5 -1 -7 -5 -5 -10 2 -9 -2 -11 -29 -11 -9 0 -14 7 -12 18 1
9 -1 23 -5 30 -5 7 -4 12 2 12 6 0 13 0 16 0 3 0 5 -3 4 -7 -2 -14 32 -23 50
-13 16 8 22 7 30 -9 6 -10 9 -20 8 -22 -1 -2 6 5 15 16 10 11 23 32 29 48 9
21 15 25 25 16 7 -6 18 -8 23 -5z m141 1 c10 -12 9 -20 -3 -39 -12 -18 -13
-26 -4 -35 9 -9 9 -14 1 -19 -9 -5 -8 -11 2 -20 10 -9 14 -9 14 -1 0 8 4 8 15
-1 8 -7 15 -10 15 -6 0 3 0 8 0 11 0 3 -3 5 -7 4 -9 -1 -26 32 -19 38 3 4 6 0
6 -7 0 -10 4 -8 13 4 13 17 47 13 47 -6 0 -5 -4 -7 -9 -3 -19 11 -24 -18 -6
-32 22 -15 39 -17 30 -4 -3 5 -1 12 4 15 14 9 42 -4 35 -16 -4 -6 2 -5 14 1
29 15 32 14 29 -11 -1 -16 3 -22 13 -20 12 3 13 1 3 -9 -11 -10 -16 -9 -26 6
-8 10 -19 15 -26 11 -8 -5 -14 0 -18 13 -6 24 -20 28 -20 6 0 -8 4 -15 9 -15
5 0 3 -6 -4 -14 -14 -15 -23 -12 -23 7 0 14 -37 18 -55 7 -9 -5 -9 -9 -1 -14
6 -4 11 -2 11 4 0 6 13 2 29 -10 19 -13 32 -17 36 -10 4 6 11 7 17 4 6 -4 8
-3 5 2 -3 6 3 11 14 11 10 1 19 -2 19 -6 0 -8 -12 -13 -55 -26 -5 -2 -17 -6
-25 -9 -10 -4 -32 9 -62 39 -35 34 -45 50 -41 67 3 13 1 19 -4 13 -9 -12 -28
-13 -37 -4 -4 3 0 12 9 19 10 8 12 17 5 29 -7 14 -5 18 8 18 9 0 24 -5 32 -11
8 -6 6 -1 -4 12 -11 12 -14 22 -9 22 6 0 16 -7 23 -15z m525 6 c-9 -8 -36 -10
-30 -2 2 4 11 8 20 8 8 0 13 -3 10 -6z m32 -6 c0 -8 -4 -12 -9 -9 -5 3 -6 10
-3 15 9 13 12 11 12 -6z m-1255 -30 c0 -5 -6 -11 -13 -14 -7 -2 -9 1 -5 8 5 7
1 9 -11 5 -15 -5 -16 -4 -3 5 17 12 32 10 32 -4z m418 0 c0 -8 -4 -15 -10 -15
-5 0 -10 7 -10 15 0 8 5 15 10 15 6 0 10 -7 10 -15z m130 -6 c8 -15 8 -24 0
-34 -13 -16 -50 -16 -47 0 4 21 37 34 37 14 0 -5 -5 -7 -12 -3 -7 5 -8 3 -3
-5 5 -10 10 -10 19 -1 8 8 7 15 -6 24 -10 7 -15 16 -11 19 9 10 11 9 23 -14z
m-698 -49 c5 0 7 4 3 9 -7 13 38 10 47 -3 4 -6 13 -5 23 4 10 8 12 16 6 20 -6
3 11 6 38 6 36 0 52 -5 60 -18 9 -14 8 -18 -1 -18 -9 0 -8 -3 2 -10 11 -7 11
-10 2 -10 -7 0 -11 -4 -8 -8 2 -4 -3 -8 -12 -9 -16 -1 -50 -9 -62 -13 -3 -1
-8 -2 -12 -1 -4 0 -12 -8 -18 -19 -6 -11 -15 -18 -20 -15 -5 3 -11 1 -15 -5
-4 -6 -12 -7 -18 -3 -28 18 -44 13 -43 -14 1 -16 -5 -28 -14 -30 -13 -4 -13
-3 0 6 8 6 10 11 5 11 -18 0 -37 40 -26 54 11 13 9 41 -4 53 -4 4 -6 3 -2 -2
8 -15 -8 -38 -27 -41 -22 -3 -20 12 5 37 24 24 44 20 45 -10 1 -12 4 -24 7
-28 4 -3 -1 -12 -11 -20 -15 -13 -15 -13 5 -3 12 5 20 16 17 23 -3 8 4 13 17
14 17 2 18 -1 8 -13 -6 -8 -9 -17 -5 -21 3 -3 6 0 6 8 0 12 2 11 11 -1 9 -13
10 -12 5 2 -3 10 -1 20 4 23 9 6 14 -8 11 -28 -1 -5 3 -6 9 -2 6 3 7 11 4 17
-4 7 -2 8 5 4 22 -14 47 31 28 51 -5 4 -8 4 -7 -2 1 -5 2 -16 1 -24 -1 -16
-16 -5 -16 12 -1 7 -7 11 -14 9 -7 -1 -10 2 -5 9 4 8 3 9 -5 5 -6 -4 -8 -12
-5 -18 5 -8 1 -9 -11 -5 -9 4 -24 2 -32 -4 -12 -10 -13 -8 -9 15 4 22 2 25 -8
17 -7 -6 -16 -8 -19 -4 -4 3 1 12 11 20 9 7 13 13 7 12 -22 -3 -29 2 -15 11
12 7 18 3 29 -20 8 -17 19 -30 23 -30z m-106 -5 c-2 -13 -9 -31 -16 -40 -9
-10 -9 -15 -1 -16 6 -1 17 -2 24 -3 6 -1 19 2 27 8 9 6 7 2 -3 -11 -11 -12
-16 -27 -12 -33 3 -6 1 -9 -6 -8 -12 3 -15 -2 -18 -35 0 -7 -8 -22 -17 -33
-15 -19 -15 -19 -5 1 6 12 6 26 0 37 -7 13 -6 17 3 14 7 -1 10 -1 6 1 -5 3 -8
9 -8 14 0 6 6 7 13 3 7 -5 6 0 -3 11 -14 17 -13 18 2 12 10 -3 20 -1 24 5 4 7
3 8 -4 4 -7 -4 -23 5 -37 20 -21 23 -22 28 -10 41 8 8 15 19 15 24 0 5 6 9 14
9 9 0 13 -9 12 -25z m362 10 c13 1 25 -2 27 -6 3 -4 16 -6 29 -5 16 2 23 -2
22 -11 -4 -28 -30 -33 -53 -11 -13 12 -26 18 -30 15 -8 -9 -33 12 -33 27 0 8
2 8 8 0 4 -6 17 -10 30 -9z m-393 -96 c-5 -24 -20 -51 -28 -50 -20 3 -28 0
-22 -9 3 -5 -3 -17 -14 -27 -11 -9 -17 -21 -14 -27 3 -6 3 -8 -2 -4 -12 11
-47 -11 -38 -25 5 -9 3 -9 -9 0 -8 7 -18 10 -22 6 -6 -7 -29 -13 -53 -15 -7
-1 -13 -5 -13 -10 0 -4 -5 -8 -11 -8 -5 0 -7 4 -4 10 4 6 -1 7 -12 4 -15 -5
-15 -4 -3 5 8 5 11 13 7 18 -5 4 -12 1 -17 -7 -7 -12 -12 -12 -22 -2 -9 9 -8
12 8 14 20 1 36 4 44 8 3 1 15 4 28 5 17 2 22 -2 17 -13 -5 -13 -3 -13 13 1
10 9 22 14 27 10 4 -5 5 -2 0 6 -5 9 -4 12 3 7 7 -4 12 -1 12 6 0 11 2 10 9 0
7 -11 9 -11 14 2 3 8 2 18 -3 21 -6 4 -10 12 -10 18 0 7 8 2 18 -10 15 -19 19
-20 30 -7 10 11 10 14 0 14 -9 0 -9 3 2 10 8 5 10 10 5 10 -6 0 -16 -5 -23
-12 -9 -9 -12 -9 -12 -1 0 7 5 15 10 18 6 3 10 12 10 18 0 9 -3 8 -8 -1 -6 -8
-9 -2 -9 17 0 17 6 32 12 35 6 2 12 -2 12 -10 0 -7 -5 -11 -11 -8 -6 3 -4 0 5
-8 9 -7 14 -20 12 -28 -4 -13 -3 -13 6 0 10 13 15 8 12 -12 0 -4 6 -5 15 -1
12 5 12 8 -6 20 -11 8 -20 19 -20 25 0 6 10 3 22 -8 12 -10 18 -13 14 -6 -4 6
-2 12 4 12 6 0 8 5 4 12 -6 9 -9 9 -12 0 -3 -10 -7 -10 -18 -1 -8 6 -14 16
-14 21 0 6 7 5 15 -2 24 -20 18 -5 -7 16 -12 10 -18 14 -15 8 4 -7 0 -15 -9
-18 -25 -10 -26 -7 -7 19 l18 25 32 -36 c18 -21 30 -44 28 -55z m182 74 c-4
-3 -2 -12 5 -20 8 -11 7 -12 -6 -7 -9 3 -16 9 -16 13 0 9 11 21 18 21 3 0 2
-3 -1 -7z m1157 -14 c-3 -5 -10 -7 -15 -3 -5 3 -7 10 -3 15 3 5 10 7 15 3 5
-3 7 -10 3 -15z m39 6 c-3 -9 -8 -14 -10 -11 -3 3 -2 9 2 15 9 16 15 13 8 -4z
m-1229 -3 c2 -4 -4 -8 -14 -8 -10 0 -16 4 -14 8 3 4 9 8 14 8 5 0 11 -4 14 -8z
m1216 -56 c0 -3 -4 -8 -10 -11 -5 -3 -10 -1 -10 4 0 6 5 11 10 11 6 0 10 -2
10 -4z m-1473 -20 c4 -5 1 -7 -8 -4 -9 4 -22 2 -30 -3 -12 -7 -12 -9 1 -10 8
-1 24 0 35 1 20 2 20 1 0 -13 -17 -13 -18 -17 -5 -33 8 -11 10 -16 5 -11 -4 4
-18 1 -30 -7 -25 -16 -46 -16 -67 2 -8 6 -17 10 -19 7 -3 -2 -5 4 -6 15 -1 10
4 24 11 30 15 12 49 3 40 -11 -3 -5 -10 -7 -15 -4 -5 4 -14 3 -20 -1 -8 -4 -7
-9 2 -15 8 -4 19 -3 26 3 16 13 17 -4 2 -19 -9 -9 -7 -11 5 -9 9 1 23 12 31
23 14 20 13 22 -4 28 -11 3 -19 11 -17 18 1 7 1 9 -1 5 -3 -5 -9 -8 -15 -8 -7
0 -6 5 1 14 13 15 65 16 78 2z m1423 0 c0 -2 -8 -10 -17 -17 -16 -13 -17 -12
-4 4 13 16 21 21 21 13z m46 -28 c3 -4 -1 -5 -10 -4 -8 1 -18 5 -22 8 -3 4 1
5 10 4 8 -1 18 -5 22 -8z m-1516 -18 c0 -5 -2 -10 -4 -10 -3 0 -8 5 -11 10 -3
6 -1 10 4 10 6 0 11 -4 11 -10z m1630 4 c0 -8 -19 -13 -24 -6 -3 5 1 9 9 9 8
0 15 -2 15 -3z m-193 -29 c0 -8 -4 -12 -9 -9 -5 3 -6 10 -3 15 9 13 12 11 12
-6z m79 3 c3 -4 -1 -5 -10 -4 -8 1 -18 5 -22 8 -3 4 1 5 10 4 8 -1 18 -5 22
-8z m-1650 -44 c-7 -18 52 -56 75 -49 9 3 19 -1 22 -9 4 -11 0 -13 -20 -10
-21 4 -24 2 -19 -12 5 -13 3 -14 -7 -6 -8 7 -18 7 -27 2 -8 -6 -11 -10 -6 -10
5 0 3 -7 -4 -15 -10 -12 -9 -16 4 -21 12 -5 14 -10 6 -19 -5 -6 -6 -16 -2 -21
4 -4 0 -3 -9 4 -9 6 -19 8 -23 4 -4 -4 -13 -7 -19 -7 -7 -1 -11 -7 -9 -14 1
-8 -2 -10 -10 -5 -22 14 -40 13 -34 -1 3 -8 1 -17 -5 -21 -7 -4 -6 -10 1 -19
9 -10 7 -13 -7 -11 -29 5 -68 -41 -69 -83 -3 -63 -2 -62 -33 -56 -34 6 -48 -7
-26 -25 13 -10 12 -15 -8 -30 -15 -13 -27 -15 -39 -9 -23 12 -34 -8 -16 -29
28 -32 31 -47 5 -19 -14 15 -31 27 -37 27 -6 0 -9 4 -5 9 3 5 0 13 -6 17 -7 4
-9 3 -6 -3 4 -6 -5 -15 -19 -22 -22 -9 -24 -14 -14 -26 10 -12 10 -15 -1 -15
-21 -1 -72 -46 -65 -58 4 -6 -1 -15 -10 -20 -11 -6 -13 -11 -5 -16 6 -4 11
-12 11 -18 0 -7 -4 -7 -14 1 -23 19 -37 -10 -14 -31 10 -10 18 -14 18 -9 0 6
-4 13 -10 16 -5 3 -10 11 -10 18 0 8 3 8 11 0 13 -13 49 -5 50 11 1 6 0 18 -1
26 -1 12 1 12 10 3 7 -6 20 -9 29 -6 11 4 9 -1 -7 -16 -12 -12 -19 -27 -16
-33 5 -7 1 -9 -9 -5 -11 4 -25 -2 -37 -16 l-21 -21 -23 29 c-22 27 -23 31 -8
39 19 10 35 34 39 56 1 8 12 23 24 32 11 10 16 18 10 18 -6 0 -11 5 -11 11 0
8 4 8 15 -1 20 -16 33 -5 30 25 -2 14 1 27 6 31 5 3 9 0 9 -7 0 -8 4 -8 15 1
12 10 13 16 3 28 -9 11 -9 14 -1 9 16 -10 27 11 14 27 -6 7 -8 16 -4 20 4 3
12 -6 19 -21 12 -26 13 -27 11 -4 -1 14 4 26 13 28 13 4 13 3 0 -6 -9 -7 -10
-11 -3 -11 20 0 24 18 6 29 -24 14 -7 14 19 0 16 -8 22 -8 28 2 8 13 1 44 -8
35 -2 -3 -13 -1 -23 4 -22 13 -21 46 2 46 10 0 17 -3 16 -6 -4 -14 25 -49 36
-44 14 5 19 34 7 34 -10 0 -6 64 5 76 7 8 14 9 22 2 7 -6 20 -8 28 -4 11 4 14
2 9 -6 -4 -6 -3 -8 4 -4 6 3 13 2 17 -4 8 -13 -57 -9 -66 4 -10 13 -5 -47 4
-61 5 -8 3 -13 -3 -13 -6 0 -9 -4 -6 -9 3 -5 -1 -14 -9 -21 -12 -10 -13 -16
-3 -28 11 -13 10 -15 -4 -9 -10 3 -20 2 -22 -2 -3 -5 5 -7 17 -7 12 1 27 -2
34 -6 15 -12 11 15 -5 34 -6 8 -9 18 -5 21 3 4 12 -1 20 -11 10 -13 13 -14 11
-2 -2 8 -7 18 -13 23 -6 4 -4 11 5 17 13 9 13 10 0 10 -12 0 -12 2 -1 9 9 6
10 11 2 15 -6 4 -11 12 -11 18 0 7 4 7 13 1 33 -27 58 -5 65 55 1 7 6 11 11 8
15 -10 21 22 6 34 -11 9 -12 17 -4 31 5 10 7 19 4 19 -3 0 2 11 11 26 9 14 23
23 30 20 11 -4 24 13 29 39 1 6 3 14 3 18 1 5 7 5 13 2 6 -4 8 -13 5 -21z
m1611 -6 c2 -17 0 -19 -7 -8 -5 8 -6 18 -4 22 8 12 10 10 11 -14z m103 18 c0
-3 -4 -8 -10 -11 -5 -3 -10 -1 -10 4 0 6 5 11 10 11 6 0 10 -2 10 -4z m-720
-27 c7 -11 9 -23 6 -27 -3 -3 -6 0 -6 7 0 7 -5 9 -12 5 -7 -5 -8 -3 -3 6 4 7
2 16 -6 21 -10 6 -10 9 -2 9 7 0 17 -9 23 -21z m74 -4 c-4 -8 -8 -15 -10 -15
-2 0 -4 7 -4 15 0 8 4 15 10 15 5 0 7 -7 4 -15z m752 3 c3 -4 -5 -13 -20 -19
-14 -7 -26 -16 -26 -21 0 -5 5 -6 10 -3 6 4 9 1 8 -7 -2 -8 5 -12 20 -11 12 2
22 -2 22 -8 0 -5 -4 -7 -10 -4 -5 3 -10 1 -10 -4 0 -14 17 -14 25 -1 4 6 10 8
15 5 11 -7 -9 -55 -24 -56 -6 -1 -22 -2 -36 -3 -14 0 -28 -5 -32 -11 -5 -6 -8
-6 -8 1 0 7 -7 14 -14 17 -10 4 -13 1 -10 -8 4 -10 -3 -13 -28 -11 -18 1 -33
4 -32 7 5 34 14 48 27 43 9 -3 13 -12 11 -19 -3 -7 -1 -16 5 -20 7 -4 8 0 4
11 -5 13 -2 16 9 12 9 -4 15 0 15 8 0 8 -6 13 -14 10 -11 -4 -11 -1 -3 14 6
11 16 19 22 17 8 -1 12 9 12 26 -1 22 2 26 17 22 9 -3 21 0 25 6 4 8 3 9 -4 5
-7 -4 -19 -3 -29 2 -13 8 -10 10 14 8 18 -1 35 -4 39 -8z m-786 -28 c-8 -5
-17 -7 -19 -4 -3 3 1 9 9 14 8 5 17 7 19 4 3 -3 -1 -9 -9 -14z m511 -3 c-10
-9 -11 -8 -5 6 3 10 9 15 12 12 3 -3 0 -11 -7 -18z m-531 -29 c0 -5 -9 -3 -20
4 -11 7 -20 16 -20 20 0 5 9 3 20 -4 11 -7 20 -16 20 -20z m75 22 c4 -6 2 -16
-4 -23 -5 -7 -7 -17 -3 -22 11 -15 42 -14 42 1 0 17 16 18 26 2 4 -6 3 -8 -3
-5 -6 4 -13 1 -16 -6 -3 -8 -15 -13 -27 -12 -22 1 -42 23 -34 36 2 4 0 10 -6
14 -5 3 -10 10 -10 16 0 12 27 12 35 -1z m790 0 c-3 -5 -11 -10 -16 -10 -6 0
-7 5 -4 10 3 6 11 10 16 10 6 0 7 -4 4 -10z m-1158 -12 c9 -16 13 -38 6 -38
-2 0 -12 7 -20 16 -15 15 -18 14 -30 -10 -8 -15 -18 -24 -23 -21 -6 4 -10 -3
-10 -14 0 -12 5 -20 11 -18 6 1 14 -5 16 -13 4 -12 3 -12 -5 -2 -5 8 -13 13
-18 13 -12 -1 -11 39 1 40 6 1 18 15 27 30 19 31 32 36 45 17z m328 -8 c3 -5
2 -10 -4 -10 -5 0 -13 5 -16 10 -3 6 -2 10 4 10 5 0 13 -4 16 -10z m910 -28
c-6 -7 -35 18 -35 31 0 5 9 2 20 -8 11 -10 18 -20 15 -23z m-2085 7 c0 -5 -4
-9 -10 -9 -5 0 -10 7 -10 16 0 8 5 12 10 9 6 -3 10 -10 10 -16z m700 6 c0 -8
-2 -15 -4 -15 -2 0 -6 7 -10 15 -3 8 -1 15 4 15 6 0 10 -7 10 -15z m35 6 c-3
-5 -1 -12 5 -16 5 -3 10 -1 10 4 0 6 5 11 10 11 6 0 5 -8 -2 -19 -11 -18 -13
-18 -25 -3 -15 21 -16 32 -2 32 5 0 8 -4 4 -9z m1105 -11 c0 -5 -4 -10 -9 -10
-6 0 -13 5 -16 10 -3 6 1 10 9 10 9 0 16 -4 16 -10z m-1163 -27 c0 -16 -2 -22
-4 -15 -3 6 -9 12 -14 12 -6 0 -7 -4 -4 -10 3 -5 1 -10 -4 -10 -16 0 -13 11 7
31 9 10 18 18 18 18 1 1 1 -11 1 -26z m168 -2 c-6 -5 -25 10 -25 20 0 5 6 4
14 -3 8 -7 12 -15 11 -17z m325 25 c0 -2 -7 -6 -15 -10 -8 -3 -15 -1 -15 4 0
6 7 10 15 10 8 0 15 -2 15 -4z m-455 -16 c-3 -5 -1 -10 6 -10 7 0 10 -2 7 -5
-3 -3 -13 -2 -22 1 -14 5 -15 9 -4 15 17 11 20 11 13 -1z m480 -19 c2 -11 0
-21 -4 -21 -5 0 -8 11 -8 25 0 30 6 28 12 -4z m120 -2 c-4 -13 -2 -19 7 -17 7
2 13 -8 15 -22 2 -22 1 -22 -5 -4 -4 13 -14 20 -24 18 -10 -1 -21 3 -25 8 -3
6 -1 8 4 5 6 -4 13 0 17 8 3 8 1 17 -4 20 -6 4 -10 1 -10 -6 0 -7 -3 -10 -6
-6 -11 10 6 26 22 20 9 -3 12 -12 9 -24z m119 4 c28 -36 31 -66 5 -52 -21 11
-26 29 -8 29 5 0 7 5 4 10 -4 6 -10 8 -15 5 -12 -7 -40 5 -40 18 0 7 4 7 12
-1 17 -17 33 -15 18 3 -7 8 -9 15 -5 15 4 0 17 -12 29 -27z m-1474 7 c0 -5 -4
-10 -10 -10 -5 0 -10 5 -10 10 0 6 5 10 10 10 6 0 10 -4 10 -10z m646 -14 c19
-19 18 -32 -1 -16 -12 10 -18 10 -30 0 -18 -15 -20 -5 -2 15 15 18 16 18 33 1z
m224 4 c12 -7 10 -9 -8 -7 -12 0 -22 5 -22 9 0 11 12 10 30 -2z m332 3 c-6 -3
-9 -10 -5 -16 5 -8 2 -8 -9 0 -8 7 -18 10 -21 6 -4 -3 -7 -2 -7 4 0 6 12 10
28 10 15 0 21 -2 14 -4z m105 -15 c-3 -8 -6 -5 -6 6 -1 11 2 17 5 13 3 -3 4
-12 1 -19z m113 -11 c0 -5 -4 -5 -10 -2 -5 3 -10 14 -10 23 0 15 2 15 10 2 5
-8 10 -19 10 -23z m-140 13 c0 -5 -4 -10 -10 -10 -5 0 -10 5 -10 10 0 6 5 10
10 10 6 0 10 -4 10 -10z m-1256 -16 c-10 -8 -14 -13 -8 -10 6 3 16 -6 22 -20
l12 -24 -31 22 c-28 21 -29 24 -13 35 26 19 41 16 18 -3z m546 8 c0 -4 -9 -8
-20 -8 -11 0 -20 4 -20 8 0 4 9 8 20 8 11 0 20 -4 20 -8z m208 -13 c2 -8 0
-10 -5 -4 -12 15 -47 19 -37 4 4 -8 3 -10 -5 -5 -6 4 -9 12 -6 17 9 13 48 4
53 -12z m-64 -5 c3 -8 2 -13 -3 -9 -5 3 -11 0 -13 -7 -5 -14 -45 -21 -53 -9
-3 5 0 13 6 17 7 4 9 3 5 -4 -4 -7 1 -10 14 -9 11 1 23 9 26 19 7 22 10 22 18
2z m738 -24 c-5 -15 -44 -5 -53 14 -9 18 -8 19 3 6 7 -8 22 -17 33 -18 16 -3
18 -1 8 9 -7 7 -13 18 -13 24 0 5 6 1 12 -10 7 -11 11 -22 10 -25z m-978 15
c3 -8 1 -15 -4 -15 -6 0 -10 7 -10 15 0 8 2 15 4 15 2 0 6 -7 10 -15z m161 5
c-3 -5 -11 -10 -16 -10 -6 0 -7 5 -4 10 3 6 11 10 16 10 6 0 7 -4 4 -10z m233
-4 c-10 -7 -14 -17 -10 -21 4 -5 1 -5 -7 0 -12 7 -11 10 4 22 24 17 36 17 13
-1z m366 -1 c11 -8 15 -15 9 -15 -7 0 -15 5 -18 10 -4 6 -11 8 -16 5 -5 -4 -9
-1 -9 4 0 15 11 13 34 -4z m66 3 c0 -6 -3 -8 -7 -5 -3 4 -13 1 -22 -6 -14 -11
-14 -10 -2 6 15 20 31 22 31 5z m35 -6 c-3 -3 -11 0 -18 7 -9 10 -8 11 6 5 10
-3 15 -9 12 -12z m-772 1 c-7 -2 -19 -2 -25 0 -7 3 -2 5 12 5 14 0 19 -2 13
-5z m37 -13 c0 -5 -4 -10 -10 -10 -5 0 -10 5 -10 10 0 6 5 10 10 10 6 0 10 -4
10 -10z m173 -3 c-3 -5 -13 -7 -23 -4 -11 3 -21 -2 -24 -10 -3 -8 -10 -12 -15
-9 -5 4 -12 1 -14 -4 -4 -7 -5 -6 -3 1 1 6 5 9 9 7 5 -2 12 4 17 12 4 8 19 15
33 15 14 0 23 -4 20 -8z m18 -14 c-12 -20 -14 -14 -5 12 4 9 9 14 11 11 3 -2
0 -13 -6 -23z m404 17 c3 -5 1 -10 -4 -10 -6 0 -11 5 -11 10 0 6 2 10 4 10 3
0 8 -4 11 -10z m165 0 c0 -5 -5 -10 -11 -10 -5 0 -7 5 -4 10 3 6 8 10 11 10 2
0 4 -4 4 -10z m-797 -49 c-2 -2 -12 4 -23 14 -14 13 -20 14 -20 5 0 -7 -2 -11
-5 -8 -3 3 -3 12 0 21 5 13 10 12 29 -7 12 -11 21 -23 19 -25z m7 34 c7 -8 9
-15 6 -15 -4 0 -14 7 -22 15 -9 8 -11 15 -6 15 5 0 15 -7 22 -15z m738 -5 c-7
-10 -14 -18 -15 -16 -6 6 9 36 18 36 5 0 4 -9 -3 -20z m-671 4 c-3 -3 -12 -4
-19 -1 -8 3 -5 6 6 6 11 1 17 -2 13 -5z m206 -13 c3 -13 1 -18 -9 -14 -7 2
-10 11 -7 19 7 19 10 18 16 -5z m417 15 c0 -2 -7 -7 -16 -10 -8 -3 -12 -2 -9
4 6 10 25 14 25 6z m117 -11 c0 -8 -4 -12 -9 -9 -5 3 -6 10 -3 15 9 13 12 11
12 -6z m110 9 c-3 -3 -12 -4 -19 -1 -8 3 -5 6 6 6 11 1 17 -2 13 -5z m-272
-14 c3 -6 -1 -7 -9 -4 -18 7 -21 14 -7 14 6 0 13 -4 16 -10z m225 6 c0 -3 -4
-8 -10 -11 -5 -3 -10 -1 -10 4 0 6 5 11 10 11 6 0 10 -2 10 -4z m-954 -21
c-11 -8 -22 -12 -25 -9 -6 6 19 24 34 24 6 -1 1 -7 -9 -15z m121 1 c-10 -8
-18 -18 -17 -22 1 -5 -4 -10 -12 -12 -9 -2 -8 0 2 7 8 6 11 11 5 11 -5 0 -1 7
9 15 11 8 22 15 25 15 3 0 -2 -7 -12 -14z m73 4 c0 -5 -2 -10 -4 -10 -3 0 -8
5 -11 10 -3 6 -1 10 4 10 6 0 11 -4 11 -10z m54 -2 c-5 -8 -2 -9 10 -5 10 4
15 3 11 -4 -4 -5 -2 -16 4 -23 8 -9 7 -13 -4 -13 -8 0 -11 5 -8 10 4 6 0 8 -9
5 -10 -4 -14 0 -12 15 3 27 3 27 10 27 3 0 2 -5 -2 -12z m-304 -18 c0 -5 -4
-10 -10 -10 -5 0 -10 5 -10 10 0 6 5 10 10 10 6 0 10 -4 10 -10z m110 0 c0 -5
-4 -10 -10 -10 -5 0 -10 5 -10 10 0 6 5 10 10 10 6 0 10 -4 10 -10z m126 -1
c3 -6 1 -16 -5 -22 -9 -9 -10 -7 -5 7 5 13 4 17 -4 12 -7 -4 -12 -2 -12 3 0
14 17 14 26 0z m160 -1 c3 -4 -1 -5 -10 -4 -8 1 -18 5 -22 8 -3 4 1 5 10 4 8
-1 18 -5 22 -8z m474 6 c0 -8 -19 -13 -24 -6 -3 5 1 9 9 9 8 0 15 -2 15 -3z
m-845 -24 c-3 -5 -14 -10 -23 -10 -15 0 -15 2 -2 10 20 13 33 13 25 0z m42
-21 c2 -18 1 -20 -6 -9 -5 8 -8 17 -5 21 2 4 -1 10 -6 12 -6 3 -5 4 1 3 7 -1
14 -13 16 -27z m133 27 c0 -2 -7 -7 -16 -10 -8 -3 -12 -2 -9 4 6 10 25 14 25
6z m-247 -19 c3 -8 -3 -13 -17 -14 -11 0 -15 1 -8 4 6 3 10 9 6 14 -3 5 -1 9
4 9 6 0 12 -6 15 -13z m197 -7 c0 -5 -2 -10 -4 -10 -3 0 -8 5 -11 10 -3 6 -1
10 4 10 6 0 11 -4 11 -10z m134 -6 c3 -8 2 -12 -4 -9 -6 3 -10 10 -10 16 0 14
7 11 14 -7z m-159 -4 c3 -6 -1 -7 -9 -4 -18 7 -21 14 -7 14 6 0 13 -4 16 -10z
m-75 -10 c0 -5 -8 -7 -17 -4 -15 5 -15 3 1 -10 11 -9 15 -16 9 -16 -14 0 -34
25 -26 33 10 10 33 8 33 -3z m31 -13 c-10 -9 -11 -8 -5 6 3 10 9 15 12 12 3
-3 0 -11 -7 -18z m166 17 c-3 -3 -12 -4 -19 -1 -8 3 -5 6 6 6 11 1 17 -2 13
-5z m-327 -14 c-12 -8 -12 -10 -1 -10 8 0 12 -2 9 -5 -3 -3 -13 -2 -22 1 -14
5 -15 9 -4 15 7 5 18 9 23 9 6 0 3 -5 -5 -10z m346 -10 c0 -12 -4 -16 -9 -11
-5 5 -6 14 -3 20 10 15 12 14 12 -9z m-725 -7 c13 -16 12 -17 -3 -4 -17 13
-22 21 -14 21 2 0 10 -8 17 -17z m459 2 c0 -8 -2 -15 -4 -15 -2 0 -6 7 -10 15
-3 8 -1 15 4 15 6 0 10 -7 10 -15z m120 -5 c-6 -11 -13 -20 -16 -20 -2 0 0 9
6 20 6 11 13 20 16 20 2 0 0 -9 -6 -20z m-155 -9 c-3 -6 -11 -9 -16 -5 -13 8
-7 -28 6 -39 6 -5 4 -7 -5 -4 -18 4 -21 53 -2 50 6 -2 12 2 12 9 0 6 3 9 6 5
3 -3 3 -11 -1 -16z m-46 -30 c-1 -13 -2 -13 -6 2 -2 9 -9 17 -14 17 -5 0 -9 5
-9 11 0 8 5 8 15 -1 8 -7 14 -20 14 -29z m165 23 c3 -8 2 -12 -4 -9 -6 3 -10
10 -10 16 0 14 7 11 14 -7z m157 -1 c13 -16 12 -17 -3 -4 -10 7 -18 15 -18 17
0 8 8 3 21 -13z m-189 -16 c-7 -8 -9 -17 -5 -20 3 -4 1 -7 -5 -7 -7 0 -12 2
-12 5 0 10 24 44 29 40 2 -3 -1 -11 -7 -18z m135 8 c0 -8 -3 -13 -5 -10 -3 3
-12 -1 -21 -7 -10 -8 -9 -4 3 10 23 26 23 26 23 7z m-297 -16 c0 -6 -4 -7 -10
-4 -5 3 -10 1 -10 -4 0 -6 -5 -11 -10 -11 -6 0 -5 8 2 19 12 19 28 19 28 0z
m100 11 c0 -5 -4 -10 -10 -10 -5 0 -10 5 -10 10 0 6 5 10 10 10 6 0 10 -4 10
-10z m146 -30 c0 -8 -8 -16 -18 -16 -11 0 -14 4 -8 12 6 6 8 13 5 16 -3 2 1 5
8 5 7 0 13 -8 13 -17z m-132 -6 c3 -8 2 -12 -4 -9 -6 3 -10 10 -10 16 0 14 7
11 14 -7z m-94 -4 c0 -5 -4 -10 -10 -10 -5 0 -10 5 -10 10 0 6 5 10 10 10 6 0
10 -4 10 -10z m176 -16 c0 -20 -11 -25 -11 -6 0 4 -3 12 -7 18 -4 6 -1 11 5
11 7 0 13 -11 13 -23z m-203 -25 c-4 -4 -15 -4 -23 2 -12 9 -12 10 3 5 15 -5
17 -2 12 17 -5 20 -5 20 6 4 6 -11 7 -23 2 -28z m102 32 c3 -5 0 -13 -6 -17
-7 -4 -9 -3 -5 4 3 5 0 13 -6 15 -9 4 -10 6 -1 6 6 1 14 -3 18 -8z m70 -11 c3
-6 -1 -7 -9 -4 -18 7 -21 14 -7 14 6 0 13 -4 16 -10z m-12 -34 c-4 -6 -8 -5
-11 2 -2 7 -7 10 -11 8 -4 -3 -8 1 -8 8 0 11 4 12 18 3 10 -6 15 -16 12 -21z
m-233 16 c0 -4 -9 -13 -20 -20 -23 -14 -26 -8 -7 13 13 16 27 19 27 7z m178
-27 c-3 -3 -9 2 -12 12 -6 14 -5 15 5 6 7 -7 10 -15 7 -18z m-578 4 c0 -5 4
-8 8 -5 4 2 14 0 22 -5 11 -8 12 -12 3 -16 -7 -2 -15 -4 -19 -3 -4 1 -10 -4
-15 -12 -5 -7 -19 -13 -31 -13 -13 -1 -22 -6 -21 -13 2 -6 -3 -9 -11 -6 -8 3
-16 2 -19 -3 -3 -4 6 -9 20 -9 19 -2 23 2 19 15 -5 13 -4 13 8 -2 11 -14 15
-15 20 -5 3 7 3 3 1 -9 -3 -12 -2 -24 2 -26 5 -3 10 3 11 14 4 43 6 49 14 49
4 0 9 -4 9 -10 6 -48 1 -61 -33 -92 -20 -18 -40 -34 -45 -35 -4 -1 -16 -5 -27
-9 -13 -5 -17 -3 -14 6 2 7 14 14 26 15 24 2 43 15 22 15 -9 0 -6 8 8 23 13
14 18 27 13 36 -6 10 -10 10 -16 2 -5 -9 -10 -9 -20 -1 -15 12 -31 -3 -20 -19
3 -5 1 -12 -4 -15 -15 -9 -24 13 -12 28 6 7 8 16 4 19 -8 9 40 47 54 42 6 -2
14 4 18 13 3 9 1 18 -6 21 -8 2 -7 6 2 12 19 12 29 11 29 -2z m455 1 c3 -5 0
-12 -6 -16 -7 -4 -9 -3 -5 4 4 7 -1 10 -14 9 -22 -1 -27 -13 -7 -20 9 -4 9 -6
0 -6 -14 -1 -26 16 -19 27 6 11 45 12 51 2z m65 0 c0 -5 -4 -10 -10 -10 -5 0
-10 5 -10 10 0 6 5 10 10 10 6 0 10 -4 10 -10z m35 -10 c-3 -5 -12 -10 -18
-10 -7 0 -6 4 3 10 19 12 23 12 15 0z m-61 -16 c5 -14 4 -15 -9 -4 -12 10 -15
10 -15 0 0 -8 -3 -11 -6 -7 -7 7 4 27 16 27 4 0 11 -7 14 -16z m-94 -14 c0 -5
-4 -10 -10 -10 -5 0 -10 5 -10 10 0 6 5 10 10 10 6 0 10 -4 10 -10z m-60 -26
c22 -13 22 -14 3 -9 -12 3 -24 1 -28 -5 -3 -5 -11 -10 -18 -10 -6 0 -2 7 9 16
16 13 16 15 2 10 -10 -3 -18 -1 -18 4 0 14 21 12 50 -6z"/>
<path d="M9955 22550 c-3 -5 -1 -10 4 -10 6 0 11 5 11 10 0 6 -2 10 -4 10 -3
0 -8 -4 -11 -10z"/>
<path d="M9893 22444 c0 -7 7 -16 14 -19 15 -5 53 11 53 22 0 3 -3 4 -6 1 -3
-4 -18 -3 -33 2 -20 6 -28 4 -28 -6z"/>
<path d="M10003 22395 c0 -8 4 -12 9 -9 5 3 6 10 3 15 -9 13 -12 11 -12 -6z"/>
<path d="M9995 22360 c-3 -5 -1 -10 4 -10 6 0 11 5 11 10 0 6 -2 10 -4 10 -3
0 -8 -4 -11 -10z"/>
<path d="M9796 22332 c-4 -7 -4 -18 -1 -24 4 -7 0 -5 -8 5 -11 13 -16 15 -19
5 -3 -7 -16 -13 -29 -13 -15 0 -24 -6 -24 -15 0 -11 -11 -15 -43 -14 -26 0
-39 -3 -33 -9 6 -6 4 -18 -6 -33 l-15 -23 -26 24 c-25 23 -42 25 -42 3 0 -5 7
-7 16 -4 10 4 13 2 8 -6 -5 -7 -3 -8 6 -3 9 6 11 4 5 -5 -6 -9 -4 -11 5 -5 9
6 11 4 5 -5 -6 -9 -4 -11 5 -5 9 6 11 4 5 -6 -8 -12 -6 -12 8 0 11 9 17 10 17
2 0 -6 5 -11 11 -11 5 0 7 5 3 12 -5 7 -2 8 7 3 11 -6 11 -5 2 5 -6 7 -9 19
-6 27 5 12 7 12 15 1 8 -10 9 -9 5 4 -4 12 -1 16 14 13 11 -2 17 0 14 6 -4 5
-3 9 2 8 24 -4 35 2 29 19 -6 16 -5 16 8 -1 10 -14 15 -15 19 -5 3 8 6 8 6 2
1 -6 -6 -17 -14 -24 -8 -7 -15 -17 -15 -23 0 -6 7 -1 16 11 8 12 19 20 24 17
17 -11 50 14 44 33 -4 11 1 9 16 -8 12 -14 20 -18 17 -10 -3 9 2 25 10 35 12
15 14 16 10 3 -5 -13 -1 -16 19 -12 15 3 23 1 20 -5 -4 -5 -1 -13 5 -17 8 -5
9 -3 4 6 -6 9 -4 11 5 5 9 -6 11 -4 5 5 -5 8 -4 11 3 6 6 -4 8 -14 5 -24 -5
-14 -3 -15 8 -4 7 6 18 12 24 12 5 0 3 -5 -5 -10 -8 -5 -10 -10 -4 -10 6 0 13
3 17 6 8 8 -3 35 -12 29 -4 -2 -19 3 -32 13 -29 20 -89 24 -96 5 -4 -11 -8
-10 -18 3 -8 12 -14 14 -19 6z m45 -25 c-10 -9 -11 -8 -5 6 3 10 9 15 12 12 3
-3 0 -11 -7 -18z m-47 -30 c-11 -6 -19 -5 -25 4 -12 20 0 30 21 17 17 -11 18
-13 4 -21z"/>
<path d="M9950 22318 c0 -6 3 -8 7 -5 3 4 12 2 19 -4 8 -7 14 -7 19 1 3 5 5
10 3 11 -32 8 -48 7 -48 -3z"/>
<path d="M9855 22289 c11 -16 -5 -31 -20 -19 -10 8 -16 8 -22 -3 -4 -7 -19
-13 -33 -13 -14 0 -24 -5 -23 -11 3 -15 -25 -25 -33 -12 -3 5 0 17 8 26 12 15
11 15 -10 4 -17 -9 -21 -16 -13 -25 6 -7 7 -17 3 -21 -4 -5 -1 -5 6 -1 7 4 15
1 18 -8 3 -9 10 -13 15 -10 5 3 7 9 4 14 -3 5 -1 11 5 15 6 4 7 11 4 17 -4 7
-2 8 5 4 6 -4 8 -12 5 -18 -4 -6 -1 -8 7 -6 8 3 13 10 12 16 -3 12 15 11 36
-2 11 -7 13 -5 7 10 -4 10 -4 15 0 11 4 -4 13 -2 21 4 7 6 13 7 13 2 0 -5 9
-9 19 -10 18 -1 23 18 9 32 -10 10 -49 14 -43 4z"/>
<path d="M9915 22251 c2 -11 -3 -22 -11 -25 -8 -3 -12 -2 -9 3 3 5 0 13 -6 17
-8 4 -9 3 -5 -4 4 -7 2 -12 -5 -12 -9 0 -9 -3 0 -14 8 -10 9 -16 1 -21 -5 -3
-10 -11 -10 -17 0 -7 5 -7 14 1 11 9 15 8 20 -4 6 -17 26 -12 26 6 0 6 -4 8
-9 4 -5 -3 -13 -1 -16 5 -9 15 14 40 31 33 8 -3 17 2 20 12 5 13 9 14 15 3 6
-9 9 -9 9 -1 0 7 -10 17 -21 24 -12 6 -19 7 -15 1 3 -5 -1 -12 -9 -15 -9 -4
-12 -1 -8 9 3 7 0 14 -5 14 -6 0 -9 -9 -7 -19z"/>
<path d="M9683 22238 c4 -13 1 -16 -14 -13 -11 2 -17 0 -14 -6 4 -5 15 -9 26
-9 23 0 21 -21 -2 -28 -11 -3 -11 -1 1 8 12 10 12 11 -5 5 -42 -15 -80 -12
-93 6 -15 21 -34 25 -30 7 2 -7 0 -13 -3 -13 -3 0 -13 -6 -21 -13 -12 -10 -20
-8 -42 9 -23 18 -30 18 -27 -3 0 -4 -8 -12 -19 -18 -11 -6 -20 -7 -20 -3 -1
11 -24 -29 -26 -44 -1 -7 3 -13 9 -13 6 0 2 -6 -9 -14 -12 -9 -23 -11 -30 -5
-7 6 -16 4 -24 -6 -7 -8 -16 -13 -20 -10 -5 3 -11 1 -15 -5 -4 -6 -12 -7 -18
-3 -7 4 -6 0 2 -10 11 -14 9 -20 -17 -46 -19 -19 -37 -29 -50 -26 -16 3 -20
-1 -17 -15 4 -22 -23 -36 -31 -15 -8 21 -23 19 -19 -2 4 -27 -13 -52 -33 -48
-10 1 -25 -2 -34 -9 -14 -10 -16 -21 -9 -55 1 -2 7 2 15 8 17 14 32 -2 20 -21
-4 -7 -3 -8 4 -4 7 4 12 1 12 -6 1 -7 9 -3 21 11 11 13 17 27 13 30 -3 3 -11
-2 -19 -12 -11 -16 -13 -15 -12 11 2 28 3 29 25 14 19 -12 22 -12 20 -1 -2 9
4 13 17 11 16 -2 17 -1 5 7 -13 10 -13 11 0 11 12 0 12 2 1 9 -9 6 -10 11 -2
15 10 6 15 -6 12 -26 0 -5 4 -8 10 -8 5 0 7 -5 3 -12 -4 -7 -3 -8 5 -4 6 4 9
12 6 17 -4 5 -1 9 6 9 6 0 1 9 -12 19 -27 22 -21 38 9 22 19 -10 32 -6 32 10
0 4 -9 6 -20 4 -11 -2 -20 1 -20 6 0 5 8 9 18 7 9 -2 16 3 14 10 -1 6 1 11 5
11 21 -3 26 2 13 12 -13 9 -13 10 0 6 8 -2 14 -11 12 -20 -1 -9 4 -14 12 -13
18 2 34 16 19 16 -5 0 -10 13 -10 30 0 29 15 35 43 17 7 -4 14 0 17 8 4 9 1
12 -9 8 -7 -3 -14 -1 -14 4 0 16 33 11 54 -9 23 -21 42 -23 49 -5 4 8 8 8 14
2 10 -12 45 -16 38 -4 -8 11 30 30 48 23 8 -3 21 5 30 19 15 24 15 24 -24 24
-30 0 -37 -3 -28 -13 7 -8 6 -14 -2 -20 -8 -4 -9 -3 -5 4 4 7 2 12 -3 12 -6 0
-11 -6 -11 -14 0 -16 -24 -28 -44 -20 -8 3 -17 0 -21 -5 -3 -6 -11 -9 -16 -5
-5 3 -7 10 -3 15 3 6 -2 9 -11 7 -10 -2 -20 3 -22 10 -3 6 0 12 7 12 6 0 8 -5
4 -12 -4 -7 -3 -8 5 -4 6 4 9 11 6 16 -3 4 4 6 15 3 12 -3 20 0 20 7 0 7 -7
10 -15 6 -9 -3 -19 3 -26 16 -6 12 -7 18 -1 14 6 -3 18 -3 27 0 13 6 14 9 3
16 -15 10 35 3 52 -7 6 -3 7 0 4 9 -3 9 -1 16 6 16 6 0 9 -4 6 -9 -3 -4 0 -16
8 -26 11 -15 13 -16 13 -1 0 9 -4 16 -9 16 -5 0 -6 5 -2 11 4 8 9 7 15 -2 4
-7 5 -17 3 -21 -3 -4 0 -8 6 -8 6 0 8 -5 4 -12 -4 -7 -3 -8 5 -4 6 4 9 12 6
17 -4 5 -1 9 6 9 7 0 5 6 -6 14 -18 13 -18 14 2 24 16 9 24 8 33 -3 10 -12 16
-13 28 -3 13 11 14 11 8 0 -7 -11 -4 -12 11 -4 17 9 19 8 17 -11 -1 -12 -3
-26 -3 -30 -1 -5 -5 -5 -11 -2 -5 3 -10 1 -10 -6 0 -7 -3 -9 -7 -5 -5 4 0 14
10 21 11 7 14 16 8 19 -11 7 -43 -33 -36 -44 4 -7 61 -6 75 0 3 1 12 3 20 4 8
0 15 8 15 17 0 9 6 23 13 32 11 12 11 20 2 34 -10 16 -11 16 -6 1 3 -10 1 -18
-5 -18 -6 0 -8 -4 -4 -9 3 -5 0 -13 -6 -16 -5 -4 -8 -14 -4 -24 5 -12 4 -13
-6 -4 -10 10 -15 9 -26 -5 -13 -16 -13 -15 -5 3 5 11 7 26 5 33 -3 6 0 12 7
12 6 0 8 -5 4 -11 -4 -7 -1 -10 7 -7 20 7 20 75 1 90 -13 11 -15 10 -9 -4z
m-198 -66 c-3 -3 -12 -7 -21 -8 -11 -2 -12 1 -5 10 6 7 7 17 3 22 -4 4 1 2 11
-5 9 -8 15 -16 12 -19z m-119 -94 c4 -6 3 -8 -4 -4 -6 3 -15 -2 -21 -11 -6
-10 -11 -13 -11 -7 0 9 19 34 26 34 2 0 6 -5 10 -12z m204 8 c0 -3 -4 -8 -10
-11 -5 -3 -10 -1 -10 4 0 6 5 11 10 11 6 0 10 -2 10 -4z m-260 -66 c0 -5 -5
-10 -11 -10 -5 0 -7 5 -4 10 3 6 8 10 11 10 2 0 4 -4 4 -10z m-115 -82 c5 4 5
1 1 -6 -4 -7 -12 -10 -17 -7 -5 4 -9 1 -9 -4 0 -6 5 -11 12 -11 8 0 7 -6 -4
-16 -24 -24 -41 -9 -23 20 8 12 12 27 8 31 -5 5 -1 4 8 -3 9 -6 20 -8 24 -4z
m-69 -65 c0 -15 -3 -20 -10 -13 -6 6 -14 6 -22 -1 -9 -7 -12 -6 -10 3 5 39 42
49 42 11z"/>
<path d="M9155 21900 c-3 -5 -1 -10 4 -10 6 0 11 5 11 10 0 6 -2 10 -4 10 -3
0 -8 -4 -11 -10z"/>
<path d="M9096 21882 c-3 -5 1 -9 9 -9 8 0 12 4 9 9 -3 4 -7 8 -9 8 -2 0 -6
-4 -9 -8z"/>
<path d="M9854 22241 c3 -5 -1 -11 -9 -15 -8 -3 -17 -1 -21 5 -4 6 -13 4 -24
-6 -11 -10 -24 -14 -31 -9 -7 4 -10 3 -5 -4 3 -6 2 -13 -3 -16 -5 -4 -8 -19
-6 -34 2 -15 4 -30 4 -34 1 -4 13 -6 29 -5 20 2 27 8 28 25 1 15 -4 22 -18 22
-11 0 -17 -4 -14 -8 2 -4 1 -14 -3 -21 -6 -9 -11 -10 -15 -2 -4 6 -2 11 5 11
8 0 7 5 -2 17 -12 14 -12 16 0 8 11 -6 13 -4 7 11 -4 10 -4 15 0 12 3 -4 12
-1 19 6 17 17 60 13 60 -5 0 -8 -8 -13 -18 -13 -21 2 -19 -25 2 -42 20 -15 44
5 29 24 -7 8 -7 16 1 26 8 9 8 16 2 20 -6 4 -8 13 -4 21 3 8 0 15 -7 15 -6 0
-9 -4 -6 -9z"/>
<path d="M9800 22195 c-8 -9 -8 -15 -2 -15 12 0 26 19 19 26 -2 2 -10 -2 -17
-11z"/>
<path d="M9835 22200 c-3 -5 -1 -10 4 -10 6 0 11 5 11 10 0 6 -2 10 -4 10 -3
0 -8 -4 -11 -10z"/>
<path d="M9561 22171 c-10 -7 -10 -9 2 -14 10 -4 14 -14 11 -29 -2 -13 -2 -17
2 -10 3 6 11 9 17 5 7 -3 9 -3 5 2 -4 4 -2 13 5 19 7 6 10 10 8 8 -2 -1 -12 4
-20 12 -10 9 -22 12 -30 7z"/>
<path d="M9442 22131 c-21 -16 -22 -17 -3 -17 11 0 17 4 15 8 -3 4 -1 8 4 8 5
0 12 -9 15 -21 4 -14 10 -18 19 -13 10 6 10 4 -1 -9 -14 -17 -36 -13 -25 4 3
6 -3 5 -13 -2 -11 -6 -20 -18 -20 -25 0 -10 4 -11 12 -4 7 6 19 8 28 4 11 -4
21 4 31 25 16 30 16 31 -12 45 -25 13 -30 12 -50 -3z"/>
<path d="M9597 22093 c-12 -12 -7 -19 14 -20 17 -2 18 1 9 13 -14 16 -14 16
-23 7z"/>
<path d="M9376 22034 c-4 -9 -11 -12 -18 -7 -31 19 -45 -1 -25 -34 6 -10 -14
-36 -24 -30 -2 1 -1 -2 3 -7 4 -6 16 -2 28 9 13 12 17 21 10 25 -7 4 -2 13 13
23 23 15 25 15 36 -10 8 -18 9 -29 1 -37 -5 -5 -10 -6 -10 0 0 5 -5 2 -11 -6
-8 -11 -9 -9 -3 10 6 22 5 23 -9 11 -11 -8 -14 -19 -9 -30 4 -9 7 -23 6 -31
-1 -8 -2 -22 -3 -30 -1 -12 -3 -12 -10 -2 -4 8 -7 27 -5 44 3 26 2 28 -11 18
-8 -6 -19 -9 -25 -5 -6 4 -21 0 -34 -8 -16 -11 -28 -12 -42 -5 -18 9 -18 8 1
-7 36 -29 11 -71 -32 -54 -15 6 -22 5 -18 -1 8 -13 -44 -70 -60 -64 -7 3 -15
-2 -18 -10 -3 -8 -14 -12 -25 -10 -22 6 -67 -36 -67 -63 0 -12 -8 -18 -25 -18
-17 -1 -24 -6 -21 -15 12 -49 1 -98 -19 -85 -5 3 -7 -3 -5 -12 3 -23 -14 -45
-29 -36 -6 3 -7 2 -3 -3 17 -18 69 -10 88 14 10 14 16 29 13 34 -4 6 -10 5
-15 -3 -4 -7 -6 -16 -4 -19 2 -4 -2 -7 -10 -7 -11 0 -7 11 12 36 17 23 20 31
8 21 -15 -12 -17 -12 -10 -1 6 10 4 12 -6 6 -8 -5 -11 -4 -6 1 5 5 13 10 18
10 5 1 14 2 20 3 5 0 7 6 4 11 -4 6 -13 7 -24 1 -13 -7 -17 -5 -18 10 -1 10 2
21 8 24 5 3 6 -1 3 -9 -3 -9 -1 -16 6 -16 6 0 9 4 5 9 -3 5 0 13 6 17 7 4 9 3
6 -3 -3 -5 0 -10 7 -10 7 0 13 6 13 13 0 7 -5 10 -10 7 -6 -3 -7 -1 -3 6 4 6
12 9 17 6 13 -9 11 9 -3 24 -11 11 -10 12 1 6 9 -5 12 -4 7 3 -9 16 35 6 47
-10 6 -9 7 -7 3 5 -3 10 -6 21 -6 23 0 3 -4 3 -9 -1 -5 -3 -12 -1 -16 4 -6 10
27 7 45 -4 6 -4 10 -3 9 2 -5 31 3 35 20 10 11 -17 21 -24 24 -18 3 7 4 6 3
-1 -2 -7 -9 -12 -15 -10 -16 3 -14 -14 4 -31 8 -8 11 -18 7 -22 -4 -4 -7 -12
-7 -18 0 -7 -7 -13 -15 -13 -32 -3 -34 -6 -11 -15 13 -5 21 -12 18 -15 -3 -3
-15 -1 -26 6 -13 7 -21 7 -21 1 0 -14 38 -33 51 -25 6 3 8 12 5 20 -3 7 -1 16
4 19 6 4 10 14 10 25 0 10 7 20 15 24 8 3 15 11 15 18 0 10 -2 10 -9 0 -12
-20 -19 4 -16 52 3 33 2 35 -9 20 -10 -13 -15 -14 -21 -4 -6 9 -4 11 5 5 9 -5
11 -4 6 3 -7 11 6 17 28 13 5 -1 6 5 2 14 -4 11 -2 14 6 9 6 -4 8 -3 4 4 -10
17 10 23 24 7 18 -21 35 -19 19 3 -11 14 -11 15 0 5 11 -9 19 -8 37 4 13 8 24
19 24 24 0 5 -12 2 -26 -8 -27 -17 -27 -17 -16 3 10 19 53 54 66 54 3 0 5 -8
5 -17 0 -10 1 -27 3 -38 2 -16 -2 -20 -22 -18 -25 3 -25 2 -5 -13 16 -14 17
-16 2 -11 -11 4 -21 0 -29 -13 -12 -18 -13 -18 -42 3 -24 17 -28 18 -23 4 3
-9 1 -19 -5 -23 -7 -5 -8 -2 -3 6 5 9 4 11 -3 6 -23 -14 -12 -23 27 -22 21 1
45 7 53 14 9 7 20 12 24 11 15 -3 44 13 39 21 -2 4 4 18 15 30 11 13 18 31 15
41 -8 25 26 55 58 50 4 -1 2 9 -5 21 -7 13 -11 28 -10 35 2 7 -6 17 -17 22
-15 8 -20 7 -25 -5z m-76 -99 c0 -2 -10 -9 -22 -15 -22 -11 -22 -10 -4 4 21
17 26 19 26 11z m-320 -335 c-6 -11 -15 -20 -20 -20 -6 0 -2 9 7 20 10 11 19
20 21 20 1 0 -2 -9 -8 -20z m4 -39 c-8 -8 -43 -8 -38 0 2 4 13 7 24 6 10 -1
17 -3 14 -6z"/>
<path d="M9425 22010 c-3 -5 -5 -10 -3 -11 42 -10 50 -9 38 6 -14 17 -26 19
-35 5z"/>
<path d="M9364 21998 c-4 -6 -3 -8 4 -4 6 3 15 -2 21 -11 12 -20 14 -13 5 11
-7 19 -20 21 -30 4z"/>
<path d="M9275 21960 c3 -5 8 -10 11 -10 2 0 4 5 4 10 0 6 -5 10 -11 10 -5 0
-7 -4 -4 -10z"/>
<path d="M9306 21912 c-8 -13 5 -52 16 -52 6 0 7 8 3 18 -4 9 -8 23 -8 30 0
14 -4 15 -11 4z"/>
<path d="M9260 21835 c-7 -8 -8 -15 -2 -15 5 0 15 7 22 15 7 8 8 15 2 15 -5 0
-15 -7 -22 -15z"/>
<path d="M9122 21770 c2 -8 -2 -14 -9 -13 -7 2 -10 -3 -7 -11 8 -20 -12 -28
-26 -11 -7 8 -16 12 -21 9 -13 -8 0 -25 14 -18 7 3 3 -2 -8 -11 -11 -9 -20
-21 -20 -28 -1 -7 -7 -11 -14 -9 -8 1 -10 -2 -5 -10 14 -22 13 -36 -3 -42 -11
-5 -12 -10 -4 -20 6 -7 8 -16 4 -19 -3 -4 -4 -7 -1 -7 3 0 15 15 26 34 14 24
17 36 9 39 -7 3 0 10 16 16 31 12 37 26 7 18 -11 -3 -23 -1 -26 4 -3 5 -2 9 3
8 21 -4 34 2 27 12 -4 7 1 7 15 -1 17 -9 20 -15 11 -24 -8 -11 -5 -13 14 -13
19 0 23 4 21 23 -1 13 -8 30 -14 38 -9 11 -9 15 1 19 11 4 11 7 0 18 -11 12
-13 12 -10 -1z"/>
<path d="M9237 21753 c-10 -9 -9 -23 2 -23 5 0 11 7 15 15 5 15 -5 20 -17 8z"/>
<path d="M9080 21660 c-8 -6 -12 -10 -7 -10 4 0 0 -11 -9 -25 -9 -14 -14 -28
-10 -32 3 -3 6 -1 6 7 0 10 3 10 15 0 10 -9 15 -9 15 -1 0 6 -4 11 -10 11 -5
0 -10 5 -10 11 0 5 4 8 9 5 5 -3 11 4 14 16 7 27 6 30 -13 18z"/>
<path d="M10160 22415 c0 -2 6 -8 13 -14 10 -8 14 -7 14 2 0 8 -6 14 -14 14
-7 0 -13 -1 -13 -2z"/>
<path d="M10386 22395 c4 -8 11 -15 16 -15 6 0 5 6 -2 15 -7 8 -14 15 -16 15
-2 0 -1 -7 2 -15z"/>
<path d="M10458 22443 c8 -3 5 -11 -10 -24 l-23 -20 27 17 c27 16 29 35 5 33
-9 0 -8 -2 1 -6z"/>
<path d="M10542 22304 c10 -10 20 -16 22 -13 3 3 -5 11 -17 18 -21 13 -21 12
-5 -5z"/>
<path d="M9786 22411 c-3 -5 -3 -17 1 -28 6 -17 6 -17 -14 0 -11 9 -23 14 -26
10 -4 -3 -7 -1 -7 6 0 7 -5 9 -11 5 -8 -5 -6 -10 5 -16 13 -7 14 -14 6 -31
-11 -21 -11 -21 4 -3 12 14 16 16 16 5 0 -11 2 -12 9 -1 4 8 11 13 15 13 18
-3 22 1 23 19 2 22 -12 36 -21 21z"/>
<path d="M9924 22372 c18 -21 29 -23 27 -5 -1 4 -4 8 -8 8 -5 0 -15 4 -23 9
-9 6 -7 1 4 -12z"/>
<path d="M9285 22169 c-4 -5 -4 -13 -1 -16 3 -4 6 0 6 8 0 11 2 11 10 -1 6 -9
10 -10 10 -3 0 17 -17 25 -25 12z"/>
<path d="M9187 22129 c-8 -11 -16 -17 -18 -12 -2 5 -12 1 -21 -9 -10 -10 -13
-18 -8 -18 6 0 10 -5 10 -11 0 -5 -4 -7 -10 -4 -6 4 -7 -1 -3 -11 5 -13 3 -15
-8 -10 -8 4 -2 -4 13 -17 15 -14 24 -29 20 -33 -4 -5 1 -2 11 5 9 7 17 10 17
6 0 -4 6 -2 13 4 8 6 17 7 22 3 4 -4 3 3 -3 14 -6 12 -8 25 -4 29 4 3 7 11 7
15 0 5 9 15 19 23 15 11 16 16 6 22 -9 5 -11 4 -6 -3 4 -7 3 -12 -3 -12 -5 0
-13 9 -16 20 -8 26 -20 25 -38 -1z m37 -31 c-3 -5 -13 -7 -22 -6 -9 2 -18 -4
-18 -12 -3 -32 -5 -34 -14 -20 -5 8 -10 11 -10 5 0 -5 5 -17 10 -25 9 -13 10
-13 10 0 0 13 1 13 10 0 8 -11 9 -6 6 20 -3 19 -3 29 0 22 3 -6 11 -9 16 -6 7
5 8 2 2 -7 -5 -8 -9 -21 -9 -29 0 -17 -22 -20 -48 -7 -17 8 -17 10 -2 33 10
16 12 24 4 24 -14 0 -3 14 12 16 5 1 14 2 19 3 6 0 9 4 9 9 -4 21 3 25 16 8 8
-10 12 -23 9 -28z"/>
<path d="M9110 21980 c0 -5 5 -10 11 -10 5 0 7 5 4 10 -3 6 -8 10 -11 10 -2 0
-4 -4 -4 -10z"/>
<path d="M9059 21913 c-13 -16 -12 -17 4 -4 9 7 17 15 17 17 0 8 -8 3 -21 -13z"/>
<path d="M8930 21886 c0 -2 7 -7 16 -10 8 -3 12 -2 9 4 -6 10 -25 14 -25 6z"/>
<path d="M8938 21796 c-10 -7 -15 -15 -13 -18 3 -3 -1 -11 -10 -18 -11 -9 -15
-9 -15 -1 0 7 -5 9 -11 6 -6 -5 -4 -12 8 -20 11 -8 22 -10 29 -4 6 5 15 5 20
1 4 -4 2 1 -5 11 -7 9 -9 17 -3 17 13 0 33 -25 27 -34 -3 -3 3 1 12 9 13 11
14 18 5 27 -7 7 -8 16 -2 23 13 16 -21 17 -42 1z m24 -5 c-11 -7 -11 -9 2 -14
9 -4 16 -12 16 -18 0 -7 -8 -5 -20 6 -20 18 -18 35 3 35 8 0 8 -3 -1 -9z"/>
<path d="M10980 22090 c-8 -5 -18 -6 -24 -3 -5 4 -6 1 0 -8 4 -8 9 -20 10 -27
3 -18 14 -29 14 -14 0 7 8 12 18 12 15 0 15 -2 2 -10 -11 -8 -8 -9 14 -6 38 7
56 24 21 20 -19 -2 -25 1 -21 11 7 19 -16 36 -34 25z m25 -20 c-3 -5 -13 -6
-21 -3 -12 4 -13 8 -3 14 15 9 32 2 24 -11z"/>
<path d="M10898 22042 c-3 -11 0 -19 7 -19 7 0 10 8 7 19 -2 10 -6 18 -7 18
-1 0 -5 -8 -7 -18z"/>
<path d="M10285 22110 c3 -5 8 -10 11 -10 2 0 4 5 4 10 0 6 -5 10 -11 10 -5 0
-7 -4 -4 -10z"/>
<path d="M9910 22106 c0 -2 7 -7 16 -10 8 -3 12 -2 9 4 -6 10 -25 14 -25 6z"/>
<path d="M10525 22010 c-3 -5 -1 -10 4 -10 6 0 11 5 11 10 0 6 -2 10 -4 10 -3
0 -8 -4 -11 -10z"/>
<path d="M8874 21680 c0 -13 4 -16 10 -10 7 7 7 13 0 20 -6 6 -10 3 -10 -10z"/>
<path d="M8899 21605 c-1 -3 -2 -11 -3 -17 -1 -7 -7 -12 -14 -11 -6 2 -16 -7
-22 -20 -11 -21 -10 -21 4 -3 9 11 16 16 16 11 0 -14 24 13 26 30 2 13 -4 22
-7 10z"/>
<path d="M10190 22849 c0 -5 5 -7 10 -4 6 3 10 8 10 11 0 2 -4 4 -10 4 -5 0
-10 -5 -10 -11z"/>
<path d="M10335 22820 c-3 -5 -1 -10 4 -10 6 0 11 5 11 10 0 6 -2 10 -4 10 -3
0 -8 -4 -11 -10z"/>
<path d="M10376 22822 c-2 -4 9 -8 25 -8 33 -2 33 4 1 11 -12 2 -24 1 -26 -3z"/>
<path d="M9995 22809 c-4 -6 -5 -12 -2 -15 2 -3 7 2 10 11 7 17 1 20 -8 4z"/>
<path d="M9695 22780 c-3 -5 -1 -10 4 -10 6 0 11 5 11 10 0 6 -2 10 -4 10 -3
0 -8 -4 -11 -10z"/>
<path d="M10535 22780 c3 -5 8 -10 11 -10 2 0 4 5 4 10 0 6 -5 10 -11 10 -5 0
-7 -4 -4 -10z"/>
<path d="M10014 22769 c-3 -6 -2 -15 3 -20 5 -5 9 -1 9 11 0 23 -2 24 -12 9z"/>
<path d="M9560 22760 c-9 -6 -10 -10 -3 -10 6 0 15 5 18 10 8 12 4 12 -15 0z"/>
<path d="M9880 22766 c0 -2 8 -10 18 -17 15 -13 16 -12 3 4 -13 16 -21 21 -21
13z"/>
<path d="M9953 22746 l-18 -21 24 20 c13 11 25 19 28 17 3 -2 7 -2 9 1 2 2 -3
4 -11 4 -8 0 -23 -10 -32 -21z"/>
<path d="M10040 22766 c0 -2 8 -10 18 -17 15 -13 16 -12 3 4 -13 16 -21 21
-21 13z"/>
<path d="M10174 22758 c-4 -7 -4 -10 1 -6 4 4 15 2 24 -5 14 -11 14 -10 2 6
-16 20 -18 21 -27 5z"/>
<path d="M10236 22758 c3 -5 10 -6 15 -3 13 9 11 12 -6 12 -8 0 -12 -4 -9 -9z"/>
<path d="M9841 22736 c-7 -8 -23 -13 -37 -11 -13 1 -22 0 -19 -4 4 -3 20 -6
36 -7 16 0 26 2 24 4 -3 3 0 11 6 19 6 7 9 13 6 13 -2 0 -10 -6 -16 -14z"/>
<path d="M10227 22739 c7 -7 15 -10 18 -7 3 3 -2 9 -12 12 -14 6 -15 5 -6 -5z"/>
<path d="M9873 22725 c0 -8 3 -13 5 -10 3 3 10 0 17 -5 8 -7 12 -5 12 5 0 8
-3 13 -5 10 -3 -3 -10 0 -17 5 -8 7 -12 5 -12 -5z"/>
<path d="M9975 22731 c-3 -5 -2 -12 3 -15 5 -3 9 1 9 9 0 17 -3 19 -12 6z"/>
<path d="M10176 22727 c3 -10 9 -15 12 -12 3 3 0 11 -7 18 -10 9 -11 8 -5 -6z"/>
<path d="M10339 22738 c-5 -18 -6 -38 -1 -34 7 8 12 36 6 36 -2 0 -4 -1 -5 -2z"/>
<path d="M10629 22723 c-13 -16 -12 -17 4 -4 9 7 17 15 17 17 0 8 -8 3 -21
-13z"/>
<path d="M9610 22721 c0 -6 4 -13 10 -16 6 -3 7 1 4 9 -7 18 -14 21 -14 7z"/>
<path d="M9646 22718 c3 -5 10 -6 15 -3 13 9 11 12 -6 12 -8 0 -12 -4 -9 -9z"/>
<path d="M9686 22722 c-3 -5 1 -9 9 -9 8 0 12 4 9 9 -3 4 -7 8 -9 8 -2 0 -6
-4 -9 -8z"/>
<path d="M10390 22722 c0 -5 7 -9 15 -9 8 0 12 4 9 9 -3 4 -9 8 -15 8 -5 0 -9
-4 -9 -8z"/>
<path d="M10716 22718 c3 -5 10 -6 15 -3 13 9 11 12 -6 12 -8 0 -12 -4 -9 -9z"/>
<path d="M9950 22716 c0 -2 8 -10 18 -17 15 -13 16 -12 3 4 -13 16 -21 21 -21
13z"/>
<path d="M10430 22716 c0 -2 8 -10 18 -17 15 -13 16 -12 3 4 -13 16 -21 21
-21 13z"/>
<path d="M9379 22708 c-5 -18 -6 -38 -1 -34 7 8 12 36 6 36 -2 0 -4 -1 -5 -2z"/>
<path d="M10028 22687 c2 -10 5 -16 6 -15 1 2 7 10 13 18 10 13 8 16 -6 16
-13 0 -17 -6 -13 -19z"/>
<path d="M10140 22706 c0 -2 8 -10 18 -17 15 -13 16 -12 3 4 -13 16 -21 21
-21 13z"/>
<path d="M10268 22688 c2 -10 9 -18 15 -18 6 0 7 3 4 7 -4 3 -3 11 3 17 6 8 3
12 -9 12 -12 0 -17 -6 -13 -18z"/>
<path d="M10515 22702 c3 -3 -1 -12 -7 -21 -8 -10 -4 -9 10 3 26 23 26 23 7
23 -8 0 -13 -3 -10 -5z"/>
<path d="M10674 22696 c1 -8 5 -18 8 -22 4 -3 5 1 4 10 -1 8 -5 18 -8 22 -4 3
-5 -1 -4 -10z"/>
<path d="M9663 22685 c17 -19 17 -19 35 0 16 18 16 18 0 6 -15 -11 -21 -11
-35 0 -17 12 -17 12 0 -6z"/>
<path d="M9770 22696 c0 -2 8 -10 18 -17 15 -13 16 -12 3 4 -13 16 -21 21 -21
13z"/>
<path d="M9815 22689 c-4 -6 -5 -12 -2 -15 2 -3 7 2 10 11 7 17 1 20 -8 4z"/>
<path d="M9868 22693 c7 -3 16 -2 19 1 4 3 -2 6 -13 5 -11 0 -14 -3 -6 -6z"/>
<path d="M10180 22694 c0 -13 18 -39 24 -34 2 3 -2 14 -10 24 -8 11 -14 16
-14 10z"/>
<path d="M10414 22681 c0 -13 6 -17 19 -13 10 2 16 5 15 6 -2 1 -10 7 -18 13
-13 10 -16 8 -16 -6z"/>
<path d="M10629 22677 c25 -27 43 -39 22 -14 -6 8 -7 18 -3 23 4 5 3 6 -2 2
-5 -4 -16 -2 -25 4 -9 7 -5 0 8 -15z"/>
<path d="M9425 22680 c-3 -6 1 -7 9 -4 18 7 21 14 7 14 -6 0 -13 -4 -16 -10z"/>
<path d="M9510 22676 c7 -7 13 -7 20 0 6 6 3 10 -10 10 -13 0 -16 -4 -10 -10z"/>
<path d="M9715 22680 c-3 -5 -3 -10 2 -10 4 0 1 -5 -7 -11 -12 -8 -12 -10 -1
-7 8 2 15 12 17 21 3 19 -2 22 -11 7z"/>
<path d="M9910 22685 c0 -5 5 -17 10 -25 5 -8 10 -10 10 -5 0 6 -5 17 -10 25
-5 8 -10 11 -10 5z"/>
<path d="M10350 22685 c0 -5 5 -17 10 -25 5 -8 10 -10 10 -5 0 6 -5 17 -10 25
-5 8 -10 11 -10 5z"/>
<path d="M10556 22681 c-3 -5 2 -15 12 -22 15 -12 16 -12 5 2 -7 9 -10 19 -6
22 3 4 4 7 0 7 -3 0 -8 -4 -11 -9z"/>
<path d="M10746 22682 c-3 -5 1 -9 9 -9 8 0 12 4 9 9 -3 4 -7 8 -9 8 -2 0 -6
-4 -9 -8z"/>
<path d="M9633 22665 c-10 -11 -9 -13 6 -12 11 1 17 7 14 14 -6 16 -5 16 -20
-2z"/>
<path d="M9335 22660 c-3 -5 -1 -10 4 -10 6 0 11 5 11 10 0 6 -2 10 -4 10 -3
0 -8 -4 -11 -10z"/>
<path d="M9894 22662 c4 -7 2 -12 -3 -12 -6 0 -11 -4 -11 -10 0 -15 17 -12 23
5 4 8 1 17 -5 21 -7 4 -8 3 -4 -4z"/>
<path d="M10013 22663 c4 -6 2 -13 -5 -15 -8 -3 -6 -6 4 -10 17 -7 19 15 3 29
-4 4 -5 3 -2 -4z"/>
<path d="M10477 22646 c10 -12 18 -22 19 -24 1 -1 4 6 7 17 3 15 1 18 -11 14
-9 -4 -13 -2 -9 4 3 5 0 10 -8 10 -12 0 -12 -4 2 -21z"/>
<path d="M10850 22659 c0 -5 5 -7 10 -4 6 3 10 8 10 11 0 2 -4 4 -10 4 -5 0
-10 -5 -10 -11z"/>
<path d="M10939 22668 c-5 -18 -6 -38 -1 -34 7 8 12 36 6 36 -2 0 -4 -1 -5 -2z"/>
<path d="M9768 22653 c-22 -5 -24 -20 -3 -20 8 0 16 6 19 14 3 7 4 12 3 12 -1
-1 -10 -3 -19 -6z"/>
<path d="M9802 22640 c-15 -25 -15 -30 0 -30 6 0 8 3 5 7 -4 3 -2 12 5 20 6 7
9 15 7 18 -3 2 -10 -5 -17 -15z"/>
<path d="M9960 22651 c0 -7 -4 -9 -10 -6 -5 3 -10 1 -10 -4 0 -6 4 -11 9 -11
13 0 25 20 17 27 -3 4 -6 1 -6 -6z"/>
<path d="M10312 22651 c-11 -6 -10 -10 0 -19 11 -8 14 -7 14 9 0 10 0 19 -1
19 0 0 -6 -4 -13 -9z"/>
<path d="M10381 22655 c0 -5 3 -16 8 -23 7 -11 9 -10 14 3 4 9 3 14 -2 10 -5
-3 -12 1 -14 7 -3 7 -6 9 -6 3z"/>
<path d="M9484 22638 c-3 -4 5 -5 17 -3 30 6 36 14 9 12 -12 -1 -24 -5 -26 -9z"/>
<path d="M9836 22637 c3 -10 9 -15 12 -12 3 3 0 11 -7 18 -10 9 -11 8 -5 -6z"/>
<path d="M10150 22642 c0 -4 9 -8 20 -9 11 -1 20 2 20 5 0 4 -9 8 -20 9 -11 1
-20 -2 -20 -5z"/>
<path d="M10205 22640 c-3 -6 1 -7 9 -4 18 7 21 14 7 14 -6 0 -13 -4 -16 -10z"/>
<path d="M10248 22642 c8 -5 13 -13 13 -18 -1 -5 7 -9 17 -9 9 0 20 -9 24 -20
6 -17 7 -16 5 5 -2 20 -7 24 -25 22 -13 -2 -21 1 -20 9 2 6 -4 14 -12 16 -12
4 -12 3 -2 -5z"/>
<path d="M9975 22630 c-3 -5 -3 -11 2 -12 4 0 13 -2 18 -3 6 -2 16 -3 23 -4 8
-1 10 -6 6 -13 -5 -9 -2 -9 9 1 9 7 17 19 17 25 0 8 -3 7 -8 -1 -5 -7 -13 -9
-21 -3 -8 4 -21 6 -29 2 -10 -3 -13 -1 -8 6 4 7 5 12 2 12 -3 0 -8 -4 -11 -10z"/>
<path d="M9250 22620 c0 -5 5 -10 11 -10 5 0 7 5 4 10 -3 6 -8 10 -11 10 -2 0
-4 -4 -4 -10z"/>
<path d="M9551 22614 c5 -6 7 -19 3 -28 -4 -10 -1 -16 7 -16 7 0 10 3 6 6 -3
3 -2 16 3 28 6 17 4 22 -11 22 -12 0 -15 -4 -8 -12z"/>
<path d="M9597 22613 c3 -7 6 -13 8 -13 2 0 5 6 8 13 3 8 -1 14 -8 14 -7 0
-11 -6 -8 -14z"/>
<path d="M9725 22620 c-8 -13 14 -52 26 -45 5 4 9 8 9 11 0 3 -4 3 -9 0 -5 -3
-12 1 -15 10 -9 22 -8 26 6 18 7 -4 8 -3 4 4 -9 15 -13 15 -21 2z"/>
<path d="M9910 22620 c0 -5 5 -10 10 -10 6 0 10 5 10 10 0 6 -4 10 -10 10 -5
0 -10 -4 -10 -10z"/>
<path d="M10219 22628 c-4 -15 -6 -50 -3 -41 3 7 5 15 4 19 -1 4 4 11 12 15
10 7 10 9 1 9 -7 0 -13 -1 -14 -2z"/>
<path d="M10470 22625 c1 -21 31 -49 54 -50 13 0 22 3 19 8 -3 4 -12 7 -21 5
-10 -2 -25 7 -34 22 -10 14 -18 21 -18 15z"/>
<path d="M10587 22609 c6 -22 20 -26 20 -4 0 8 -6 16 -13 19 -7 3 -10 -2 -7
-15z"/>
<path d="M10644 22619 c-3 -6 -2 -15 3 -20 5 -5 9 -1 9 11 0 23 -2 24 -12 9z"/>
<path d="M10673 22613 c0 -9 4 -10 14 -2 7 6 13 12 13 14 0 1 -6 2 -13 2 -8 0
-14 -6 -14 -14z"/>
<path d="M10710 22626 c0 -2 7 -7 16 -10 8 -3 12 -2 9 4 -6 10 -25 14 -25 6z"/>
<path d="M10970 22620 c0 -5 5 -10 11 -10 5 0 7 5 4 10 -3 6 -8 10 -11 10 -2
0 -4 -4 -4 -10z"/>
<path d="M9375 22609 c-4 -6 -14 -8 -24 -4 -13 5 -14 4 -3 -6 10 -11 15 -10
29 4 10 9 14 17 11 17 -4 0 -10 -5 -13 -11z"/>
<path d="M9495 22609 c-4 -6 -5 -12 -2 -15 2 -3 7 2 10 11 7 17 1 20 -8 4z"/>
<path d="M10191 22604 c0 -11 3 -14 6 -6 3 7 2 16 -1 19 -3 4 -6 -2 -5 -13z"/>
<path d="M9306 22602 c-3 -5 1 -9 9 -9 8 0 15 4 15 9 0 4 -4 8 -9 8 -6 0 -12
-4 -15 -8z"/>
<path d="M9430 22606 c0 -2 7 -7 16 -10 8 -3 12 -2 9 4 -6 10 -25 14 -25 6z"/>
<path d="M9768 22602 c8 -5 13 -13 13 -18 -1 -5 8 -9 19 -9 11 0 20 4 19 9 0
5 5 13 13 18 10 8 10 9 -2 5 -8 -2 -14 -10 -12 -16 1 -6 -7 -11 -18 -11 -11 0
-19 5 -17 11 1 6 -5 14 -13 16 -12 4 -12 3 -2 -5z"/>
<path d="M9850 22598 c0 -10 9 -9 35 2 17 8 16 8 -7 7 -16 -1 -28 -5 -28 -9z"/>
<path d="M9955 22600 c27 -12 43 -12 25 0 -8 5 -22 9 -30 9 -10 0 -8 -3 5 -9z"/>
<path d="M10350 22600 c-11 -7 -11 -10 -2 -10 7 0 10 -4 7 -10 -4 -6 1 -7 12
-3 17 6 17 5 2 -13 -9 -10 -19 -26 -23 -34 -4 -8 1 -5 11 7 13 17 22 20 33 13
8 -5 11 -10 7 -10 -10 0 19 -30 29 -30 3 0 1 6 -5 14 -9 11 -10 20 -1 36 9 16
8 21 -5 26 -8 3 -13 9 -10 13 2 4 -3 8 -12 8 -13 0 -13 -3 4 -16 22 -18 20
-43 -3 -34 -7 3 -11 9 -8 14 3 5 -2 12 -10 15 -9 3 -13 10 -10 15 7 11 3 11
-16 -1z"/>
<path d="M10426 22598 c3 -4 12 -8 20 -8 8 0 14 4 14 8 0 4 -9 8 -19 8 -11 0
-17 -4 -15 -8z"/>
<path d="M10548 22592 c9 -10 19 -17 21 -16 6 5 -20 34 -30 34 -5 0 -1 -8 9
-18z"/>
<path d="M10757 22592 c-15 -16 -15 -19 -2 -19 8 0 13 3 10 5 -3 3 0 11 6 19
17 20 5 16 -14 -5z"/>
<path d="M10795 22600 c-3 -5 -1 -10 4 -10 6 0 11 5 11 10 0 6 -2 10 -4 10 -3
0 -8 -4 -11 -10z"/>
<path d="M9133 22585 c0 -8 4 -12 9 -9 5 3 6 10 3 15 -9 13 -12 11 -12 -6z"/>
<path d="M9668 22593 c6 -2 18 -2 25 0 6 3 1 5 -13 5 -14 0 -19 -2 -12 -5z"/>
<path d="M9386 22582 c-3 -5 1 -9 9 -9 8 0 12 4 9 9 -3 4 -7 8 -9 8 -2 0 -6
-4 -9 -8z"/>
<path d="M9426 22582 c-3 -5 1 -9 9 -9 8 0 12 4 9 9 -3 4 -7 8 -9 8 -2 0 -6
-4 -9 -8z"/>
<path d="M9630 22580 c0 -5 5 -10 10 -10 6 0 10 5 10 10 0 6 -4 10 -10 10 -5
0 -10 -4 -10 -10z"/>
<path d="M9710 22583 c0 -6 8 -17 18 -24 16 -13 16 -13 2 6 -8 11 -16 22 -17
24 -2 2 -3 0 -3 -6z"/>
<path d="M10173 22565 c0 -14 2 -25 6 -25 10 0 11 39 2 45 -5 2 -8 -7 -8 -20z"/>
<path d="M10240 22580 c20 -13 33 -13 25 0 -3 6 -14 10 -23 10 -15 0 -15 -2
-2 -10z"/>
<path d="M10470 22581 c0 -6 4 -13 10 -16 6 -3 7 1 4 9 -7 18 -14 21 -14 7z"/>
<path d="M9837 22573 c-4 -3 -7 -11 -7 -17 0 -6 5 -5 12 2 6 6 9 14 7 17 -3 3
-9 2 -12 -2z"/>
<path d="M10580 22570 c0 -22 -2 -25 -23 -37 -12 -7 -17 -12 -12 -12 19 -1 39
17 42 38 1 12 1 21 -2 21 -3 0 -5 -4 -5 -10z"/>
<path d="M10606 22565 c-3 -8 -1 -15 5 -15 6 0 7 -5 3 -12 -4 -6 -3 -8 4 -5 5
4 8 16 5 27 -6 24 -9 25 -17 5z"/>
<path d="M9513 22549 c-2 -23 3 -25 10 -4 4 8 3 16 -1 19 -4 3 -9 -4 -9 -15z"/>
<path d="M9598 22562 c13 -4 24 -11 25 -17 4 -19 42 -10 44 10 2 15 1 16 -5 5
-9 -19 -43 -26 -40 -8 2 7 -8 14 -22 15 -24 2 -24 2 -2 -5z"/>
<path d="M10201 22554 c0 -11 3 -14 6 -6 3 7 2 16 -1 19 -3 4 -6 -2 -5 -13z"/>
<path d="M10230 22560 c8 -5 20 -10 25 -10 6 0 3 5 -5 10 -8 5 -19 10 -25 10
-5 0 -3 -5 5 -10z"/>
<path d="M10286 22555 c4 -8 8 -15 10 -15 2 0 4 7 4 15 0 8 -4 15 -10 15 -5 0
-7 -7 -4 -15z"/>
<path d="M10464 22551 c30 -20 46 -19 46 2 0 9 -2 9 -8 0 -6 -10 -12 -10 -28
2 -10 8 -23 14 -29 15 -5 0 3 -9 19 -19z"/>
<path d="M10680 22560 c8 -5 20 -10 25 -10 6 0 3 5 -5 10 -8 5 -19 10 -25 10
-5 0 -3 -5 5 -10z"/>
<path d="M10926 22558 c3 -5 10 -6 15 -3 13 9 11 12 -6 12 -8 0 -12 -4 -9 -9z"/>
<path d="M9804 22545 c8 -8 18 -15 22 -15 3 0 1 7 -6 15 -7 8 -17 15 -22 15
-5 0 -3 -7 6 -15z"/>
<path d="M9300 22546 c0 -2 8 -10 18 -17 15 -13 16 -12 3 4 -13 16 -21 21 -21
13z"/>
<path d="M9364 22539 c-3 -6 -2 -15 3 -20 5 -5 9 -1 9 11 0 23 -2 24 -12 9z"/>
<path d="M9535 22541 c-6 -11 13 -26 22 -17 4 3 1 6 -6 6 -7 0 -9 5 -6 10 3 6
4 10 1 10 -3 0 -7 -4 -11 -9z"/>
<path d="M10430 22540 c0 -5 5 -10 10 -10 6 0 10 5 10 10 0 6 -4 10 -10 10 -5
0 -10 -4 -10 -10z"/>
<path d="M10673 22528 c1 -15 6 -23 11 -18 4 4 4 16 -2 26 -9 16 -10 14 -9 -8z"/>
<path d="M10710 22540 c-9 -6 -10 -10 -3 -10 6 0 15 5 18 10 8 12 4 12 -15 0z"/>
<path d="M10900 22546 c0 -2 8 -10 18 -17 15 -13 16 -12 3 4 -13 16 -21 21
-21 13z"/>
<path d="M9468 22533 c6 -2 10 -9 7 -14 -4 -5 1 -6 10 -2 13 5 14 7 3 14 -7 5
-17 8 -23 8 -5 0 -4 -3 3 -6z"/>
<path d="M10846 22521 c-13 -14 -14 -21 -5 -27 8 -5 10 -3 4 6 -6 9 -4 12 6 8
10 -4 15 1 15 13 0 23 1 23 -20 0z"/>
<path d="M9240 22525 c0 -2 6 -8 13 -14 10 -8 14 -7 14 2 0 8 -6 14 -14 14 -7
0 -13 -1 -13 -2z"/>
<path d="M9570 22520 c0 -5 5 -10 10 -10 6 0 10 5 10 10 0 6 -4 10 -10 10 -5
0 -10 -4 -10 -10z"/>
<path d="M9607 22519 c7 -7 15 -10 18 -7 3 3 -2 9 -12 12 -14 6 -15 5 -6 -5z"/>
<path d="M10581 22520 c-9 -5 -4 -7 13 -7 29 0 32 2 13 10 -8 3 -20 2 -26 -3z"/>
<path d="M10642 22516 c7 -8 15 -12 17 -11 5 6 -10 25 -20 25 -5 0 -4 -6 3
-14z"/>
<path d="M10737 22513 c3 -7 6 -13 8 -13 2 0 5 6 8 13 3 8 -1 14 -8 14 -7 0
-11 -6 -8 -14z"/>
<path d="M10795 22521 c-6 -11 13 -26 22 -17 4 3 1 6 -6 6 -7 0 -9 5 -6 10 3
6 4 10 1 10 -3 0 -7 -4 -11 -9z"/>
<path d="M10770 22511 c0 -6 4 -13 10 -16 6 -3 7 1 4 9 -7 18 -14 21 -14 7z"/>
<path d="M11215 22511 c-3 -5 -2 -12 3 -15 5 -3 9 1 9 9 0 17 -3 19 -12 6z"/>
<path d="M9233 22494 c16 -20 52 -30 41 -12 -4 5 -9 7 -12 4 -3 -3 -15 2 -26
11 -21 18 -21 18 -3 -3z"/>
<path d="M9430 22500 c0 -5 7 -7 15 -4 8 4 15 8 15 10 0 2 -7 4 -15 4 -8 0
-15 -4 -15 -10z"/>
<path d="M9484 22499 c-4 -7 -3 -9 4 -5 6 3 13 -2 15 -11 4 -16 5 -16 6 -1 1
21 -15 32 -25 17z"/>
<path d="M10625 22500 c-7 -12 3 -50 13 -50 4 0 15 9 24 19 16 18 15 20 -2 18
-11 -1 -16 -6 -12 -16 4 -10 1 -12 -7 -7 -7 5 -11 17 -8 27 6 21 2 25 -8 9z"/>
<path d="M10699 22508 c-6 -21 -5 -37 2 -32 5 3 9 0 9 -7 0 -7 3 -9 6 -6 4 4
1 14 -7 24 -12 15 -12 16 4 10 9 -3 17 -2 17 3 0 8 -28 15 -31 8z"/>
<path d="M10866 22478 l-18 -33 21 25 c18 22 26 40 18 40 -1 0 -11 -15 -21
-32z"/>
<path d="M9086 22482 c-3 -5 1 -9 9 -9 8 0 12 4 9 9 -3 4 -7 8 -9 8 -2 0 -6
-4 -9 -8z"/>
<path d="M9150 22483 c0 -6 8 -17 18 -24 16 -13 16 -13 2 6 -8 11 -16 22 -17
24 -2 2 -3 0 -3 -6z"/>
<path d="M9334 22474 c1 -8 6 -17 11 -21 4 -4 5 -2 1 5 -4 6 -2 12 3 12 6 0
11 4 11 8 0 5 -6 9 -14 9 -7 0 -13 -6 -12 -13z"/>
<path d="M9440 22480 c-8 -5 -10 -10 -5 -10 6 0 17 5 25 10 8 5 11 10 5 10 -5
0 -17 -5 -25 -10z"/>
<path d="M10746 22478 c3 -4 9 -8 15 -8 5 0 9 4 9 8 0 5 -7 9 -15 9 -8 0 -12
-4 -9 -9z"/>
<path d="M9480 22472 c0 -7 -6 -11 -12 -9 -7 1 -13 -4 -13 -12 0 -8 6 -15 13
-17 7 -1 8 0 2 3 -5 2 -10 9 -10 14 0 6 4 8 9 4 11 -6 26 13 17 22 -3 4 -6 1
-6 -5z"/>
<path d="M9313 22447 c1 -15 5 -27 10 -27 10 0 9 22 -2 39 -7 10 -9 7 -8 -12z"/>
<path d="M10730 22463 c0 -4 5 -15 10 -23 8 -13 10 -13 10 2 0 9 -4 20 -10 23
-5 3 -10 3 -10 -2z"/>
<path d="M9250 22451 c0 -7 -4 -10 -8 -7 -5 3 -9 -1 -9 -9 0 -8 4 -15 8 -15 9
0 21 31 14 38 -3 3 -5 0 -5 -7z"/>
<path d="M11155 22451 c-3 -5 -2 -12 3 -15 5 -3 9 1 9 9 0 17 -3 19 -12 6z"/>
<path d="M11295 22451 c-3 -5 -2 -12 3 -15 5 -3 9 1 9 9 0 17 -3 19 -12 6z"/>
<path d="M9277 22433 c3 -7 6 -13 8 -13 2 0 5 6 8 13 3 8 -1 14 -8 14 -7 0
-11 -6 -8 -14z"/>
<path d="M9357 22443 c-12 -11 -8 -23 9 -23 8 0 12 -5 9 -10 -4 -6 -15 -8 -25
-5 -10 3 -21 1 -25 -4 -4 -7 1 -8 12 -4 16 6 16 5 4 -10 -9 -11 -10 -17 -2
-17 6 0 11 5 11 11 0 5 5 7 10 4 6 -3 10 -1 10 5 0 6 4 9 9 6 5 -4 8 2 7 11
-2 9 -8 19 -14 21 -7 2 -10 8 -6 13 6 10 0 12 -9 2z"/>
<path d="M10830 22440 c0 -6 7 -10 15 -10 8 0 15 2 15 4 0 2 -7 6 -15 10 -8 3
-15 1 -15 -4z"/>
<path d="M11180 22446 c0 -2 8 -10 18 -17 15 -13 16 -12 3 4 -13 16 -21 21
-21 13z"/>
<path d="M9119 22435 c-1 -3 -2 -8 -3 -12 -1 -5 -5 -15 -10 -23 -7 -12 -6 -13
4 -3 13 12 23 43 14 43 -2 0 -5 -2 -5 -5z"/>
<path d="M9149 22423 c-13 -16 -12 -17 4 -4 9 7 17 15 17 17 0 8 -8 3 -21 -13z"/>
<path d="M10790 22430 c0 -5 7 -10 16 -10 14 0 14 -3 4 -15 -14 -17 -35 -21
-25 -5 3 6 1 10 -5 10 -16 0 -6 -24 11 -28 8 -1 20 7 26 17 11 17 10 22 -7 31
-14 7 -20 7 -20 0z"/>
<path d="M8935 22420 c3 -5 8 -10 11 -10 2 0 4 5 4 10 0 6 -5 10 -11 10 -5 0
-7 -4 -4 -10z"/>
<path d="M9189 22419 c5 -6 7 -19 4 -28 -5 -13 -3 -14 8 -3 11 10 10 15 -4 27
-9 8 -13 10 -8 4z"/>
<path d="M11330 22426 c0 -2 7 -7 16 -10 8 -3 12 -2 9 4 -6 10 -25 14 -25 6z"/>
<path d="M11136 22407 c3 -10 9 -15 12 -12 3 3 0 11 -7 18 -10 9 -11 8 -5 -6z"/>
<path d="M9246 22402 c-3 -5 1 -9 9 -9 8 0 15 4 15 9 0 4 -4 8 -9 8 -6 0 -12
-4 -15 -8z"/>
<path d="M9290 22400 c0 -5 5 -10 10 -10 6 0 10 5 10 10 0 6 -4 10 -10 10 -5
0 -10 -4 -10 -10z"/>
<path d="M11100 22395 c-11 -13 -10 -14 4 -9 9 3 16 10 16 15 0 13 -6 11 -20
-6z"/>
<path d="M9069 22383 c-13 -16 -12 -17 4 -4 16 13 21 21 13 21 -2 0 -10 -8
-17 -17z"/>
<path d="M8893 22369 c-2 -23 3 -25 10 -4 4 8 3 16 -1 19 -4 3 -9 -4 -9 -15z"/>
<path d="M8935 22380 c-3 -5 -1 -10 4 -10 6 0 11 5 11 10 0 6 -2 10 -4 10 -3
0 -8 -4 -11 -10z"/>
<path d="M9087 22366 c-17 -13 -17 -14 1 -18 12 -4 18 1 18 13 0 11 0 19 -1
19 0 0 -8 -7 -18 -14z"/>
<path d="M9135 22368 c3 -7 23 -14 46 -15 48 -2 48 3 0 12 -19 3 -38 8 -43 11
-4 3 -6 -1 -3 -8z"/>
<path d="M9234 22352 c3 -27 1 -32 -14 -27 -23 7 -32 -6 -18 -25 8 -12 9 -12
4 2 -4 14 0 16 25 13 16 -2 27 1 24 6 -4 5 -1 9 4 9 6 0 11 5 11 11 0 8 -6 7
-17 -2 -14 -12 -16 -12 -11 2 3 9 2 22 -3 30 -6 9 -8 3 -5 -19z"/>
<path d="M9270 22370 c0 -5 5 -10 10 -10 6 0 10 5 10 10 0 6 -4 10 -10 10 -5
0 -10 -4 -10 -10z"/>
<path d="M9310 22372 c0 -7 -9 -22 -20 -34 -11 -12 -20 -26 -20 -32 0 -6 7 -1
15 11 9 13 22 26 30 30 10 6 11 13 5 23 -7 11 -10 11 -10 2z"/>
<path d="M11135 22370 c-4 -6 -11 -7 -17 -4 -6 4 -6 -2 1 -15 14 -25 23 -28
14 -4 -4 10 -2 14 4 10 5 -3 10 0 10 8 0 18 -3 19 -12 5z"/>
<path d="M11174 22360 c0 -13 4 -16 10 -10 7 7 7 13 0 20 -6 6 -10 3 -10 -10z"/>
<path d="M11235 22369 c-4 -6 -5 -12 -2 -15 2 -3 7 2 10 11 7 17 1 20 -8 4z"/>
<path d="M10211 22350 c-14 -12 -21 -26 -17 -36 3 -9 3 -21 -1 -27 -12 -20
-12 -57 0 -54 7 1 12 -6 12 -15 0 -9 3 -20 7 -23 9 -9 48 13 48 27 0 7 -4 7
-14 -1 -10 -9 -17 -7 -27 6 -13 16 -12 17 3 5 9 -8 19 -9 22 -4 6 11 -21 25
-33 17 -4 -2 -8 2 -8 9 0 8 7 12 16 9 13 -4 13 -3 2 5 -9 7 -10 12 -2 16 6 4
11 2 11 -4 0 -6 5 -8 11 -4 8 5 8 9 -1 14 -8 5 -8 10 -2 14 5 3 13 -1 16 -10
5 -13 9 -14 21 -4 14 12 20 7 16 -14 -1 -5 5 -6 14 -2 9 3 14 2 11 -3 -3 -5 1
-12 10 -15 24 -9 29 -7 16 6 -17 17 -15 27 7 25 22 -1 21 -10 -2 -54 -17 -33
-31 -45 -21 -20 3 8 -2 14 -11 14 -8 0 -15 -4 -15 -8 0 -5 -7 -6 -15 -3 -8 4
-17 -1 -21 -10 -3 -9 -12 -16 -20 -16 -8 0 -14 -4 -14 -10 0 -16 12 -12 37 12
13 12 23 16 23 10 0 -8 10 -11 26 -8 15 3 39 -1 55 -9 18 -10 30 -11 34 -5 3
6 0 10 -7 10 -11 0 -10 2 0 9 11 7 11 9 -2 14 -9 4 -13 13 -10 22 4 9 9 13 12
11 3 -3 12 0 21 7 14 11 14 10 2 -5 -13 -17 -2 -26 13 -10 13 12 30 8 47 -12
13 -16 19 -17 35 -7 13 9 14 11 2 7 -9 -2 -24 5 -35 16 -10 12 -12 18 -4 13 9
-5 12 -4 8 2 -4 6 0 17 9 24 12 10 15 10 12 -2 -2 -9 4 -13 17 -12 19 1 19 1
2 -12 -15 -11 -15 -14 -3 -18 9 -4 18 -2 22 4 4 6 12 5 22 -3 13 -11 15 -10 9
5 -9 24 0 21 14 -4 7 -13 7 -19 1 -15 -7 4 -9 -5 -7 -25 3 -21 0 -29 -8 -26
-7 2 -10 13 -9 23 2 10 1 16 -4 12 -4 -4 -13 -3 -21 3 -9 8 -13 8 -13 1 0 -6
5 -14 10 -17 6 -4 8 -16 5 -28 -2 -12 -2 -16 1 -9 3 6 10 9 16 6 6 -4 6 -9 -3
-14 -16 -11 -39 -1 -33 14 3 7 -5 12 -17 13 -16 2 -19 -1 -11 -9 6 -6 8 -16 6
-23 -3 -6 2 -17 10 -24 8 -7 13 -18 10 -25 -3 -7 5 -21 16 -31 20 -18 21 -18
47 8 22 22 24 28 13 41 -10 13 -10 16 1 16 8 0 6 6 -7 16 -10 8 -14 13 -7 10
6 -4 15 -2 18 4 5 8 11 8 20 0 10 -9 16 -7 24 8 13 24 3 36 -16 20 -8 -6 -13
-7 -12 -2 2 5 -4 23 -14 40 -9 17 -14 34 -10 37 3 4 -4 4 -17 2 -13 -3 -35 5
-54 19 -41 29 -71 26 -71 -7 0 -14 -43 -18 -51 -5 -3 5 0 17 7 26 7 9 9 14 5
10 -5 -4 -16 -2 -24 5 -13 10 -14 9 -7 -3 13 -21 14 -50 2 -57 -6 -3 -7 -2 -4
4 9 15 -18 48 -40 48 -10 0 -17 6 -15 13 3 17 -15 15 -22 -3 -4 -13 -10 -14
-26 -5 -11 6 -20 8 -20 4 0 -3 -7 -1 -15 6 -11 9 -13 16 -5 24 12 12 13 26 3
26 -5 -1 -19 -10 -32 -20z m21 -2 c-7 -7 -8 -16 -2 -23 7 -8 1 -19 -17 -36
-15 -13 -22 -16 -14 -7 7 9 10 22 6 28 -6 10 21 50 34 50 3 0 0 -5 -7 -12z
m93 -48 c3 -5 1 -10 -4 -10 -6 0 -11 5 -11 10 0 6 2 10 4 10 3 0 8 -4 11 -10z
m175 -5 c0 -1 -12 -12 -27 -26 -14 -13 -22 -17 -17 -9 5 8 9 18 10 23 1 4 2 9
3 10 1 4 31 5 31 2z m-120 -55 c0 -5 -5 -10 -11 -10 -8 0 -7 -5 1 -15 7 -9 10
-18 6 -22 -3 -3 -6 -1 -6 6 0 7 -4 10 -9 7 -5 -4 -8 2 -6 11 2 10 4 21 4 26 1
11 21 8 21 -3z m234 -39 c3 -4 0 -16 -7 -25 -11 -14 -12 -13 -13 9 -2 24 10
34 20 16z m-79 -72 c11 -16 1 -19 -13 -3 -7 8 -8 14 -3 14 5 0 13 -5 16 -11z
m50 3 c-5 -4 -12 -16 -13 -26 -3 -18 -2 -18 15 -6 12 9 10 6 -4 -10 -19 -20
-24 -21 -38 -10 -15 12 -14 15 7 26 14 9 17 13 8 14 -13 0 -13 1 0 10 18 12
40 14 25 2z"/>
<path d="M10210 22320 c0 -5 5 -10 11 -10 5 0 7 5 4 10 -3 6 -8 10 -11 10 -2
0 -4 -4 -4 -10z"/>
<path d="M10550 22090 c0 -5 5 -10 11 -10 5 0 7 5 4 10 -3 6 -8 10 -11 10 -2
0 -4 -4 -4 -10z"/>
<path d="M10780 22360 c0 -5 5 -10 11 -10 5 0 7 5 4 10 -3 6 -8 10 -11 10 -2
0 -4 -4 -4 -10z"/>
<path d="M11334 22336 c1 -8 5 -18 8 -22 4 -3 5 1 4 10 -1 8 -5 18 -8 22 -4 3
-5 -1 -4 -10z"/>
<path d="M9054 22321 c0 -12 5 -17 15 -13 10 4 12 1 6 -8 -6 -9 -4 -11 4 -6 9
6 8 13 -5 27 -21 23 -20 23 -20 0z"/>
<path d="M11259 22338 c-5 -18 -6 -38 -1 -34 7 8 12 36 6 36 -2 0 -4 -1 -5 -2z"/>
<path d="M8767 22319 c7 -7 15 -10 18 -7 3 3 -2 9 -12 12 -14 6 -15 5 -6 -5z"/>
<path d="M8979 22313 c-13 -16 -12 -17 4 -4 9 7 17 15 17 17 0 8 -8 3 -21 -13z"/>
<path d="M9113 22315 c0 -8 4 -15 9 -15 4 0 8 7 8 15 0 8 -4 15 -8 15 -5 0 -9
-7 -9 -15z"/>
<path d="M11190 22323 c0 -6 8 -17 18 -24 16 -13 16 -13 2 6 -8 11 -16 22 -17
24 -2 2 -3 0 -3 -6z"/>
<path d="M11296 22322 c-3 -5 1 -9 9 -9 8 0 12 4 9 9 -3 4 -7 8 -9 8 -2 0 -6
-4 -9 -8z"/>
<path d="M11104 22304 c-18 -14 -18 -15 4 -4 12 6 22 13 22 15 0 8 -5 6 -26
-11z"/>
<path d="M11147 22293 c5 -12 3 -14 -8 -8 -8 5 -11 4 -6 0 4 -5 13 -10 21 -11
16 -2 17 24 0 30 -9 3 -11 -1 -7 -11z"/>
<path d="M9228 22289 c-10 -5 -18 -15 -18 -20 0 -6 7 -3 16 5 8 9 20 16 25 16
15 0 10 -18 -6 -23 -11 -4 -10 -4 2 -3 19 1 25 27 8 32 -5 2 -18 -1 -27 -7z"/>
<path d="M11315 22289 c-4 -6 -5 -12 -2 -15 2 -3 7 2 10 11 7 17 1 20 -8 4z"/>
<path d="M8895 22279 c-5 -7 92 -6 99 2 3 2 -18 5 -45 4 -28 0 -53 -3 -54 -6z"/>
<path d="M9026 22282 c-2 -4 4 -8 14 -8 10 0 16 4 14 8 -3 4 -9 8 -14 8 -5 0
-11 -4 -14 -8z"/>
<path d="M9140 22280 c16 -10 9 -13 -25 -11 -16 1 -15 -1 5 -10 17 -7 26 -7
28 1 2 5 9 7 15 3 7 -4 6 1 -2 10 -7 9 -19 17 -25 17 -6 0 -4 -5 4 -10z"/>
<path d="M10272 22278 c-7 -7 -12 -8 -12 -4 0 5 -7 3 -15 -4 -13 -11 -13 -14
2 -26 21 -16 57 -19 48 -4 -4 6 -14 9 -22 8 -9 -2 -17 3 -19 10 -1 7 0 8 2 3
3 -6 11 -8 18 -5 8 3 20 -1 27 -8 15 -13 39 -22 39 -13 0 2 -14 12 -30 20 -17
9 -28 20 -25 25 8 14 1 12 -13 -2z"/>
<path d="M11237 22272 c-15 -17 -15 -18 6 -19 12 0 16 1 9 4 -10 4 -10 8 -1
19 17 20 5 17 -14 -4z"/>
<path d="M11276 22282 c-3 -5 1 -9 9 -9 8 0 12 4 9 9 -3 4 -7 8 -9 8 -2 0 -6
-4 -9 -8z"/>
<path d="M11075 22269 c-4 -6 -5 -12 -2 -15 2 -3 7 2 10 11 7 17 1 20 -8 4z"/>
<path d="M8773 22255 c0 -8 4 -12 9 -9 5 3 6 10 3 15 -9 13 -12 11 -12 -6z"/>
<path d="M8810 22260 c0 -5 5 -10 11 -10 5 0 7 5 4 10 -3 6 -8 10 -11 10 -2 0
-4 -4 -4 -10z"/>
<path d="M9070 22259 c0 -5 5 -7 10 -4 6 3 10 8 10 11 0 2 -4 4 -10 4 -5 0
-10 -5 -10 -11z"/>
<path d="M10494 22256 c1 -8 5 -18 8 -22 4 -3 5 1 4 10 -1 8 -5 18 -8 22 -4 3
-5 -1 -4 -10z"/>
<path d="M11022 22262 c2 -8 7 -13 12 -12 5 1 13 -4 18 -12 8 -11 9 -11 6 0
-2 8 -7 13 -12 12 -5 -1 -13 4 -18 12 -8 11 -9 11 -6 0z"/>
<path d="M11094 22258 c-4 -5 -3 -12 0 -15 3 -4 6 -1 6 5 0 6 7 9 15 6 8 -4
15 -2 15 3 0 12 -29 13 -36 1z"/>
<path d="M8929 22243 c-13 -16 -12 -17 4 -4 9 7 17 15 17 17 0 8 -8 3 -21 -13z"/>
<path d="M9020 22251 c0 -7 -4 -10 -9 -6 -5 3 -13 0 -17 -6 -4 -8 -3 -9 4 -5
7 4 12 1 12 -6 0 -8 5 -6 11 5 6 10 8 21 5 24 -3 4 -6 1 -6 -6z"/>
<path d="M11170 22254 c0 -2 9 -8 20 -14 11 -6 20 -7 20 -2 0 6 -9 12 -20 15
-11 3 -20 3 -20 1z"/>
<path d="M9090 22236 c0 -7 7 -19 15 -26 14 -11 19 -7 16 13 0 4 4 7 11 7 6 0
8 3 5 6 -4 4 -14 1 -24 -7 -15 -12 -16 -12 -10 4 3 9 2 17 -3 17 -6 0 -10 -6
-10 -14z"/>
<path d="M11000 22245 c0 -10 82 -56 93 -51 9 3 8 5 -1 5 -7 1 -30 12 -52 26
-22 14 -40 23 -40 20z"/>
<path d="M10435 22230 c-4 -6 -16 -8 -28 -5 -20 5 -20 5 -4 -5 9 -6 15 -15 12
-21 -9 -14 8 -11 35 7 l25 16 -22 -20 c-19 -17 -20 -21 -7 -26 8 -3 12 -10 9
-16 -3 -5 -1 -10 5 -10 6 0 10 8 9 18 -3 32 1 43 12 36 8 -5 8 -8 0 -14 -7 -4
4 -6 23 -6 26 1 32 4 24 13 -6 7 -15 10 -20 7 -5 -3 -17 1 -26 8 -28 24 -40
29 -47 18z"/>
<path d="M10545 22230 c-3 -5 -5 -10 -3 -11 33 -8 38 -7 27 7 -14 17 -16 17
-24 4z"/>
<path d="M11160 22231 c0 -7 -5 -9 -10 -6 -13 8 -24 -20 -16 -41 5 -13 9 -13
30 3 13 10 22 20 20 22 -2 2 -13 -4 -24 -14 -19 -18 -20 -17 -20 4 0 12 4 20
9 16 11 -6 26 13 17 22 -3 4 -6 1 -6 -6z"/>
<path d="M8726 22222 c-3 -5 1 -9 9 -9 8 0 12 4 9 9 -3 4 -7 8 -9 8 -2 0 -6
-4 -9 -8z"/>
<path d="M8775 22220 c-3 -5 -1 -10 4 -10 6 0 11 5 11 10 0 6 -2 10 -4 10 -3
0 -8 -4 -11 -10z"/>
<path d="M9030 22218 c0 -6 7 -7 16 -4 12 5 15 2 10 -9 -3 -9 -2 -14 3 -10 5
3 11 0 13 -7 3 -7 7 -5 11 6 4 9 3 15 -2 11 -5 -3 -11 0 -13 7 -5 14 -38 20
-38 6z"/>
<path d="M11090 22221 c0 -5 7 -12 16 -15 14 -5 15 -4 4 9 -14 17 -20 19 -20
6z"/>
<path d="M11214 22218 c-4 -7 -3 -8 4 -4 7 4 12 4 12 -1 0 -15 -15 -29 -30
-28 -19 1 -40 -14 -40 -29 0 -6 6 -2 12 8 10 18 11 18 25 -5 l14 -24 -7 24
c-4 16 -3 21 5 17 6 -4 14 0 17 8 3 9 9 14 13 11 4 -2 8 2 8 10 0 18 -24 28
-33 13z"/>
<path d="M11453 22209 c-2 -23 3 -25 10 -4 4 8 3 16 -1 19 -4 3 -9 -4 -9 -15z"/>
<path d="M8981 22215 c0 -5 3 -16 8 -23 7 -11 9 -10 14 3 4 9 3 14 -2 10 -5
-3 -12 1 -14 7 -3 7 -6 9 -6 3z"/>
<path d="M8694 22196 c1 -8 5 -18 8 -22 4 -3 5 1 4 10 -1 8 -5 18 -8 22 -4 3
-5 -1 -4 -10z"/>
<path d="M8933 22197 c-4 -6 -1 -7 7 -2 10 6 12 4 7 -8 -9 -23 0 -22 12 1 8
14 6 19 -5 19 -8 0 -18 -5 -21 -10z"/>
<path d="M11284 22202 c4 -3 14 -7 22 -8 9 -1 13 0 10 4 -4 3 -14 7 -22 8 -9
1 -13 0 -10 -4z"/>
<path d="M9015 22190 c-3 -6 2 -13 12 -16 35 -11 48 -22 46 -40 -1 -11 0 -13
3 -6 3 6 10 10 15 6 5 -3 9 0 9 5 0 6 -5 11 -12 11 -6 0 -3 9 7 20 10 11 13
20 8 20 -6 0 -14 -8 -17 -17 -5 -12 -9 -14 -18 -5 -7 7 -20 12 -31 12 -10 0
-15 5 -12 10 3 6 4 10 1 10 -3 0 -8 -5 -11 -10z"/>
<path d="M11106 22181 c-7 -11 3 -41 13 -41 4 0 8 7 8 15 0 8 -5 11 -10 8 -6
-4 -8 0 -4 10 7 18 2 23 -7 8z"/>
<path d="M11275 22180 c6 -10 4 -12 -11 -6 -15 6 -17 5 -6 -5 9 -9 15 -10 23
-2 8 8 7 13 -2 18 -8 6 -10 4 -4 -5z"/>
<path d="M11390 22178 c0 -4 4 -8 9 -8 6 0 12 4 15 8 3 5 -1 9 -9 9 -8 0 -15
-4 -15 -9z"/>
<path d="M10400 22159 c-7 -11 -9 -23 -6 -27 3 -3 6 -2 6 3 0 4 9 0 19 -10 19
-16 21 -16 51 5 16 12 28 26 24 31 -3 6 -11 3 -18 -7 -13 -16 -42 -11 -31 6 3
4 -2 11 -11 14 -22 8 -22 8 -34 -15z m44 -28 c9 -12 8 -12 -11 -1 -13 8 -19
20 -15 29 5 13 6 13 10 0 3 -7 10 -20 16 -28z"/>
<path d="M8795 22160 c-3 -5 -1 -10 4 -10 6 0 11 5 11 10 0 6 -2 10 -4 10 -3
0 -8 -4 -11 -10z"/>
<path d="M8845 22159 c-3 -4 2 -6 10 -5 21 3 28 13 10 13 -9 0 -18 -4 -20 -8z"/>
<path d="M8890 22158 c0 -11 12 -10 30 2 12 7 10 9 -8 7 -12 0 -22 -5 -22 -9z"/>
<path d="M8955 22160 c-3 -6 0 -12 7 -15 8 -3 14 -15 15 -26 2 -18 0 -19 -15
-7 -15 12 -16 11 -3 -4 7 -10 17 -15 22 -12 12 7 5 47 -9 52 -7 2 -10 8 -6 13
3 5 3 9 0 9 -3 0 -8 -5 -11 -10z"/>
<path d="M8984 22163 c4 -4 16 -8 28 -10 28 -4 18 6 -12 12 -12 2 -20 1 -16
-2z"/>
<path d="M10370 22160 c0 -5 5 -10 10 -10 6 0 10 5 10 10 0 6 -4 10 -10 10 -5
0 -10 -4 -10 -10z"/>
<path d="M11231 22154 c0 -11 3 -14 6 -6 3 7 2 16 -1 19 -3 4 -6 -2 -5 -13z"/>
<path d="M11347 22148 c-5 -21 -5 -21 7 -6 7 10 17 14 21 10 5 -4 5 -1 1 6
-11 19 -23 14 -29 -10z"/>
<path d="M8925 22140 c-6 -9 11 -50 21 -50 2 0 0 9 -6 19 -13 26 -13 34 2 25
7 -4 8 -3 4 4 -9 15 -13 15 -21 2z"/>
<path d="M9030 22135 c-11 -13 -15 -13 -23 -3 -6 9 -7 7 -3 -6 4 -11 0 -26
-10 -37 -15 -16 -14 -17 10 -15 15 2 30 7 34 11 4 4 -4 4 -16 0 -23 -7 -24 -7
-7 19 10 15 25 31 34 36 9 5 11 10 5 10 -6 0 -17 -7 -24 -15z"/>
<path d="M11177 22143 c-4 -3 -7 -13 -7 -22 1 -13 3 -13 11 2 11 19 8 33 -4
20z"/>
<path d="M11270 22140 c0 -5 5 -10 10 -10 6 0 10 5 10 10 0 6 -4 10 -10 10 -5
0 -10 -4 -10 -10z"/>
<path d="M8853 22125 c-3 -9 -3 -18 -1 -21 3 -3 8 4 11 16 6 23 -1 27 -10 5z"/>
<path d="M11366 22127 c-17 -12 -17 -14 1 -28 17 -13 17 -13 3 5 -13 18 -13
19 1 14 10 -4 16 -1 16 8 0 17 1 17 -21 1z"/>
<path d="M11424 22122 c23 -26 23 -26 23 -7 0 8 -3 13 -5 10 -3 -3 -12 1 -21
7 -10 8 -9 4 3 -10z"/>
<path d="M11511 22127 c-8 -10 -7 -14 2 -14 8 0 14 6 14 14 0 7 -1 13 -2 13
-2 0 -8 -6 -14 -13z"/>
<path d="M8773 22113 c0 -9 4 -10 14 -2 7 6 13 12 13 14 0 1 -6 2 -13 2 -8 0
-14 -6 -14 -14z"/>
<path d="M11200 22120 c-8 -5 -12 -11 -10 -14 3 -2 14 2 24 10 22 15 10 19
-14 4z"/>
<path d="M11300 22120 c0 -5 5 -10 11 -10 5 0 7 5 4 10 -3 6 -8 10 -11 10 -2
0 -4 -4 -4 -10z"/>
<path d="M8896 22103 c-6 -14 -5 -15 5 -6 7 7 10 15 7 18 -3 3 -9 -2 -12 -12z"/>
<path d="M8650 22100 c0 -5 5 -10 11 -10 5 0 7 5 4 10 -3 6 -8 10 -11 10 -2 0
-4 -4 -4 -10z"/>
<path d="M11209 22093 c-8 -10 -9 -14 -2 -10 6 4 14 3 18 -3 3 -5 11 -10 18
-10 6 0 2 7 -9 15 -19 15 -19 16 1 13 11 -2 24 -7 28 -13 5 -6 7 -4 5 4 -6 21
-44 23 -59 4z"/>
<path d="M11324 22099 c-3 -6 -2 -15 4 -21 6 -6 12 -6 17 3 6 8 4 10 -5 4 -10
-6 -12 -4 -7 8 7 19 2 23 -9 6z"/>
<path d="M8745 22079 c-3 -4 2 -6 10 -5 21 3 28 13 10 13 -9 0 -18 -4 -20 -8z"/>
<path d="M8910 22086 c0 -2 7 -7 16 -10 8 -3 12 -2 9 4 -6 10 -25 14 -25 6z"/>
<path d="M11280 22080 c0 -5 5 -10 11 -10 5 0 7 5 4 10 -3 6 -8 10 -11 10 -2
0 -4 -4 -4 -10z"/>
<path d="M8786 22063 c-6 -14 -5 -15 5 -6 7 7 10 15 7 18 -3 3 -9 -2 -12 -12z"/>
<path d="M8826 22063 c-6 -14 -5 -15 5 -6 7 7 10 15 7 18 -3 3 -9 -2 -12 -12z"/>
<path d="M8875 22069 c-4 -6 -5 -12 -2 -15 2 -3 7 2 10 11 7 17 1 20 -8 4z"/>
<path d="M8950 22070 c0 -5 5 -10 10 -10 6 0 10 5 10 10 0 6 -4 10 -10 10 -5
0 -10 -4 -10 -10z"/>
<path d="M8910 22060 c0 -5 5 -10 11 -10 8 0 7 -6 -2 -16 -12 -15 -14 -14 -20
7 -7 23 -7 23 -8 2 -1 -30 10 -34 35 -14 21 17 21 18 3 29 -12 8 -19 8 -19 2z"/>
<path d="M8733 22047 c0 -8 6 -14 14 -14 9 0 10 4 2 14 -6 7 -12 13 -14 13 -1
0 -2 -6 -2 -13z"/>
<path d="M8796 22033 c-6 -14 -5 -15 5 -6 7 7 10 15 7 18 -3 3 -9 -2 -12 -12z"/>
<path d="M8845 22040 c-3 -5 -1 -10 4 -10 6 0 11 5 11 10 0 6 -2 10 -4 10 -3
0 -8 -4 -11 -10z"/>
<path d="M8765 22019 c-4 -6 -5 -12 -2 -15 2 -3 7 2 10 11 7 17 1 20 -8 4z"/>
<path d="M8870 22021 c0 -6 4 -13 10 -16 6 -3 7 1 4 9 -7 18 -14 21 -14 7z"/>
<path d="M8929 22013 c-8 -9 -9 -14 -4 -11 12 7 37 -17 28 -26 -4 -3 -1 -6 5
-6 14 0 10 52 -4 57 -6 2 -17 -4 -25 -14z m31 -3 c0 -5 -2 -10 -4 -10 -3 0 -8
5 -11 10 -3 6 -1 10 4 10 6 0 11 -4 11 -10z"/>
<path d="M8736 22007 c3 -10 9 -15 12 -12 3 3 0 11 -7 18 -10 9 -11 8 -5 -6z"/>
<path d="M8834 22012 c3 -6 0 -13 -6 -16 -7 -3 -2 -3 11 0 15 4 21 2 17 -4 -7
-12 32 -37 42 -28 3 3 0 6 -7 6 -7 0 -9 4 -6 10 4 6 -1 7 -11 3 -11 -4 -15 -3
-10 5 3 6 -3 16 -15 22 -12 7 -19 8 -15 2z"/>
<path d="M8790 22005 c0 -5 5 -17 10 -25 5 -8 10 -10 10 -5 0 6 -5 17 -10 25
-5 8 -10 11 -10 5z"/>
<path d="M8710 21996 c0 -2 8 -10 18 -17 15 -13 16 -12 3 4 -13 16 -21 21 -21
13z"/>
<path d="M8635 21980 c-3 -5 -1 -10 4 -10 6 0 11 5 11 10 0 6 -2 10 -4 10 -3
0 -8 -4 -11 -10z"/>
<path d="M8774 21982 c3 -6 -2 -12 -11 -14 -16 -3 -17 -4 -1 -10 19 -8 33 17
16 28 -6 4 -8 3 -4 -4z"/>
<path d="M8926 21977 c3 -10 9 -15 12 -12 3 3 0 11 -7 18 -10 9 -11 8 -5 -6z"/>
<path d="M8702 21964 c10 -10 20 -16 22 -13 3 3 -5 11 -17 18 -21 13 -21 12
-5 -5z"/>
<path d="M8520 21960 c-9 -6 -10 -10 -3 -10 6 0 15 5 18 10 8 12 4 12 -15 0z"/>
<path d="M8673 21953 c0 -11 7 -20 14 -20 10 0 10 4 1 16 -7 9 -13 18 -15 20
-1 2 -1 -5 0 -16z"/>
<path d="M8830 21960 c-13 -8 -12 -10 3 -10 9 0 17 5 17 10 0 12 -1 12 -20 0z"/>
<path d="M8896 21945 c-10 -14 -23 -22 -28 -19 -6 4 -5 10 3 16 12 8 12 9 0 6
-8 -2 -15 -12 -17 -22 -1 -10 0 -15 3 -12 3 3 12 -2 20 -10 9 -8 18 -12 22 -8
3 4 0 9 -7 11 -10 4 -8 11 9 29 12 13 20 26 18 29 -3 2 -13 -7 -23 -20z"/>
<path d="M8950 21950 c0 -5 5 -10 10 -10 6 0 10 5 10 10 0 6 -4 10 -10 10 -5
0 -10 -4 -10 -10z"/>
<path d="M8745 21920 c0 -15 3 -26 8 -23 4 2 7 13 7 23 0 10 -3 21 -7 23 -5 3
-8 -8 -8 -23z"/>
<path d="M8790 21940 c0 -5 5 -10 10 -10 6 0 10 5 10 10 0 6 -4 10 -10 10 -5
0 -10 -4 -10 -10z"/>
<path d="M8535 21911 c-3 -5 -2 -12 3 -15 5 -3 9 1 9 9 0 17 -3 19 -12 6z"/>
<path d="M8780 21893 c11 -24 30 -31 30 -11 0 6 -3 8 -7 5 -3 -4 -12 1 -20 11
-13 15 -13 15 -3 -5z"/>
<path d="M8715 21890 c6 -9 4 -12 -7 -8 -8 4 -15 1 -15 -7 0 -7 8 -10 19 -7
21 5 23 17 6 28 -7 5 -8 3 -3 -6z"/>
<path d="M8586 21882 c-3 -5 1 -9 9 -9 8 0 12 4 9 9 -3 4 -7 8 -9 8 -2 0 -6
-4 -9 -8z"/>
<path d="M8822 21868 c-17 -17 -15 -31 8 -46 11 -7 20 -8 20 -3 0 5 -7 11 -15
15 -8 3 -15 11 -15 17 0 8 4 8 15 -1 10 -9 15 -9 15 -1 0 6 -5 11 -11 11 -5 0
-7 5 -4 10 8 14 2 13 -13 -2z"/>
<path d="M8535 21860 c-3 -5 -1 -10 4 -10 6 0 11 5 11 10 0 6 -2 10 -4 10 -3
0 -8 -4 -11 -10z"/>
<path d="M8680 21831 c-7 -15 -7 -19 5 -17 8 1 18 6 22 11 5 4 2 5 -6 0 -11
-6 -13 -4 -8 8 9 23 0 21 -13 -2z"/>
<path d="M8737 21833 c5 -12 3 -14 -7 -8 -9 5 -11 4 -6 -4 4 -6 12 -9 17 -6
12 8 12 35 -1 35 -5 0 -6 -7 -3 -17z"/>
<path d="M8550 21826 c0 -2 7 -7 16 -10 8 -3 12 -2 9 4 -6 10 -25 14 -25 6z"/>
<path d="M8609 21803 c-8 -9 -9 -14 -2 -10 6 4 13 1 16 -5 3 -7 4 -3 4 10 -1
26 -1 26 -18 5z"/>
<path d="M8700 21798 c-12 -8 -11 -9 3 -4 15 5 17 2 12 -13 -7 -24 6 -33 25
-19 12 8 11 9 -3 4 -15 -5 -17 -2 -12 13 7 24 -6 33 -25 19z"/>
<path d="M8750 21795 c0 -8 2 -15 4 -15 2 0 6 7 10 15 3 8 1 15 -4 15 -6 0
-10 -7 -10 -15z"/>
<path d="M8459 21788 c-5 -18 -6 -38 -1 -34 7 8 12 36 6 36 -2 0 -4 -1 -5 -2z"/>
<path d="M8589 21778 c10 -13 11 -21 2 -31 -8 -10 -7 -14 4 -14 8 0 11 5 8 10
-4 6 0 8 9 5 9 -4 15 0 15 8 0 8 -3 12 -5 9 -3 -3 -15 3 -26 12 -20 17 -20 17
-7 1z"/>
<path d="M8770 21780 c0 -5 0 -13 1 -16 0 -9 -65 -42 -73 -37 -5 2 -8 -1 -8
-6 0 -14 6 -14 30 -1 15 8 22 6 31 -8 11 -18 13 -17 36 6 29 29 25 40 -4 12
-17 -15 -23 -17 -32 -6 -8 9 -2 15 24 25 19 7 35 17 35 24 0 8 -3 8 -12 -1
-17 -17 -33 -15 -18 3 9 10 9 15 1 15 -6 0 -11 -4 -11 -10z"/>
<path d="M8650 21778 c0 -2 9 -11 20 -21 11 -9 20 -13 20 -7 0 5 -9 14 -20 20
-11 6 -20 9 -20 8z"/>
<path d="M8550 21760 c0 -5 5 -10 11 -10 5 0 7 5 4 10 -3 6 -8 10 -11 10 -2 0
-4 -4 -4 -10z"/>
<path d="M8417 21715 c-4 -8 -3 -16 1 -19 4 -3 9 4 9 15 2 23 -3 25 -10 4z"/>
<path d="M8533 21715 c0 -8 4 -12 9 -9 4 3 8 9 8 15 0 5 -4 9 -8 9 -5 0 -9 -7
-9 -15z"/>
<path d="M8627 21719 c7 -9 10 -19 6 -22 -3 -4 -1 -7 5 -7 17 0 15 16 -5 31
-16 12 -17 12 -6 -2z"/>
<path d="M8660 21720 c0 -5 5 -10 11 -10 5 0 7 5 4 10 -3 6 -8 10 -11 10 -2 0
-4 -4 -4 -10z"/>
<path d="M8563 21695 c-3 -9 -3 -18 -1 -21 3 -3 8 4 11 16 6 23 -1 27 -10 5z"/>
<path d="M8733 21698 c7 -20 -9 -25 -16 -5 -4 9 -6 9 -6 0 -1 -18 19 -27 32
-14 8 8 7 14 -2 24 -11 10 -13 9 -8 -5z"/>
<path d="M8672 21684 c-7 -8 -8 -14 -3 -14 10 0 25 19 20 25 -2 1 -10 -3 -17
-11z"/>
<path d="M8533 21675 c0 -8 4 -12 9 -9 5 3 6 10 3 15 -9 13 -12 11 -12 -6z"/>
<path d="M8630 21661 c0 -6 4 -12 8 -15 5 -3 9 1 9 9 0 8 -4 15 -9 15 -4 0 -8
-4 -8 -9z"/>
<path d="M8695 21660 c3 -5 14 -10 23 -10 15 0 15 2 2 10 -20 13 -33 13 -25 0z"/>
<path d="M8415 21640 c3 -5 8 -10 11 -10 2 0 4 5 4 10 0 6 -5 10 -11 10 -5 0
-7 -4 -4 -10z"/>
<path d="M8515 21642 c3 -3 0 -10 -5 -17 -7 -8 -5 -12 5 -12 8 0 13 3 10 5 -3
3 0 10 5 17 7 8 5 12 -5 12 -8 0 -13 -3 -10 -5z"/>
<path d="M8596 21634 c-11 -8 -16 -14 -10 -14 13 0 39 18 34 24 -3 2 -14 -2
-24 -10z"/>
<path d="M8670 21640 c-13 -8 -12 -10 3 -10 9 0 17 5 17 10 0 12 -1 12 -20 0z"/>
<path d="M8545 21620 c-3 -6 1 -7 9 -4 18 7 21 14 7 14 -6 0 -13 -4 -16 -10z"/>
<path d="M8633 21615 c0 -8 4 -12 9 -9 4 3 8 9 8 15 0 5 -4 9 -8 9 -5 0 -9 -7
-9 -15z"/>
<path d="M8602 21597 c10 -8 14 -18 10 -22 -4 -5 -1 -5 6 -1 17 10 15 14 -10
26 -21 10 -21 10 -6 -3z"/>
<path d="M8660 21601 c0 -6 5 -13 11 -17 8 -4 7 -9 -2 -15 -8 -5 -9 -9 -4 -9
6 0 16 4 23 9 11 7 10 9 -3 15 -9 3 -13 10 -10 16 3 5 1 10 -4 10 -6 0 -11 -4
-11 -9z"/>
<path d="M8500 21585 c0 -2 6 -8 13 -14 10 -8 14 -7 14 2 0 8 -6 14 -14 14 -7
0 -13 -1 -13 -2z"/>
<path d="M8545 21582 c4 -7 1 -21 -7 -30 -11 -15 -11 -15 2 -6 8 6 23 10 33 9
9 -2 17 1 17 7 0 5 -6 8 -12 5 -7 -2 -19 3 -26 12 -8 9 -11 10 -7 3z"/>
<path d="M8639 21583 c0 -5 -3 -19 -5 -32 -2 -14 -2 -22 1 -19 8 8 17 58 10
58 -3 0 -5 -3 -6 -7z"/>
<path d="M8467 21559 c7 -7 15 -10 18 -7 3 3 -2 9 -12 12 -14 6 -15 5 -6 -5z"/>
<path d="M8494 21529 c-3 -6 -2 -15 3 -20 5 -5 9 -1 9 11 0 23 -2 24 -12 9z"/>
<path d="M8610 21520 c0 -5 5 -10 11 -10 5 0 7 5 4 10 -3 6 -8 10 -11 10 -2 0
-4 -4 -4 -10z"/>
<path d="M8590 21501 c0 -6 4 -13 10 -16 6 -3 7 1 4 9 -7 18 -14 21 -14 7z"/>
<path d="M8670 21501 c0 -5 7 -11 14 -14 10 -4 13 -1 9 9 -6 15 -23 19 -23 5z"/>
<path d="M8540 21491 c0 -7 -5 -9 -12 -5 -7 5 -8 3 -3 -5 5 -9 10 -10 18 -2 6
6 8 14 4 18 -4 3 -7 1 -7 -6z"/>
<path d="M8628 21493 c6 -2 10 -8 8 -12 -3 -4 1 -8 9 -8 8 0 15 4 15 8 0 7
-26 20 -38 18 -4 0 -1 -3 6 -6z"/>
<path d="M8385 21480 c-3 -6 1 -7 9 -4 18 7 21 14 7 14 -6 0 -13 -4 -16 -10z"/>
<path d="M8466 21478 c3 -5 10 -6 15 -3 13 9 11 12 -6 12 -8 0 -12 -4 -9 -9z"/>
<path d="M8676 21463 c2 -7 -5 -17 -14 -22 -9 -6 -12 -10 -7 -10 13 0 45 24
45 33 0 4 -4 5 -9 2 -5 -4 -11 -3 -14 1 -2 5 -2 2 -1 -4z"/>
<path d="M8480 21460 c-9 -6 -10 -10 -3 -10 6 0 15 5 18 10 8 12 4 12 -15 0z"/>
<path d="M8590 21461 c0 -6 7 -8 15 -4 10 3 15 1 13 -7 -2 -7 4 -15 12 -17 12
-4 12 -3 2 5 -8 5 -13 13 -12 18 0 5 -6 10 -14 12 -9 2 -16 -1 -16 -7z"/>
<path d="M8535 21430 c-3 -6 1 -7 9 -4 18 7 21 14 7 14 -6 0 -13 -4 -16 -10z"/>
<path d="M8593 21425 c0 -8 4 -15 9 -15 4 0 8 4 8 9 0 6 -4 12 -8 15 -5 3 -9
-1 -9 -9z"/>
<path d="M8416 21422 c-3 -5 1 -9 9 -9 8 0 12 4 9 9 -3 4 -7 8 -9 8 -2 0 -6
-4 -9 -8z"/>
<path d="M8492 21411 c-11 -7 -11 -9 0 -14 9 -3 15 1 15 9 0 8 -1 14 -1 14 -1
0 -7 -4 -14 -9z"/>
<path d="M8557 21409 c7 -7 15 -10 18 -7 3 3 -2 9 -12 12 -14 6 -15 5 -6 -5z"/>
<path d="M8464 21382 c4 -3 14 -7 22 -8 9 -1 13 0 10 4 -4 3 -14 7 -22 8 -9 1
-13 0 -10 -4z"/>
</g>
</svg>
